<svg xmlns="http://www.w3.org/2000/svg" width="1917.69177" height="1259.20089" viewBox="0 0 507.38929 333.16358"><g transform="translate(582.9854 571.21923)"><path fill="none" stroke="#244766" stroke-width="5" d="m -216.89743,-314.21802 c 0,-5.92788 0,-11.45493 0,-17.18199"/><path fill="none" stroke="#244766" stroke-width="5" d="m -243.41666,-300.95833 c -63.51057,0 -127.02336,0 -190.53813,0" transform="matrix(-1 0 0 1 -672.04167 7.93746)"/><rect width="133.32721" height="276.67157" x="-541.2757" y="-542.97321" fill="#1a1a1a" ry="16.35727"/><path fill="none" stroke="#444" stroke-dashoffset="24.94488" stroke-linecap="round" stroke-linejoin="round" stroke-width="17.00787" d="m -2019.7012,-1059.8301 c 6.3894,21.8816 22.4411,24.8789 51.9688,24.8789 h 344.0566" transform="scale(.26458)"/><rect width="122.66573" height="245.33147" x="-535.76898" y="-527.33246" fill="#fafafa" rx="4.43219" ry="4.43219"/><path fill="#4caf50" d="m -2008.2012,-1993.0684 c -9.2803,0 -16.7519,7.4716 -16.7519,16.752 v 77.7519 h 463.6172 v -77.7519 c 0,-9.2804 -7.4697,-16.752 -16.75,-16.752 z" transform="scale(.26458)"/><path fill="none" stroke="#6dbe70" stroke-dashoffset="24.94488" stroke-linecap="round" stroke-linejoin="round" stroke-width="4.5" d="m -417.29081,-520.56396 h -107.52523 c -2.32001,0 -4.18784,2.29634 -4.18784,4.08714 v 7.7983"/><path fill="#fff" fill-opacity=".18584" d="m -524.91835,-542.97304 c -9.06193,0 -16.35712,7.2952 -16.35712,16.35712 v 243.95721 c 0,9.06193 7.29519,16.35715 16.35712,16.35715 z"/><path fill-opacity=".18584" stroke="#444" stroke-linecap="round" stroke-width="4.5" d="m -486.91598,-535.09417 c 8.3531,0 16.70595,0 25.05853,0" transform="translate(-.18016 .87866)"/><g fill="#b3b3b3" transform="translate(0 42.8625)"><path d="m -448.31601,-465.63501 a 26.120512,26.120512 0 0 1 -26.07424,26.12047 26.120512,26.120512 0 0 1 -26.16662,-26.02792 26.120512,26.120512 0 0 1 25.98153,-26.21269 26.120512,26.120512 0 0 1 26.25867,25.93505"/><path d="m -495.31814,-439.46849 c -12.98272,0.77016 -23.20557,11.4759 -23.20557,24.65864 0,13.68637 11.01856,24.70455 24.70493,24.70455 h 38.7643 c 13.68637,0 24.70455,-11.01818 24.70455,-24.70455 0,-13.16995 -10.20303,-23.86773 -23.16778,-24.65642 a 33.508508,33.508508 0 0 1 -20.85967,7.33947 33.508508,33.508508 0 0 1 -20.94076,-7.34169 z"/><rect width="88.11416" height="24.52307" x="-518.52277" y="-414.62823" ry="11.67325"/><rect width="88.1729" height="13.93764" x="-518.52277" y="-414.62823" ry="0"/><path stroke="#d9d9d9" stroke-dashoffset="24.94488" stroke-linecap="round" stroke-linejoin="round" stroke-width="4.5" d="m -480.40275,-426.74712 c -5.71472,0.002 -11.25972,-2.47156 -15.72234,-6.04128 v 0 c -9.74739,0.57823 -16.8937,8.08676 -16.8937,17.98432 0,0.0455 0.002,0.0908 0.002,0.13619 h -0.002 v 8.7642 0.88345 0.8167 l 0.0387,1.51023 c 0.4096,4.46942 2.63541,6.43727 7.2152,6.43727"/><path stroke="#d9d9d9" stroke-dashoffset="24.94488" stroke-linecap="round" stroke-linejoin="round" stroke-width="4.5" d="m -466.87095,-483.96646 c -2.43216,-1.00496 -5.03998,-1.51588 -7.67156,-1.50297 -10.94015,0.0581 -19.76726,8.96374 -19.72845,19.90397 0.0283,5.4232 2.27598,10.5983 6.22003,14.32073"/></g><path fill-opacity=".0885" d="m -424.3056,-542.31531 c 9.06193,0 16.35712,7.2952 16.35712,16.35712 v 243.95721 c 0,9.06193 -7.29519,16.35715 -16.35712,16.35715 z"/><path fill-opacity=".18584" stroke="#444" stroke-linecap="round" stroke-width="4.5" d="m -486.91598,-535.09417 c 0,0 0,0 0,0" transform="translate(-10.7635 .87866)"/><path fill-opacity=".18584" stroke="#444" stroke-linecap="round" stroke-width="4.5" d="m -486.91598,-535.09417 c 0,0 0,0 0,0" transform="translate(-19.23016 .87866)"/><g stroke-width="20.28384" transform="translate(-339.83665 -270.39077) scale(.22185)"><circle cx="554.15125" cy="-591.85168" r="364.13095" fill="#6ebdd7" paint-order="stroke fill markers"/><path fill="#248524" d="m 4431.6426,-1447.5273 c 1.3677,0.6945 2.6978,1.3859 3.9375,2.0703 28.0548,15.4878 20.4573,28.3456 3.7988,37.9902 -16.6585,9.6446 -42.3731,16.0729 -54.3555,25.7168 -11.9823,9.6439 -10.2298,22.5025 4.6758,28.3477 14.9056,5.8451 42.9587,4.676 65.168,11.6894 22.2092,7.0135 38.5753,22.2113 56.4023,27.7637 17.8271,5.5524 37.1159,1.4603 38.8692,-10.2285 1.7532,-11.6889 -14.0299,-30.9769 -16.3672,-45.2969 -2.3374,-14.32 8.7675,-23.6721 20.748,-19.2891 11.9806,4.3831 24.8418,22.5042 34.1934,37.4082 9.3516,14.9041 15.1956,26.5935 10.8125,37.4063 -4.3831,10.8127 -18.9938,20.7476 -34.7754,25.4238 -15.7816,4.6762 -32.7314,4.0924 -50.5586,1.1699 -17.8272,-2.9224 -36.5284,-8.1823 -46.4648,-15.7812 -9.9365,-7.5989 -11.1048,-17.5363 -16.6563,-22.5039 -5.5515,-4.9676 -15.49,-4.967 -18.7051,2.0468 -3.215,7.0141 0.2912,21.0414 -8.1836,28.3477 -8.4748,7.3063 -28.9294,7.8905 -46.1718,16.3652 -17.2424,8.4748 -31.2688,24.8393 -46.7578,34.1914 -15.4891,9.3522 -32.4373,11.6892 -50.5567,13.1504 -18.1194,1.4613 -37.407,2.045 -44.1289,7.5977 -6.7219,5.5526 -0.878,16.0728 9.0586,24.2559 9.9366,8.183 23.9643,14.0289 30.6855,23.6718 6.7213,9.643 6.1362,23.0865 -17.2441,28.9317 -23.3803,5.8452 -69.5503,4.0912 -97.6055,20.164 -28.0552,16.0728 -37.9905,49.9708 -35.6523,69.8438 2.3382,19.8729 16.9491,25.719 26.8848,34.1933 9.9356,8.4744 15.1962,19.5783 24.5488,21.9161 9.3525,2.33758 22.7954,-4.0904 39.7441,-7.3047 16.9488,-3.2144 37.4077,-3.214 55.8184,-7.5977 18.4106,-4.3837 34.7766,-13.1522 38.2832,-22.2109 3.5066,-9.0587 -5.8451,-18.4096 0.8769,-29.2227 6.7221,-10.8131 29.5159,-23.0878 42.6661,-34.7773 13.1502,-11.6895 16.6575,-22.7959 33.0214,-26.8867 16.364,-4.0909 45.5898,-1.167 65.7539,-3.2129 20.1644,-2.046 31.2715,-9.0604 53.7715,-1.4629 22.5001,7.5974 56.4029,29.8105 79.1973,46.1758 22.7944,16.3652 34.4826,26.8851 27.7617,34.7753 -6.7208,7.8903 -31.8522,13.1512 -37.6972,22.211 -5.845,9.0598 7.5965,21.9169 26.8847,24.5469 19.2882,2.6299 44.4205,-4.9682 56.1094,-18.7032 11.6889,-13.7349 9.9357,-33.6089 -11.3965,-56.4023 -21.3322,-22.7934 -62.2464,-48.5106 -55.2324,-48.8027 7.014,-0.2922 61.9543,24.8402 102.8672,51.4336 40.9129,26.5931 67.7984,54.6487 85.041,66.3378 17.2426,11.6892 24.8399,7.0137 24.8398,-4.0898 -1e-4,-11.1035 -7.5979,-28.642 -6.7207,-40.916 0.8773,-12.2741 10.2287,-19.2868 23.67,-5.8457 13.4412,13.4411 30.9767,47.3439 65.7539,65.46287 34.7771,18.11894 86.7947,20.45793 116.8945,40.03711 30.0998,19.57917 38.2841,56.40117 28.6406,74.8125 -9.6435,18.41132 -37.1149,18.41044 -83.582,9.05859 -46.4671,-9.35184 -111.9259,-28.05294 -146.4102,-26.00781 -34.4842,2.04513 -37.9898,24.83779 -64,24.83789 -26.0102,10e-5 -74.5199,-22.79164 -113.6797,-37.11133 -39.1597,-14.31969 -68.9671,-20.16469 -78.3183,-26.88672 -9.3513,-6.72203 1.7533,-14.32117 2.0449,-28.64062 0.2916,-14.31945 -10.2302,-35.36068 -16.9512,-43.83598 -6.721,-8.4753 -9.6423,-4.3821 -45.3047,-2.3359 -35.6623,2.0462 -104.0271,2.0461 -143.7714,7.0137 -39.7444,4.9676 -50.8487,14.90206 -64,20.45505 -13.1514,5.553 -28.3474,6.72327 -45.0059,3.80078 -16.6585,-2.92248 -34.7762,-9.93552 -54.6484,-3.79882 -19.8722,6.1367 -41.497,25.42344 -59.9082,39.45117 -18.4113,14.02772 -33.6058,22.79423 -40.9121,36.82226 -7.3066,14.02803 -6.7231,33.31436 -20.1661,46.75782 -13.443,13.44345 -40.9113,21.03983 -77.7343,52.89453 -36.8231,31.85469 -82.9943,87.96331 -101.1133,120.40234 -18.1191,32.43904 -8.1844,41.20613 -3.8008,61.66211 4.3836,20.45598 3.2144,52.60122 -4.6758,75.98047 -7.8901,23.37925 -22.5001,37.99083 -26.5918,58.15625 -4.0917,20.16542 2.3355,45.87985 40.0352,94.39258 37.6996,48.51273 106.6657,119.81817 159.8535,149.33398 53.1878,29.51581 90.5955,17.24128 123.0332,14.61133 32.4377,-2.62995 59.9086,4.38415 82.7031,0.87695 22.7945,-3.50719 40.9138,-17.53508 66.9219,-25.13281 26.008,-7.59773 59.9097,-8.76708 83.5801,2.92188 23.6704,11.68895 37.1143,36.2375 55.8183,42.08203 18.7041,5.84452 42.6664,-7.01403 59.6153,-6.42969 16.9488,0.58434 26.8859,14.6124 33.6074,29.80859 6.7215,15.19619 10.2279,31.56279 6.1367,52.89649 -4.0912,21.3337 -15.7809,47.63325 -6.1367,80.365232 9.6442,32.731979 40.621,71.88928 59.3242,106.373047 18.7032,34.483764 25.1308,64.291711 32.1445,94.392581 7.0138,30.10086 14.6125,60.49299 4.9688,97.60742 -9.6437,37.11443 -36.5282,80.94906 -47.9258,115.43359 -11.3976,34.48453 -7.3074,59.61593 2.6289,83.58008 9.9363,23.96415 25.7167,46.75886 32.7305,80.6582 7.0138,33.89934 5.2601,78.90279 11.6894,111.3418 6.4293,32.43901 21.0419,52.31043 29.2246,79.48828 8.1827,27.17785 9.9349,61.66212 28.0547,74.22852 18.1198,12.56639 52.6047,3.21471 85.627,-3.79883 33.0222,-7.01354 64.5836,-11.6884 100.8203,-30.68359 36.2367,-18.9952 77.151,-52.31133 101.4062,-80.65821 24.2553,-28.34688 31.8554,-51.72735 47.3438,-68.96875 15.4884,-17.2414 38.8675,-28.34703 52.0176,-52.01758 13.15,-23.67054 16.0718,-59.90967 40.0351,-96.14648 23.9633,-36.23681 68.9693,-72.47507 95.5625,-99.94531 26.5933,-27.47025 34.7761,-46.17402 36.5293,-80.65625 1.7533,-34.48223 -2.9226,-84.74982 -3.2148,-128.29297 -0.2922,-43.54315 3.8005,-80.365925 21.6269,-118.648439 17.8264,-38.282511 49.3878,-78.028559 76.2735,-107.251953 26.8856,-29.223398 49.0961,-47.926748 64.584,-92.929688 15.4879,-45.00294 24.2555,-116.31301 27.1777,-154.5957 2.9222,-38.2827 6e-4,-43.54228 -15.4863,-40.32813 -15.487,3.21415 -43.5443,14.90455 -71.8926,4.67578 -28.3483,-10.22877 -56.9864,-42.37375 -109.2969,-118.35546 -52.3105,-75.98174 -128.292,-195.79895 -160.4375,-258.3379 -32.1454,-62.53892 -20.455,-67.79936 2.0449,-47.05273 22.4999,20.74663 55.8177,67.50923 89.1328,111.05273 33.3152,43.54351 66.6311,83.87183 90.8868,121.57032 24.2556,37.69848 39.4518,72.76674 49.0957,98.1914 9.6438,25.42467 13.7341,41.20609 32.1465,38.28321 18.4123,-2.92289 51.1424,-24.54798 75.1054,-46.75782 23.963,-22.20983 39.1591,-45.00549 45.5879,-73.35156 6.4289,-28.34607 4.0918,-62.24794 -6.7207,-87.67187 -10.8124,-25.42394 -30.1025,-42.37336 -45.0058,-47.3418 -14.9036,-4.96844 -25.4238,2.04474 -49.0977,-19.29102 -23.6739,-21.33575 -60.4913,-71.00938 -73.9336,-99.06445 -13.4423,-28.05507 -3.5064,-34.4859 14.9023,-18.70703 18.4088,15.77887 45.2987,53.77555 71.8926,78.9082 26.594,25.13265 52.8953,37.40587 77.4434,42.66602 19.0653,4.08532 37.0727,3.92701 54.9804,-18.51953 A 1376.243,1376.243 0 0 0 4431.6426,-1447.5273 Z m 430.9531,282.1718 c 1.1888,-0.013 2.2486,0.8913 3.9531,2.8028 3.409,3.8229 9.402,11.6744 18.5977,21.3867 9.1957,9.7123 21.5919,21.2853 28.1015,19.2187 6.5097,-2.0665 7.1294,-17.7698 12.9161,-27.5859 5.7866,-9.8161 16.7403,-13.7441 22.5254,-7.5449 5.785,6.1991 6.4048,22.5248 19.3203,35.1308 12.9155,12.606 38.1255,21.4914 54.7597,31.3067 16.6343,9.8153 24.6951,20.5616 20.5625,27.1738 -4.1325,6.6122 -20.4571,9.0921 -34.1992,6.1992 -13.7421,-2.8928 -24.9017,-11.1588 -37.7129,-16.5312 -12.8112,-5.3725 -27.2792,-7.8541 -38.1269,-5.2715 -10.8477,2.5826 -18.0794,10.229 -29.0313,13.7422 -10.9518,3.5132 -25.6239,2.8945 -36.8867,-3.4082 -11.2628,-6.3028 -19.1156,-18.2869 -23.5586,-32.0293 -4.443,-13.7425 -5.4763,-29.2388 -1.9629,-40.3985 3.5134,-11.1597 11.5612,-17.9708 16.0098,-21.4882 2.2243,-1.7588 3.5436,-2.6897 4.7324,-2.7032 z m 232.7539,36.3125 c 2.4098,0 4.939,0.1724 7.4961,0.4825 13.6381,1.6533 28.104,7.2351 32.0293,13.33 3.9253,6.095 -2.6861,12.7073 2.9961,22.5235 5.6822,9.8161 23.6594,22.8347 39.7773,38.7461 16.118,15.9113 30.3773,34.7148 48.459,49.4902 18.0817,14.77534 39.9863,25.52167 53.211,33.78711 13.2246,8.26544 17.7709,14.05152 14.5683,18.39062 -3.2026,4.33911 -14.1554,7.23206 -26.1406,7.12891 -11.9852,-0.10316 -25.0031,-3.20358 -42.4649,-18.08203 -17.4615,-14.87845 -39.3674,-41.53411 -59.1015,-60.54491 -19.7341,-19.0109 -37.2988,-30.377 -54.0371,-46.082 -16.7384,-15.7051 -32.6474,-35.7488 -34.1973,-46.9082 -1.2593,-9.0673 6.9617,-12.2671 17.4043,-12.2618 z" transform="matrix(.26458 0 0 .26458 -582.9854 -571.21923)"/><path fill="#2a982a" d="m 201.09932,-676.40307 a 361.33173,361.33173 0 0 0 -6.5217,33.3971 361.33173,361.33173 0 0 0 -0.89994,7.41395 361.33173,361.33173 0 0 0 -2.59627,27.87894 361.33173,361.33173 0 0 0 -0.58047,16.39498 361.33173,361.33173 0 0 0 60.30174,198.79602 361.33173,361.33173 0 0 0 2.86753,4.65974 361.33173,361.33173 0 0 0 32.19,19.35123 c -0.0561,-0.46647 -0.11111,-0.94532 -0.16717,-1.3989 -1.68803,-13.65765 -2.91537,-20.71627 -3.37572,-32.22537 -0.46033,-11.5091 -0.15365,-27.46785 2.60858,-34.52678 2.76223,-7.05894 7.97917,-5.21803 11.35526,-7.0596 3.3761,-1.84158 4.91067,-7.36545 4.75716,-18.72101 -0.15349,-11.35556 -1.99459,-28.542 0.15385,-41.58587 2.14842,-13.04387 8.28609,-21.94385 11.50857,-30.38393 3.22253,-8.44008 3.52945,-16.41973 -7.97953,-27.46821 -11.50899,-11.04848 -34.83353,-25.16624 -52.32733,-42.81349 -17.49382,-17.64725 -29.15653,-38.82366 -40.5121,-56.31735 -3.58446,-5.52206 -7.13846,-10.67572 -10.78246,-15.39145 z"/><path fill="#2ca02c" d="m 547.45012,-930.08004 c -1.15973,-0.23205 -1.54635,-0.0774 -3.67427,1.04459 -2.12793,1.122 -5.99079,3.20795 -7.1894,5.79836 -1.1986,2.5904 0.27039,5.68302 2.5129,7.34549 2.24251,1.66247 5.25794,1.89442 5.14212,3.09269 -0.11582,1.19828 -3.36357,3.36345 -5.49001,5.37383 -2.12645,2.01038 -3.13153,3.86593 0.38731,4.83261 3.51883,0.96669 11.55888,1.04399 16.58474,0.34801 5.02586,-0.69599 7.03627,-2.16514 5.68336,-4.98693 -1.35291,-2.8218 -6.0702,-6.99776 -8.1192,-10.78666 -2.04899,-3.7889 -1.43043,-7.19101 -2.08768,-9.20121 -0.65725,-2.01021 -2.59013,-2.62873 -3.74987,-2.86078 z"/><path fill="#2ca02c" d="m 529.12495,-918.24994 c -2.08753,0.0772 -4.79378,1.46902 -7.38419,2.20364 -2.59042,0.73463 -5.06441,0.81194 -5.99239,2.47443 -0.92797,1.66249 -0.30947,4.90962 1.8558,6.45614 2.16527,1.54652 5.87645,1.39188 9.04654,0.54132 3.17009,-0.85056 5.7992,-2.3971 6.95886,-4.05941 1.15966,-1.66232 0.85034,-3.44092 -0.0387,-4.94849 -0.88907,-1.50756 -2.35836,-2.74485 -4.44588,-2.66763 z"/><path fill="#eaf5f7" d="m 4260.8848,1118.9277 a 697.92677,431.34248 0 0 0 -434.9571,94.0664 1376.243,1376.243 0 0 0 471.9121,85.2676 1376.243,1376.243 0 0 0 426.9297,-69.6855 697.92677,431.34248 0 0 0 -463.8847,-109.6485 z" paint-order="stroke fill markers" transform="matrix(.26458 0 0 .26458 -582.9854 -571.21923)"/><path fill="#f4f4f4" d="m 4297.8398,-1454.2246 a 1376.243,1376.243 0 0 0 -318.3613,38.9082 697.92677,431.34248 0 0 0 281.4063,36.9238 697.92677,431.34248 0 0 0 315.5136,-46.6328 1376.243,1376.243 0 0 0 -278.5586,-29.1992 z" paint-order="stroke fill markers" transform="matrix(.26458 0 0 .26458 -582.9854 -571.21923)"/><path fill="#2a982a" d="m 4431.8047,-1447.4414 c 1.3082,0.6656 2.5868,1.3282 3.7754,1.9844 28.0548,15.4878 20.4573,28.3456 3.7988,37.9902 -16.6585,9.6446 -42.3731,16.0729 -54.3555,25.7168 -11.9823,9.6439 -10.2298,22.5025 4.6758,28.3477 14.9056,5.8451 42.9587,4.676 65.168,11.6894 22.2092,7.0135 38.5753,22.2113 56.4023,27.7637 17.8271,5.5524 37.1159,1.4603 38.8692,-10.2285 1.7532,-11.6889 -14.0299,-30.9769 -16.3672,-45.2969 -2.3374,-14.32 8.7675,-23.6721 20.748,-19.2891 11.9806,4.3831 24.8418,22.5042 34.1934,37.4082 9.3516,14.9041 15.1956,26.5935 10.8125,37.4063 -4.3831,10.8127 -18.9938,20.7476 -34.7754,25.4238 -15.7816,4.6762 -32.7314,4.0924 -50.5586,1.1699 -17.8272,-2.9224 -36.5284,-8.1823 -46.4648,-15.7812 -9.9365,-7.5989 -11.1048,-17.5363 -16.6563,-22.5039 -5.5515,-4.9676 -15.49,-4.9669 -18.7051,2.0468 -3.215,7.0141 0.2912,21.0414 -8.1836,28.3477 -8.4748,7.3063 -28.9294,7.8905 -46.1718,16.3652 -17.2424,8.4748 -31.2688,24.8393 -46.7578,34.1914 -15.4891,9.3522 -32.4373,11.6892 -50.5567,13.1504 -18.1194,1.4613 -37.407,2.045 -44.1289,7.5977 -6.7219,5.5526 -0.878,16.0728 9.0586,24.2559 9.9366,8.183 23.9643,14.0289 30.6855,23.6718 6.7213,9.643 6.1362,23.0865 -17.2441,28.9317 -23.3803,5.8452 -69.5503,4.0912 -97.6055,20.164 -28.0552,16.0728 -37.9905,49.9708 -35.6523,69.8438 2.3382,19.8729 16.9491,25.719 26.8848,34.1933 9.9356,8.4744 15.1962,19.5783 24.5488,21.9161 9.3525,2.33754 22.7954,-4.0904 39.7441,-7.3047 16.9488,-3.2144 37.4077,-3.214 55.8184,-7.5977 18.4106,-4.3837 34.7766,-13.1522 38.2832,-22.2109 3.5066,-9.0587 -5.8451,-18.4096 0.8769,-29.2227 6.7221,-10.8131 29.5159,-23.0878 42.6661,-34.7773 13.1502,-11.6895 16.6575,-22.7959 33.0214,-26.8867 16.364,-4.0909 45.5899,-1.167 65.7539,-3.2129 20.1644,-2.046 31.2715,-9.0604 53.7715,-1.4629 22.5001,7.5974 56.4029,29.8105 79.1973,46.1758 22.7944,16.3652 34.4826,26.8851 27.7617,34.7753 -6.7208,7.8903 -31.8522,13.1512 -37.6972,22.211 -5.845,9.0598 7.5965,21.9169 26.8847,24.5469 19.2882,2.6299 44.4205,-4.9682 56.1094,-18.7032 11.6889,-13.7349 9.9357,-33.6089 -11.3965,-56.4023 -21.3322,-22.7934 -62.2464,-48.5106 -55.2324,-48.8027 7.014,-0.2922 61.9543,24.8402 102.8672,51.4336 40.9129,26.593 67.7984,54.6487 85.041,66.3378 17.2426,11.6892 24.8399,7.0137 24.8398,-4.0898 -1e-4,-11.1035 -7.5979,-28.642 -6.7207,-40.916 0.8773,-12.2741 10.2287,-19.2868 23.67,-5.8457 13.4412,13.4411 30.9767,47.3439 65.7539,65.46287 34.7771,18.11894 86.7947,20.45793 116.8945,40.03711 30.0998,19.57917 38.2841,56.40117 28.6406,74.8125 -9.6435,18.41132 -37.1149,18.41044 -83.582,9.05859 -46.4671,-9.35184 -111.9259,-28.05294 -146.4102,-26.00781 -34.4842,2.04513 -37.9898,24.83779 -64,24.83789 -26.0102,10e-5 -74.5199,-22.79164 -113.6797,-37.11133 -39.1597,-14.31969 -68.9671,-20.16469 -78.3183,-26.88672 -9.3513,-6.72203 1.7533,-14.32117 2.0449,-28.64062 0.2916,-14.31945 -10.2302,-35.36068 -16.9512,-43.83598 -6.721,-8.4753 -9.6423,-4.3821 -45.3047,-2.3359 -35.6623,2.0462 -104.0271,2.0461 -143.7714,7.0137 -39.7444,4.9676 -50.8487,14.90206 -64,20.45505 -13.1514,5.553 -28.3474,6.72327 -45.0059,3.80078 -16.6585,-2.92248 -34.7762,-9.93552 -54.6484,-3.79882 -19.8722,6.1367 -41.497,25.42344 -59.9082,39.45117 -18.4113,14.02772 -33.6059,22.79423 -40.9121,36.82226 -7.3066,14.02803 -6.7231,33.31436 -20.1661,46.75782 -13.443,13.44345 -40.9113,21.03983 -77.7343,52.89453 -36.8231,31.85469 -82.9943,87.96331 -101.1133,120.40234 -18.1191,32.43904 -8.1844,41.20613 -3.8008,61.66211 4.3836,20.45598 3.2144,52.60122 -4.6758,75.98047 -7.8901,23.37925 -22.5001,37.99083 -26.5918,58.15625 -4.0917,20.16542 2.3355,45.87985 40.0352,94.39258 37.6996,48.51273 106.6657,119.81817 159.8535,149.33398 53.1878,29.51581 90.5955,17.24128 123.0332,14.61133 32.4377,-2.62995 59.9086,4.38415 82.7031,0.87695 22.7945,-3.50719 40.9138,-17.53508 66.9219,-25.13281 26.008,-7.59773 59.9097,-8.76708 83.5801,2.92188 23.6704,11.68895 37.1143,36.2375 55.8183,42.08203 18.7041,5.84452 42.6664,-7.01403 59.6153,-6.42969 16.9488,0.58434 26.8859,14.6124 33.6074,29.80859 6.7215,15.19619 10.2279,31.56279 6.1367,52.89649 -4.0912,21.3337 -15.7809,47.63325 -6.1367,80.365232 9.6442,32.731978 40.621,71.88928 59.3242,106.373047 18.7032,34.483763 25.1308,64.291711 32.1445,94.392581 7.0138,30.10086 14.6125,60.49299 4.9688,97.60742 -9.6437,37.11443 -36.5282,80.94906 -47.9258,115.43359 -11.3976,34.48453 -7.3074,59.61593 2.6289,83.58008 9.9363,23.96415 25.7167,46.75886 32.7305,80.6582 7.0138,33.89934 5.2601,78.90279 11.6894,111.3418 6.4293,32.43901 21.0419,52.31043 29.2246,79.48828 0.3333,1.10682 0.6417,2.24202 0.9551,3.3711 A 1376.243,1376.243 0 0 0 5308.168,-408.76562 c -15.5053,-18.15503 -33.4898,-42.5532 -55.7852,-74.9375 -52.3105,-75.98174 -128.292,-195.79895 -160.4375,-258.3379 -32.1454,-62.53891 -20.455,-67.79936 2.0449,-47.05273 22.4999,20.74663 55.8177,67.50923 89.1328,111.05273 33.3152,43.54351 66.6311,83.87183 90.8868,121.57032 13.4163,20.85197 24.0511,40.88961 32.5175,58.94531 A 1376.243,1376.243 0 0 0 5189.498,-999.60938 c -7.844,-8.45532 -15.7401,-16.88122 -23.3183,-24.18162 -19.7341,-19.0109 -37.2988,-30.377 -54.0371,-46.082 -16.7384,-15.7051 -32.6474,-35.7489 -34.1973,-46.9082 -1.2593,-9.0673 6.9617,-12.2671 17.4043,-12.2618 2.4098,0 4.939,0.1724 7.4961,0.4825 9.3055,1.128 18.9901,4.0861 25.4551,7.7871 a 1376.243,1376.243 0 0 0 -59.4746,-96.7813 1376.243,1376.243 0 0 0 -0.1836,-0.1387 1376.243,1376.243 0 0 0 -71.041,-43.0839 1376.243,1376.243 0 0 0 -46.8731,-28.3692 1376.243,1376.243 0 0 0 -44.7832,-21.3652 1376.243,1376.243 0 0 0 -79.666,-37.9199 1376.243,1376.243 0 0 0 -16.0137,-5.7579 1376.243,1376.243 0 0 0 -301.8965,-82.0605 1376.243,1376.243 0 0 0 -76.5644,-11.1914 z m 430.791,282.0859 c 1.1888,-0.013 2.2486,0.8913 3.9531,2.8028 3.409,3.8229 9.402,11.6744 18.5977,21.3867 9.1957,9.7123 21.5919,21.2853 28.1015,19.2187 6.5097,-2.0665 7.1294,-17.7698 12.9161,-27.5859 5.7866,-9.8161 16.7403,-13.7441 22.5254,-7.5449 5.785,6.1991 6.4048,22.5248 19.3203,35.1308 12.9155,12.606 38.1255,21.4914 54.7597,31.3067 16.6343,9.8153 24.6951,20.5616 20.5625,27.1738 -4.1325,6.6122 -20.4571,9.0921 -34.1992,6.1992 -13.7421,-2.8928 -24.9017,-11.1588 -37.7129,-16.5312 -12.8112,-5.3725 -27.2792,-7.8541 -38.1269,-5.2715 -10.8477,2.5826 -18.0794,10.229 -29.0313,13.7422 -10.9518,3.5132 -25.6239,2.8945 -36.8867,-3.4082 -11.2628,-6.3028 -19.1156,-18.2869 -23.5586,-32.0293 -4.443,-13.7425 -5.4763,-29.2388 -1.9629,-40.3985 3.5134,-11.1597 11.5612,-17.9708 16.0098,-21.4882 2.2243,-1.7588 3.5436,-2.6897 4.7324,-2.7032 z m 273.4648,57.211 c -0.4674,4.3198 -1.7774,9.2391 1.8106,15.4375 2.5345,4.3783 7.5833,9.4296 13.7539,15.0547 a 1376.243,1376.243 0 0 0 -15.5645,-30.4922 z" transform="matrix(.26458 0 0 .26458 -582.9854 -571.21923)"/><path fill="#a5e6a5" d="m 4431.8047,-1447.4414 c 1.3082,0.6656 2.5868,1.3282 3.7754,1.9844 28.0548,15.4878 20.4573,28.3456 3.7988,37.9902 -13.8097,7.9953 -33.8194,13.7865 -47.0937,21.0254 a 697.92677,431.34248 0 0 0 179.9082,-37.4219 1376.243,1376.243 0 0 0 -63.8243,-12.3867 1376.243,1376.243 0 0 0 -76.5644,-11.1914 z" transform="matrix(.26458 0 0 .26458 -582.9854 -571.21923)"/><g fill="none" fill-opacity="0" stroke="#132535" stroke-width="2.48208"><g stroke="#244766" transform="matrix(8.17212 0 0 8.17212 3323.6869 3110.5472)"><circle cx="-338.90067" cy="-453.05264" r="44.07306" stroke-dashoffset="24.94488" stroke-linejoin="round" paint-order="stroke fill markers"/><path d="m -338.90069,-408.97958 c 0,-29.38229 0,-58.76435 0,-88.14612"/><ellipse cx="-338.90067" cy="-453.05264" stroke-dashoffset="24.94488" stroke-linejoin="round" paint-order="stroke fill markers" rx="27.10009" ry="44.07306"/><path d="m -338.90069,-408.97958 c 0,-29.38229 0,-58.76435 0,-88.14612" transform="rotate(90 -338.90069 -453.05264)"/><path stroke-width="2.7297" d="m -338.90069,-410.42143 c 0,-28.42107 0,-56.84192 0,-85.26248" transform="matrix(0 1 -.8268 0 -713.4855 -87.69365)"/><path stroke-width="2.7367" d="m -338.90069,-410.2025 c 0,-28.56703 0,-57.13384 0,-85.70036" transform="matrix(0 1 -.82258 0 -711.57165 -140.61025)"/><circle cx="-338.90067" cy="-453.05264" r="44.07306" stroke-dashoffset="24.94488" stroke-linejoin="round" paint-order="stroke fill markers"/></g><g stroke="#fff" stroke-dashoffset="24.94488" stroke-linecap="round" stroke-linejoin="round" paint-order="stroke fill markers"><path d="m -377.56637,-446.40873 a 39.232361,39.232361 0 0 1 24.30197,-43.15229" transform="matrix(8.17212 0 0 8.17212 3323.6869 3110.5472)"/><path d="m -349.12952,-490.92808 a 39.232361,39.232361 0 0 1 3.13623,-0.71048" transform="matrix(8.17212 0 0 8.17212 3323.6869 3110.5472)"/><path d="m -375.27543,-438.35385 a 39.232361,39.232361 0 0 1 -1.16459,-3.29813" transform="matrix(8.17212 0 0 8.17212 3323.6869 3110.5472)"/><path d="m -373.20849,-434.02237 a 39.232361,39.232361 0 0 1 -3.9e-4,-7e-4" transform="matrix(8.17212 0 0 8.17212 3323.6869 3110.5472)"/><path d="m -335.67402,-492.15209 a 39.232361,39.232361 0 0 1 9.23758,1.8997" transform="matrix(8.17212 0 0 8.17212 3323.6869 3110.5472)"/></g></g></g><path fill="none" stroke="#244766" stroke-dashoffset="24.94488" stroke-linecap="round" stroke-linejoin="round" stroke-width="5" d="m -216.89741,-314.21802 a 21.197134,21.197145 0 0 1 -21.19713,21.19715" paint-order="stroke markers fill"/><circle cx="-310.61548" cy="-293.02087" r="9.02126" fill="#fff" stroke="#244766" stroke-dashoffset="24.94488" stroke-linecap="round" stroke-linejoin="round" stroke-width="5"/><g stroke-linecap="round"><path fill="#f51c39" stroke="#f51c39" stroke-width="28.65989" d="m -36.115734,-380.23651 c 40.6357795,-7e-5 81.271486,-1.3e-4 121.907125,-1.3e-4 40.635639,0 81.271209,6e-5 121.906709,1.3e-4" transform="rotate(44.99962 -43.4558 -980.85011) scale(.68967 .70611)"/><path fill="#f51c39" stroke="#c00921" stroke-width="28.65989" d="m 86.472888,-380.23651 c 40.408542,0 80.816942,0 121.225212,0" transform="rotate(44.99962 -43.4558 -980.85011) scale(.68967 .70611)"/><path fill="#f51c39" stroke="#f51c39" stroke-width="28.65989" d="m -36.115734,-380.23651 c 81.271559,0 162.542824,0 243.813834,0" transform="rotate(135.00038 -68.329 -178.587) scale(.68967 -.70611)"/><path fill="none" stroke="#ff6a6a" stroke-width="14.32994" d="m -36.115734,-380.23651 c 81.271559,0 162.542824,0 243.813834,0" transform="matrix(-.48767 .48767 .49929 .49929 -246.50387 -260.12946)"/><path fill="none" stroke="#ff6a6a" stroke-width="14.32994" d="m -36.115734,-380.23651 c 0,0 106.66875,-7.1e-4 106.66875,-7.1e-4" transform="rotate(44.99962 -49.78287 -982.85179) scale(.68967 .70611)"/><path fill="none" stroke="#f51c39" stroke-width="14.32994" d="m 100.93357,-380.23704 c 0,0 106.76453,5.3e-4 106.76453,5.3e-4" transform="rotate(44.99962 -49.26197 -984.10893) scale(.68967 .70611)"/></g></g></svg>