<svg xmlns="http://www.w3.org/2000/svg" width="412" height="412"><g opacity=".2" stroke="#c7c7c7" stroke-width="2.78800011" stroke-linecap="round" stroke-linejoin="round"><g fill="#c7c7c7"><circle cx="149.98454" cy="103.69845" r="2.7774916"/><path d="m 297.11443,188.56625 -2.83248,-3.30243 4.27623,-0.80179 z"/><path transform="rotate(18.152319)" d="M225.25111 127.29488H229.6155166V131.6592866H225.25111z"/><path d="M379.70339 256.62712l.16367 10.14724 3.2733-1.0911-1.41843 12.43856 5.78284-16.03919-3.32786 1.0911 2.1822-8.83793zM245.03645 297.58278l2.54732 2.54124-3.47443.93542z"/><path transform="matrix(-0.45296195,-0.89152985,0.99949115,0.03189732,0,0)" d="M-387.4696 -43.368736H-382.1887272V-38.0878632H-387.4696z"/><circle r="2.618644" cy="377.52118" cx="19.3125"/></g><g fill="none"><path d="M 68.521187,8.947033 V 19.094279"/><circle cx="136.09708" cy="29.940617" r="8.9496946"/><path d="M338.89619 48.008474h13.31144V26.841101zM218.43856 49.426906l16.69386 11.565678"/><path transform="rotate(-45)" d="M-39.141823 67.225685H-27.614811000000003V78.752697H-39.141823z"/><path d="M327.54873 108.67373L331.91314 128.75M227.4947 136.93326l.54555-.76377 6.65573-11.45657 9.49258 11.02013-6.87394 12.54767zM8.9470339 139.66102L19.20339 138.56991M76.22671 157.39662l-.92583 20.98549 15.121898-14.35038zM373.05675 180.79483a10.955661 10.955661 0 017.76977-11.99937 10.955661 10.955661 0 0113.0214 5.89893M303.54448 247.46187l6.67866 7.63562-3.2733 9.60169-9.95197 1.96608-6.67865-7.63561 3.2733-9.60169zM173.15784 271.4661h17.45763v-17.56674"/><path transform="rotate(-6.6349419)" d="M12.725653 283.21948H20.8290542V305.725807H12.725653z"/><path d="M326.66386 323.8918l14.50468 13.73315M236.22352 373.70231l-9.59253-11.70115 14.92976-2.4568z"/><circle cx="361.99973" cy="367.25153" r="5.5549831"/></g></g></svg>