<svg xmlns="http://www.w3.org/2000/svg" width="200" height="200" viewBox="0 0 187.50293 187.50293"><circle cx="93.852" cy="93.806" r="93.678" fill="#207be6"/><path d="M37.984 37.837h113.43v112.806H37.984zm141.788 141.788h113.43V292.43h-113.43z" fill="none"/><path d="M107.337 133.213l-9.102-12.714c-2.43-3.403-4.405-6.05-4.51-6.05-.113 0-3.932 5.143-9.055 12.166a793.067 793.067 0 0 1-8.951 12.165c-.142 0-17.582-12.288-17.63-12.41-.018-.067 3.923-5.861 8.763-12.866 4.84-7.013 8.8-12.855 8.8-12.997 0-.217-1.569-.766-13.876-4.868L47.74 90.951c-.123-.048.596-2.486 3.091-10.341 1.796-5.663 3.3-10.332 3.346-10.389.048-.057 6.683 2.07 14.746 4.726 8.054 2.647 14.708 4.812 14.793 4.812.076 0 .17-.123.208-.284.029-.142.095-6.995.152-15.237.056-8.224.141-15.03.189-15.124.085-.114 2.344-.142 10.653-.142 5.804 0 10.615.038 10.681.094.095.057.255 4.585.53 14.746.434 16.694.444 16.92.708 16.92.095 0 6.485-2.136 14.189-4.754a480.141 480.141 0 0 1 14.084-4.65c.151.179 6.475 20.738 6.39 20.814-.038.047-6.466 2.24-14.274 4.887-10.747 3.648-14.216 4.868-14.244 5.019-.029.113 3.667 5.643 8.374 12.515 4.632 6.768 8.394 12.364 8.375 12.42a916.375 916.375 0 0 1-17.506 12.894c-.056 0-2.259-2.997-4.887-6.664z" fill="#fafafa"/></svg>