<svg xmlns="http://www.w3.org/2000/svg" width="76pt" height="76pt"><g fill="#acacac" fill-opacity=".541" fill-rule="evenodd"><path d="M60.682 47.63c0-7.29-5.901-13.2-13.181-13.2-7.28 0-13.182 5.91-13.182 13.2 0 7.292 5.902 13.203 13.182 13.203s13.181-5.911 13.181-13.202M26.702 47.373c0-7.291-5.901-13.202-13.181-13.202-7.28 0-13.182 5.91-13.182 13.202 0 7.29 5.902 13.201 13.182 13.201s13.181-5.91 13.181-13.201M94.652 47.629c0-7.291-5.901-13.202-13.181-13.202-7.28 0-13.182 5.91-13.182 13.202 0 7.29 5.902 13.201 13.182 13.201s13.181-5.91 13.181-13.201"/></g></svg>