<svg xmlns="http://www.w3.org/2000/svg" viewBox="0 0 256 256">
  <defs>
    <clipPath id="a">
      <path fill="#338000" d="M0 0h256v256H0z"/>
    </clipPath>
  </defs>
  <path fill="#338000" d="M0 0h256v256H0z"/>
  <path d="M99.3 130.8l57-84.8 113.5 113.5-9.2 132.6z" clip-path="url(#a)" fill="#000007" opacity=".3"/>
  <path d="M173 88.4a45 54.4 0 0 1-45 54.5 45 54.4 0 0 1-45-55 45 54.4 0 0 1 45-54 45 54.4 0 0 1 45 54.3zm61 107.2a106 45 0 0 1-106 45 106 45 0 0 1-106-45 106 45 0 0 1 106-45 106 45 0 0 1 106 45z" fill="#55d400"/>
  <path d="M22 195.3h212V256H22z" fill="#55d400"/>
</svg>
