<svg xmlns="http://www.w3.org/2000/svg" viewBox="0 0 3255 1647"><path fill="#8f9395" d="M0 0h3255v1647H0z"/><path fill="#015aa2" d="M1447 471l-362 235 362 236 361-236z"/><path fill="#0158a1" d="M1447 0v471l361 235V235z"/><path fill="#0089d0" d="M1808 706l-361 236v470l361-235z"/><path fill="#049cda" d="M1808 1177l-361 235 361 235 362-235z"/><path fill="#02448b" d="M1447 0l361 235L2170 0h-362z"/><path fill="#016db5" d="M2170 0l-362 235v471l362-235z"/><path fill="#008ad3" d="M2170 471l-362 235 362 236 362-236z"/><path fill="#0090da" d="M1808 706v471l362 235V942z"/><path fill="#0097df" d="M2170 1412l-362 235h362z"/><path fill="#0166af" d="M1447 1412v235h361z"/><path fill="#08a5d8" d="M2170 1412v235h362z"/><path fill="#10b3d1" d="M2532 1177l-362 235 362 235 361-235z"/><path fill="#1ab8cf" d="M2532 706l-362 236v470l362-235z"/><path fill="#0096de" d="M2170 0v471l362 235V235z"/><path fill="#0089d1" d="M2170 0l362 235L2893 0h-361z"/><path fill="#4bd4bd" d="M2893 1412l-361 235h361z"/><path fill="#38cbc6" d="M2532 706v471l361 235V942z"/><path fill="#47d4c0" d="M2893 471l-361 235 361 236 362-236z"/><path fill="#0dafd4" d="M2893 0l-361 235v471l361-235z"/><path fill="#67dbcb" d="M2893 1412v235h362z"/><path fill="#81e1d4" d="M3255 1177v470l-362-235z"/><path fill="#61dac9" d="M3255 706l-362 236v470l362-235z"/><path fill="#0dafd4" d="M2893 0v471l362 235V235z"/><path fill="#06a1d9" d="M2893 0l362 235V0z"/><path fill="#0171b8" d="M1447 1412l-362 235h362z"/><path fill="#0159a1" d="M1085 1177l-362 235 362 235 362-235z"/><path fill="#0168b1" d="M1085 706v471l362 235V942z"/><path fill="#024389" d="M1447 0l-362 235v471l362-235z"/><path fill="#013067" d="M723 0l362 235L1446 0h-361z"/><path fill="#024389" d="M723 1412v235h362z"/><path fill="#024a91" d="M1085 706L723 942v470l362-235z"/><path fill="#024081" d="M723 471L362 706l361 236 362-236z"/><path fill="#023e80" d="M723 0v471l362 235V235z"/><path fill="#013671" d="M723 1412l-361 235h361z"/><path fill="#013b79" d="M362 1177L0 1412l362 235 361-235z"/><path fill="#024287" d="M362 706v471l361 235V942z"/><path fill="#002a5b" d="M723 0L362 235v471l361-235z"/><path fill="#002655" d="M0 0l362 235L723 0H362z"/><path fill="#012c5f" d="M0 1412v235h362z"/><path fill="#012a5c" d="M362 706L0 942v470l362-235z"/><path fill="#013671" d="M0 471v471l362-236z"/><path fill="#00214b" d="M0 0v471l362 235V235z"/></svg>
