<svg xmlns="http://www.w3.org/2000/svg" height="512" width="512" viewBox="0 0 511.99999 511.99999"><defs><filter id="a" color-interpolation-filters="sRGB"><feFlood flood-opacity=".498" flood-color="#000" result="flood"/><feComposite in="flood" in2="SourceGraphic" operator="in" result="composite1"/><feGaussianBlur in="composite1" stdDeviation="16.032" result="blur"/><feOffset dx="6" dy="6" result="offset"/><feComposite in2="SourceGraphic" operator="out" result="composite2" in="offset"/></filter><filter id="c" color-interpolation-filters="sRGB"><feFlood flood-opacity=".498" flood-color="#000" result="flood"/><feComposite in="flood" in2="SourceGraphic" operator="in" result="composite1"/><feGaussianBlur in="composite1" stdDeviation=".4" result="blur"/><feOffset dx=".3" dy=".5" result="offset"/><feComposite in="SourceGraphic" in2="offset" result="composite2"/></filter><filter id="b" color-interpolation-filters="sRGB"><feFlood flood-opacity=".498" flood-color="#000" result="flood"/><feComposite in="flood" in2="SourceGraphic" operator="xor" result="composite1"/><feGaussianBlur in="composite1" stdDeviation="12.169" result="blur"/><feOffset dx=".3" dy=".5" result="offset"/><feComposite in="offset" in2="SourceGraphic" operator="atop" result="composite2"/></filter></defs><g stroke-width="3"><path d="M477.935 256c0 122.572-99.363 221.935-221.935 221.935-61.286 0-148.77 7.16-188.932-33.003C26.906 404.77 34.065 317.286 34.065 256c0-122.572 99.363-221.935 221.935-221.935S477.935 133.428 477.935 256z" fill="#fff" stroke="#2e8c4f" filter="url(#a)" transform="matrix(.93999 0 0 .93999 15.595 15.13)"/><path d="M463.614 256c0 114.662-92.952 207.614-207.614 207.614-57.331 0-141.235 8.762-178.805-28.809-37.571-37.57-28.81-121.474-28.81-178.805 0-114.662 92.953-207.614 207.615-207.614S463.614 141.338 463.614 256z" fill="#3bb566" stroke="#349e59" filter="url(#b)" transform="matrix(.93999 0 0 .93999 15.595 15.13)"/></g><g transform="matrix(.93999 0 0 .93999 15.595 15.13)" fill="#35a45c"><rect ry="21.277" rx="21.277" y="130" x="119" height="41" width="278"/><rect width="351" height="41" x="85" y="213.667" rx="21.277" ry="21.277"/><rect ry="21.277" rx="21.277" y="297.333" x="85" height="41" width="340"/><rect width="190" height="41" x="172" y="381" rx="21.277" ry="21.277"/><circle r="20.5" cy="401.5" cx="130.5"/></g><path d="M146.438 148.507q-.782-4.375-3.125-9.687l3.906-1.094q2.344 5.781 3.125 9.844l-3.906.937zm15.469-9.062q-1.875 21.719-21.25 26.406l-2.032-3.75q18.125-3.75 19.22-23.125l4.062.469zm-23.75 11.562q-2.344-6.25-4.532-9.219l3.594-1.406q2.031 2.656 4.687 9.063l-3.75 1.562z" style="line-height:125%;-inkscape-font-specification:'DejaVu Serif Bold';text-align:start" font-weight="700" font-size="40" font-family="DejaVu Serif" fill="#fff" transform="matrix(8.17567 -.74654 .93522 8.2152 -1083.174 -876.904)" letter-spacing="0" word-spacing="0" stroke="#246d3d" stroke-width=".311" filter="url(#c)" image-rendering="optimizeQuality"/></svg>