<svg xmlns="http://www.w3.org/2000/svg" width="256" height="256" viewBox="0 0 256 255.99999">
  <path fill="#0d0d0d" d="M 128.00195 11.371094 C 63.570528 11.371094 11.333984 63.605389 11.333984 128.03906 C 11.333984 160.2559 20.563722 193.25433 41.675781 214.36133 C 62.788402 235.47451 95.786508 244.70508 128.00391 244.70508 C 192.43646 244.70508 244.66992 192.47078 244.66992 128.03711 L 244.66797 128.03906 C 244.66797 63.605389 192.43563 11.368846 128.00195 11.371094 z M 77.134766 69.181641 L 179.02734 69.181641 C 186.44187 69.181641 192.41016 75.149929 192.41016 82.564453 C 192.41016 89.978977 186.44187 95.949219 179.02734 95.949219 L 77.134766 95.949219 C 69.720241 95.949219 63.75 89.978977 63.75 82.564453 C 63.75 75.149929 69.720241 69.181641 77.134766 69.181641 z M 59.693359 114.64648 L 196.31445 114.64648 C 203.72898 114.64648 209.69922 120.61477 209.69922 128.0293 C 209.69922 135.44382 203.72898 141.41406 196.31445 141.41406 L 59.693359 141.41406 C 52.278835 141.41406 46.310547 135.44382 46.310547 128.0293 C 46.310547 120.61477 52.278835 114.64648 59.693359 114.64648 z M 77.0625 160.94922 C 84.477024 160.94922 90.447266 166.91946 90.447266 174.33398 C 90.447266 181.74851 84.477024 187.7168 77.0625 187.7168 C 69.647976 187.7168 63.679688 181.74851 63.679688 174.33398 C 63.679688 166.91946 69.647976 160.94922 77.0625 160.94922 z M 112.88281 160.94922 L 178.95898 160.94922 C 186.37351 160.94922 192.3418 166.91946 192.3418 174.33398 C 192.3418 181.74851 186.37351 187.7168 178.95898 187.7168 L 112.88281 187.7168 C 105.46829 187.7168 99.5 181.74851 99.5 174.33398 C 99.5 166.91946 105.46829 160.94922 112.88281 160.94922 z" filter="url(#e)" transform="translate(0 -796.36) matrix(1.011 0 0 1.011 -1.4036 -10.136) matrix(0.98911968,0,0,0.98911968,1.3883284,797.72107)"/>
</svg>

