<svg xmlns="http://www.w3.org/2000/svg" width="256.39" height="256.39"><path d="M127.9922 7.086c-62.684 0-113.5 50.815-113.5 113.5 0 62.684 50.816 113.5 113.5 113.5s113.5-50.816 113.5-113.5c0-62.685-50.816-113.5-113.5-113.5zM77.1328 64.8964h101.8926c7.4145 0 13.3848 5.9683 13.3848 13.3828 0 7.4145-5.9703 13.3828-13.3848 13.3828H77.1328c-7.4145 0-13.3828-5.9683-13.3828-13.3828 0-7.4145 5.9683-13.3828 13.3828-13.3828zm-17.4394 45.4629h136.621c7.4146 0 13.3829 5.9702 13.3829 13.3847 0 7.4146-5.9683 13.3828-13.3829 13.3828H59.6934c-7.4146 0-13.3829-5.9682-13.3829-13.3828 0-7.4145 5.9683-13.3847 13.3829-13.3847zm17.3691 46.3047c7.4145 0 13.3828 5.9683 13.3828 13.3828 0 7.4145-5.9683 13.3847-13.3828 13.3847-7.4145 0-13.3828-5.9702-13.3828-13.3847s5.9683-13.3828 13.3828-13.3828zm35.8203 0h66.0762c7.4145 0 13.3828 5.9683 13.3828 13.3828 0 7.4145-5.9683 13.3847-13.3828 13.3847h-66.0762c-7.4145 0-13.3848-5.9702-13.3848-13.3847s5.9703-13.3828 13.3848-13.3828z"/><path d="M154.368 231.004c-5.556 1.26-11.108 2.517-20.674 3.913-9.566 1.396-23.139 2.93-39.037 2.933-15.899 0-34.133-1.524-46.623-3.72-12.49-2.197-19.241-5.064-22.101-8.228-2.86-3.163-1.828-6.622-.565-10.17 1.264-3.547 2.759-7.184 3.956-11.651 1.198-4.467 2.098-9.765 1.088-16.41-1.011-6.646-3.932-14.64-6.853-22.635"/></svg>