<svg xmlns="http://www.w3.org/2000/svg" xmlns:xlink="http://www.w3.org/1999/xlink" height="256.39" width="256.39"><defs><radialGradient xlink:href="#b" id="g" cx="97.347" cy="925.562" fx="97.347" fy="925.562" r="59.347" gradientTransform="matrix(0 .94357 -2.19206 0 2158.799 18.862)" gradientUnits="userSpaceOnUse"/><radialGradient xlink:href="#b" id="h" gradientUnits="userSpaceOnUse" gradientTransform="matrix(0 .8425 -1.93775 0 1946.71 -14.002)" cx="95.806" cy="937.536" fx="95.806" fy="937.536" r="59.347"/><radialGradient id="a" gradientUnits="userSpaceOnUse" cy="256" cx="256" gradientTransform="matrix(2.2585 .02063 -.02134 2.336 -316.73 -347.29)" r="249.14"><stop stop-color="#30c357" offset="0"/><stop offset=".5" stop-color="#2cb465"/><stop stop-color="#32a482" offset="1"/></radialGradient><radialGradient xlink:href="#b" id="f" cx="88.754" cy="123.035" fx="88.754" fy="123.035" r="78.3" gradientTransform="matrix(.02885 1.09003 -1.35878 .03597 300.127 33.098)" gradientUnits="userSpaceOnUse"/><linearGradient id="b"><stop offset="0" stop-opacity=".416"/><stop offset="1" stop-opacity="0"/></linearGradient><linearGradient xlink:href="#a" id="e" gradientUnits="userSpaceOnUse" x1="127.988" y1="808.969" x2="127.988" y2="1033.499" gradientTransform="translate(18.596 -806.496) scale(1.011)"/><linearGradient xlink:href="#a" id="d" gradientUnits="userSpaceOnUse" x1="127.988" y1="808.969" x2="127.988" y2="1033.499" gradientTransform="translate(18.596 -806.496) scale(1.011)"/><filter id="c" x="-.041" width="1.082" y="-.04" height="1.081" color-interpolation-filters="sRGB"><feGaussianBlur stdDeviation="3.891"/></filter></defs><g transform="translate(82 -2.286)" opacity=".512" fill-opacity=".509" filter="url(#c)"><path d="M47.992 16.371c-62.684 0-113.5 50.816-113.5 113.5 0 15.92 3.284 31.071 9.201 44.822 2.875 7.87 5.724 15.722 6.72 22.264 1.01 6.646.108 11.944-1.16 15.361-1.266 3.418-2.901 4.955-4.165 8.502-1.264 3.548-2.155 9.106.775 13.319 2.93 4.213 9.68 7.08 22.17 9.277 12.49 2.197 30.725 3.719 46.623 3.719 15.899 0 29.471-1.536 39.037-2.932 8.418-1.228 13.704-2.35 18.643-3.459.557-.122 1.114-.241 1.668-.37l.363-.083-.01-.006c49.969-11.888 87.135-56.807 87.135-110.414 0-62.684-50.816-113.5-113.5-113.5z" fill-opacity="1" paint-order="stroke fill markers"/></g><g fill="#1f6d52"><path d="M241.492 125.586c0 62.684-50.816 113.5-113.5 113.5s-113.5-50.816-113.5-113.5 50.816-113.5 113.5-113.5 113.5 50.816 113.5 113.5z" paint-order="stroke fill markers"/><path d="M154.368 236.005c-5.556 1.258-11.108 2.516-20.674 3.912-9.566 1.397-23.139 2.93-39.037 2.933-15.899 0-34.133-1.524-46.623-3.72-12.49-2.197-19.241-5.064-22.171-9.277-2.93-4.213-2.038-9.77-.774-13.318 1.263-3.548 2.898-5.086 4.165-8.503 1.268-3.418 2.168-8.716 1.158-15.361-1.011-6.646-3.932-14.64-6.853-22.634"/></g><path d="M261.492 124.872c0 62.684-50.816 113.5-113.5 113.5s-113.5-50.816-113.5-113.5c0-62.685 50.816-113.5 113.5-113.5s113.5 50.815 113.5 113.5z" fill="url(#d)" paint-order="stroke fill markers" transform="translate(-20 -4.286)"/><path d="M174.368 235.29c-5.556 1.26-11.108 2.517-20.674 3.913-9.566 1.396-23.139 2.93-39.037 2.933-15.899 0-34.133-1.524-46.623-3.72-12.49-2.197-19.241-5.064-22.101-8.228-2.86-3.163-1.828-6.622-.565-10.17 1.264-3.547 2.759-7.184 3.956-11.651 1.198-4.467 2.098-9.765 1.088-16.41-1.011-6.646-3.932-14.64-6.853-22.635" fill="url(#e)" transform="translate(-20 -4.286)"/><path d="M188.207 160.324l-82.176 19.83-19.979-20.038S72.97 173.377 67.98 179.894l46.02 46.82 14.242 7.371c10.099-1.39 19.726-3.117 28.797-5.267.013 0 .026-.01.04-.01 27.199-7.275 48.656-19.338 63.52-36.12z" fill="url(#f)"/><path d="M205.473 113.95L49.639 132.596l30 30 147.375 21.975c7.02-9.995 12.02-21.406 14.867-34.211z" fill="url(#g)"/><path d="M188.46 68.752l45 45-142.557-2.826-24-24z" fill="url(#h)"/><g transform="translate(-88.78 -687.44) scale(1.011)" fill="#c1ede5"><rect x="150.87" y="744.15" width="127.26" height="26.476" ry="13.238" rx="13.238"/><rect x="133.62" y="789.12" width="161.61" height="26.476" ry="13.238" rx="13.238"/><rect x="186.23" y="834.92" width="91.833" height="26.476" ry="13.238" rx="13.238"/><rect x="150.8" y="834.92" width="26.476" height="26.476" ry="13.238" rx="13.238"/></g></svg>