<svg xmlns="http://www.w3.org/2000/svg" fill="#fff" viewBox="0 0 36 36"><path d="M17.994 3A17 17 0 0 0 5.981 32.02l.707-.707A16 16 0 0 1 18 4.001a16 16 0 0 1 11.313 27.312l.707.707A17 17 0 0 0 18 3a17 17 0 0 0-.006 0z" paint-order="markers fill stroke"/><path d="M17.99 11a9 9 0 0 0-6.365 15.354l.709-.707a8 8 0 1 1 11.322.009l.707.707A9 9 0 0 0 17.99 11zm-.097-4a13 13 0 0 0-9.096 22.182l.707-.707a12 12 0 1 1 16.98.009l.707.707A13 13 0 0 0 18 7a13 13 0 0 0-.107 0z" opacity=".2" paint-order="markers fill stroke"/><path d="M18 14c-1.385 0-2.5 1.115-2.5 2.5v6c0 1.385 1.115 2.5 2.5 2.5s2.5-1.115 2.5-2.5v-6c0-1.385-1.115-2.5-2.5-2.5zm-5.5 7v1c.001 2.236 1.634 4.199 4 4.809V29h-2v1h7v-1h-2v-2.193c2.365-.61 3.998-2.572 4-4.807v-1h-1v1c0 2.209-2.015 4-4.5 4s-4.5-1.791-4.5-4v-1z"/></svg>