<svg xmlns="http://www.w3.org/2000/svg" height="181.44" viewBox="0 0 176.486 181.437" width="176.49"><linearGradient id="a" gradientUnits="userSpaceOnUse" x2="-1807.2" gradientTransform="translate(1916)" y1="125.86" x1="-1807.2"><stop stop-color="#1b3967" offset=".011"/><stop stop-color="#13b5ea" offset=".467"/><stop stop-color="#002b5c" offset=".995"/></linearGradient><path d="M136.29 14.189c.077 1.313-1.786.968-1.786 2.293 0 38.551-44.72 96.831-89.847 108.19v1.182c59.957-5.51 126.73-66.8 128.24-125.85l-36.6 14.189z" fill="url(#a)"/><path d="M120.23 17.96c.077 1.313.121 2.633.121 3.958 0 38.551-30.7 90.497-75.827 101.86v1.637c59.065-3.823 105.81-63.023 105.81-109.2a67.1 67.1 0 0 0-.371-7.056l-29.73 8.796z" fill="#E96D1F"/><linearGradient id="b" gradientUnits="userSpaceOnUse" x2="-1073.2" gradientTransform="matrix(-1 0 0 1 -1008.2 0)" y1="126.85" x1="-1073.2"><stop stop-color="#1b3967" offset=".011"/><stop stop-color="#13b5ea" offset=".467"/><stop stop-color="#002b5c" offset=".995"/></linearGradient><path d="M36.599 14.189c-.077 1.313 1.787.968 1.787 2.293 0 38.551 46.558 97.366 91.688 108.73v1.639C70.121 121.331 1.514 59.051.004.001L36.603 14.19z" fill="url(#b)"/><path d="M54.731 18.932a68.401 68.401 0 0 0-.12 3.957c0 38.551 30.699 90.497 75.827 101.86v1.639c-59.044-2.79-105.81-63.024-105.81-109.2 0-2.375.128-4.729.371-7.056l29.73 8.798z" fill="#A0CE67"/><path d="M24.713 9.583l7.617 2.722a84.24 84.24 0 0 0-.066 3.225c0 41.219 37.271 98.204 87.272 107.12 3.245 1.088 7.538 2.077 10.932 2.931v1.638c-65.254-5.56-111.1-71.866-105.76-117.64z" fill="#439639"/><path d="M150.34 8.76l-7.833 2.625c.041.963.191 2.203.191 3.173 0 41.219-37.272 98.205-87.274 107.12-3.243 1.089-7.538 2.077-10.93 2.932v1.639c68.344-8.66 111.18-71.719 105.84-117.49z" fill="#D9541E"/><path d="M14.576 166.71L1.188 152.06h11.643l9.127 10.268 9.129-10.268H42.73l-13.387 14.646 14.401 14.728h-12.09l-9.697-10.67-9.693 10.67H.172l14.404-14.73zm32.52-14.65h13.836l10.183 18.905 10.183-18.905H95.13v29.374h-8.762v-21.096h-.08l-11.807 21.096h-6.733l-11.807-21.096h-.082v21.096h-8.764v-29.37zm54.154 0h24.546c8.559 0 10.628 4.302 10.628 10.063v2.516c0 4.381-1.908 9.41-8.275 9.41h-17.894v7.385h-9.005v-29.38zm9 14.69h13.997c2.109 0 2.924-1.377 2.924-3.123v-1.135c0-1.99-.976-3.127-3.694-3.127H110.25v7.38zm31.06-14.69h24.546c8.561 0 10.63 4.302 10.63 10.063v2.516c0 4.381-1.907 9.41-8.275 9.41h-17.893v7.385h-9.008v-29.38zm9.01 14.69h13.996c2.11 0 2.922-1.377 2.922-3.123v-1.135c0-1.99-.974-3.127-3.693-3.127H150.32v7.38z"/></svg>