<?xml version="1.0" encoding="UTF-8"?><svg xmlns="http://www.w3.org/2000/svg" xmlns:cc="http://creativecommons.org/ns#" xmlns:dc="http://purl.org/dc/elements/1.1/" xmlns:rdf="http://www.w3.org/1999/02/22-rdf-syntax-ns#" xmlns:xlink="http://www.w3.org/1999/xlink" version="1.1" viewBox="0 0 211.7 236.8"><metadata><rdf:RDF><cc:Work rdf:about=""><dc:format>image/svg+xml</dc:format><dc:type rdf:resource="http://purl.org/dc/dcmitype/StillImage"/><dc:title/></cc:Work></rdf:RDF></metadata><defs><radialGradient id="b" cx="256" cy="256" r="249.1" gradientTransform="matrix(2.2585 .02063 -.02134 2.336 -316.73 -347.29)" gradientUnits="userSpaceOnUse"><stop offset="0" stop-color="#30c357"/><stop offset=".5" stop-color="#2cb465"/><stop offset="1" stop-color="#32a482"/></radialGradient><radialGradient id="f" cx="88.8" cy="123" r="78.3" gradientTransform="matrix(.02885 1.09 -1.3588 .03597 300.13 33.098)" gradientUnits="userSpaceOnUse" xlink:href="#a"/><radialGradient id="g" cx="97.3" cy="925.6" r="59.3" gradientTransform="matrix(0 .94357 -2.1921 0 2158.8 18.862)" gradientUnits="userSpaceOnUse" xlink:href="#a"/><radialGradient id="h" cx="95.8" cy="937.5" r="59.3" gradientTransform="matrix(0 .8425 -1.9378 0 1946.7 -14.002)" gradientUnits="userSpaceOnUse" xlink:href="#a"/><linearGradient id="j" x1="120.9" x2="168.1" y1="148.8" y2="148.8" gradientTransform="matrix(.066619 0 0 .79556 118.54 -.13417)" gradientUnits="userSpaceOnUse" xlink:href="#a"/><linearGradient id="d" x1="128" x2="128" y1="809" y2="1033.5" gradientTransform="matrix(1.011 0 0 1.011 18.596 -806.5)" gradientUnits="userSpaceOnUse" xlink:href="#b"/><linearGradient id="e" x1="128" x2="128" y1="809" y2="1033.5" gradientTransform="matrix(1.011 0 0 1.011 -1.404 -810.78)" gradientUnits="userSpaceOnUse" xlink:href="#b"/><linearGradient id="a"><stop offset="0" stop-opacity=".4"/><stop offset="1" stop-opacity="0"/></linearGradient><filter id="c" width="1.1" height="1.1" x="0" y="0" color-interpolation-filters="sRGB"><feGaussianBlur stdDeviation="3.9"/></filter><filter id="k" width="1.8" height="1.8" x="-.4" y="-.4" color-interpolation-filters="sRGB"><feGaussianBlur stdDeviation="2"/></filter><filter id="i" width="2" height="2" x="-.5" y="-.5" color-interpolation-filters="sRGB"><feGaussianBlur stdDeviation=".5"/></filter></defs><g transform="translate(0 .65626)"><g fill-opacity=".5" filter="url(#c)" opacity=".5" transform="matrix(.10644 0 0 .10644 1.8811 2.1291) translate(82 -2.286)"><path fill-opacity="1" d="m47.992 16.371c-62.684 0-113.5 50.816-113.5 113.5 0 15.92 3.284 31.071 9.201 44.822 2.875 7.87 5.724 15.722 6.72 22.264 1.01 6.646 0.108 11.944-1.16 15.361-1.266 3.418-2.901 4.955-4.165 8.502-1.264 3.548-2.155 9.106 0.775 13.319s9.68 7.08 22.17 9.277 30.725 3.719 46.623 3.719c15.899 0 29.471-1.536 39.037-2.932 8.418-1.228 13.704-2.35 18.643-3.459 0.557-0.122 1.114-0.241 1.668-0.37l0.363-0.083-0.01-6e-3c49.969-11.888 87.135-56.807 87.135-110.41 0-62.684-50.816-113.5-113.5-113.5z" paint-order="stroke fill markers"/></g><g fill="#1f6d52"><path d="m241.49 125.59c0 62.684-50.816 113.5-113.5 113.5s-113.5-50.816-113.5-113.5 50.816-113.5 113.5-113.5 113.5 50.816 113.5 113.5z" paint-order="stroke fill markers" transform="matrix(.10644 0 0 .10644 1.8811 2.1291)"/><path d="m154.37 236c-5.556 1.258-11.108 2.516-20.674 3.912-9.566 1.397-23.139 2.93-39.037 2.933-15.899 0-34.133-1.524-46.623-3.72-12.49-2.197-19.241-5.064-22.171-9.277s-2.038-9.77-0.774-13.318c1.263-3.548 2.898-5.086 4.165-8.503 1.268-3.418 2.168-8.716 1.158-15.361-1.011-6.646-3.932-14.64-6.853-22.634" transform="matrix(.10644 0 0 .10644 1.8811 2.1291)"/></g><path fill="url(#d)" d="m261.49 124.87c0 62.684-50.816 113.5-113.5 113.5s-113.5-50.816-113.5-113.5c0-62.685 50.816-113.5 113.5-113.5s113.5 50.815 113.5 113.5z" paint-order="stroke fill markers" transform="matrix(.10644 0 0 .10644 1.8811 2.1291) translate(-20 -4.286)"/><path fill="url(#e)" d="m154.37 231c-5.556 1.26-11.108 2.517-20.674 3.913s-23.139 2.93-39.037 2.933c-15.899 0-34.133-1.524-46.623-3.72-12.49-2.197-19.241-5.064-22.101-8.228-2.86-3.163-1.828-6.622-0.565-10.17 1.264-3.547 2.759-7.184 3.956-11.651 1.198-4.467 2.098-9.765 1.088-16.41-1.011-6.646-3.932-14.64-6.853-22.635" transform="matrix(.10644 0 0 .10644 1.8811 2.1291)"/><path fill="url(#f)" d="m188.21 160.32-82.176 19.83-19.979-20.038s-13.082 13.261-18.072 19.778l46.02 46.82 14.242 7.371c10.099-1.39 19.726-3.117 28.797-5.267 0.013 0 0.026-0.01 0.04-0.01 27.199-7.275 48.656-19.338 63.52-36.12z" transform="matrix(.10644 0 0 .10644 1.8811 2.1291)"/><path fill="url(#g)" d="m205.47 113.95-155.83 18.646 30 30 147.38 21.975c7.02-9.995 12.02-21.406 14.867-34.211z" transform="matrix(.10644 0 0 .10644 1.8811 2.1291)"/><path fill="url(#h)" d="m188.46 68.752 45 45-142.56-2.826-24-24z" transform="matrix(.10644 0 0 .10644 1.8811 2.1291)"/><g fill="#c1ede5" transform="matrix(.10644 0 0 .10644 1.8811 2.1291) matrix(1.011 0 0 1.011 -88.78 -687.44)"><rect width="127.3" height="26.5" x="150.9" y="744.2" rx="13.2" ry="13.2"/><rect width="161.6" height="26.5" x="133.6" y="789.1" rx="13.2" ry="13.2"/><rect width="91.8" height="26.5" x="186.2" y="834.9" rx="13.2" ry="13.2"/><rect width="26.5" height="26.5" x="150.8" y="834.9" rx="13.2" ry="13.2"/></g><text style="line-height:1.25" x="34.4" y="20.8" fill="#fff" font-family="sans-serif" font-size="14.2" font-weight="400"><tspan x="34.4" y="20.8" stroke-width=".4">Kaidan</tspan></text><path fill="#fcfcfc" d="m0 63.561h127v172.64h-127z"/><g transform="matrix(.74074 0 0 .74074 -1.8425 13.216)"><path fill="#3daee9" stroke="#3daee9" stroke-dashoffset="531.6" stroke-linecap="round" stroke-linejoin="round" stroke-width="3.1" d="m7.6093 83.631h9.6427"/><circle cx="17.3" cy="83.6" r="4.5" fill="#353535" filter="url(#i)"/><circle cx="17.3" cy="83.6" r="4.5" fill="#e7e7e7"/></g><text style="line-height:1.25" x="16.7" y="77.6" fill="#258e36" font-family="sans-serif" font-size="8.4" font-weight="400" letter-spacing="0" word-spacing="0"><tspan x="16.7" y="77.6">alice@kaidan.im (Online)</tspan></text><path fill="#232629" d="m3.8217 87.77v1.7639l-1.1759 1.7639v5.8796h7.6435v-0.58796h-7.0555v-4.7037h1.2219l4.0698 2.3495 4.0698-2.3495h1.2219v1.1759h0.58795v-1.7639l-1.1759-1.7639v-1.7639h-8.8194zm0.58797 0.58794h8.2314v2.8215l-4.1157 2.376-4.1157-2.376v-2.2335zm0.58795 0.588v0.57991l-0.00889 0.0089h7.0733l-0.0089-0.0089v-0.57991zm0 1.1759v0.58798h4.1157v-0.58798zm7.9374 2.9398c-0.48857 0-0.88193 0.39332-0.88193 0.88191 0 0.48861 0.39335 0.88196 0.88193 0.88196 0.4886 0 0.88195-0.39335 0.88195-0.88196 0-0.48859-0.39335-0.88191-0.88195-0.88191zm-0.29398 2.3518c-0.65146 0-1.1759 0.52446-1.1759 1.1759v0.58796h2.9398v-0.58796c0-0.65146-0.52446-1.1759-1.1759-1.1759z" class="ColorScheme-Text"/><text style="line-height:1.25" x="16.4" y="95.6" fill="#232629" font-family="sans-serif" font-size="8.4" font-weight="400" letter-spacing="0" word-spacing="0"><tspan x="16.4" y="95.6" stroke-width=".2">Invite friends</tspan></text><path fill="#3daee9" d="m0 101.1h127v18.5h-127z" opacity=".5"/><g fill="#232629"><text style="line-height:1.25" x="16.4" y="112.9" font-family="sans-serif" font-size="8.4" font-weight="400" letter-spacing="0" word-spacing="0"><tspan x="16.4" y="112.9">Switch device</tspan></text><path d="m11.576 104.98a1.1906 1.1906 0 0 0-1.1906 1.1906 1.1906 1.1906 0 0 0 1.1906 1.1906 1.1906 1.1906 0 0 0 1.1906-1.1906 1.1906 1.1906 0 0 0-1.1906-1.1906m-2.6789 2.3812a0.29766 0.29766 0 0 0-0.29766 0.29765 0.29766 0.29766 0 0 0 0.29766 0.29765 0.29766 0.29766 0 0 0 0.29766-0.29765 0.29766 0.29766 0 0 0-0.29766-0.29765m-1.1906 0.5953a0.29766 0.29765 0 0 0-0.29766 0.29768 0.29766 0.29765 0 0 0 0.29766 0.29765 0.29766 0.29765 0 0 0 0.29766-0.29765 0.29766 0.29765 0 0 0-0.29766-0.29768m-2.0836 0.59533a1.1906 1.1906 0 0 0-1.1906 1.1906 1.1906 1.1906 0 0 0 1.1906 1.1906 1.1906 1.1906 0 0 0 1.1906-1.1906 1.1906 1.1906 0 0 0-1.1906-1.1906m2.0836 2.3812a0.29766 0.29766 0 0 0-0.29766 0.29766 0.29766 0.29766 0 0 0 0.29766 0.29765 0.29766 0.29766 0 0 0 0.29766-0.29765 0.29766 0.29766 0 0 0-0.29766-0.29766m1.1906 0.59531a0.29766 0.29766 0 0 0-0.29766 0.29767 0.29766 0.29766 0 0 0 0.29766 0.29766 0.29766 0.29766 0 0 0 0.29766-0.29766 0.29766 0.29766 0 0 0-0.29766-0.29767m2.6789 0.59533a1.1906 1.1906 0 0 0-1.1906 1.1906 1.1906 1.1906 0 0 0 1.1906 1.1906 1.1906 1.1906 0 0 0 1.1906-1.1906 1.1906 1.1906 0 0 0-1.1906-1.1906" class="ColorScheme-Text"/><path d="m8.8966 124.02c-0.72263 0-1.321 0.50955-1.458 1.1906h-3.6021v0.5953h3.6021c0.13705 0.68108 0.73542 1.1906 1.458 1.1906 0.72263 0 1.321-0.50956 1.4581-1.1906h3.0068v-0.5953h-3.0068c-0.13705-0.68108-0.73542-1.1906-1.4581-1.1906zm-3.5719 6.5484c-0.82451 0-1.4883 0.66377-1.4883 1.4883 0 0.82451 0.66377 1.4883 1.4883 1.4883 0.72263 0 1.321-0.50956 1.4581-1.1906h6.5787v-0.59531h-6.5787c-0.13705-0.68109-0.73542-1.1906-1.4581-1.1906zm0 0.59531c0.49471 0 0.89297 0.39827 0.89297 0.89298 0 0.4947-0.39826 0.89295-0.89297 0.89295-0.4947 0-0.89297-0.39825-0.89297-0.89295 0-0.49471 0.39827-0.89298 0.89297-0.89298z" class="ColorScheme-Text"/><text style="line-height:1.25" x="16.4" y="131.89999" font-family="sans-serif" font-size="8.4px" font-weight="400" letter-spacing="0" word-spacing="0"><tspan x="16.4" y="131.89999">Settings</tspan></text><path d="m8.599 142.54c-2.6384 0-4.7625 2.1241-4.7625 4.7625 0 2.6384 2.1241 4.7625 4.7625 4.7625 2.6384 0 4.7625-2.1241 4.7625-4.7625 0-2.6384-2.1241-4.7625-4.7625-4.7625zm0 0.5953c2.3086 0 4.1672 1.8586 4.1672 4.1672 0 2.3086-1.8586 4.1672-4.1672 4.1672-2.3086 0-4.1672-1.8586-4.1672-4.1672 0-2.3086 1.8586-4.1672 4.1672-4.1672zm-0.59531 1.1906v1.1906h1.1906v-1.1906zm0 1.7859v4.1672h1.1906v-4.1672z" class="ColorScheme-Text"/><text style="line-height:1.25" x="16.4" y="150.39999" font-family="sans-serif" font-size="8.4px" font-weight="400" letter-spacing="0" word-spacing="0"><tspan x="16.4" y="150.39999">About</tspan></text></g><path fill="#787879" d="m127-0.7h84.7v236.8h-84.7z"/><path fill="url(#j)" d="m127-0.7h2.818v236.8h-2.818z" opacity=".5"/><rect width="15.9" height="15.9" x="131.3" y="2.4" filter="url(#k)" rx="2.6" ry="2.6" transform="matrix(.75037 0 0 .75037 33.729 2.5755)"/><rect width="15.9" height="15.9" x="130.4" y="2.4" fill="#eff0f1" rx="2.6" ry="2.6"/><path fill="#535556" d="m134.44 5.8238-0.81859 0.80219 3.8127 3.7487-3.8127 3.7465 0.81859 0.80441 3.8128-3.7487 3.8127 3.7487 0.81863-0.80441-3.8127-3.7465 3.8127-3.7487-0.81863-0.80219-3.8127 3.7465z"/><path fill="#8f9395" d="m0 0h3255v1647h-3255z" transform="matrix(.039017 0 0 .039017 0 -.7)"/><path fill="#015aa2" d="m1447 471-362 235 362 236 361-236z" transform="matrix(.039017 0 0 .039017 0 -.7)"/><path fill="#0158a1" d="m1447 0v471l361 235v-471z" transform="matrix(.039017 0 0 .039017 0 -.7)"/><path fill="#0089d0" d="m1808 706-361 236v470l361-235z" transform="matrix(.039017 0 0 .039017 0 -.7)"/><path fill="#049cda" d="m1808 1177-361 235 361 235 362-235z" transform="matrix(.039017 0 0 .039017 0 -.7)"/><path fill="#02448b" d="m1447 0 361 235 362-235h-362z" transform="matrix(.039017 0 0 .039017 0 -.7)"/><path fill="#016db5" d="m2170 0-362 235v471l362-235z" transform="matrix(.039017 0 0 .039017 0 -.7)"/><path fill="#008ad3" d="m2170 471-362 235 362 236 362-236z" transform="matrix(.039017 0 0 .039017 0 -.7)"/><path fill="#0090da" d="m1808 706v471l362 235v-470z" transform="matrix(.039017 0 0 .039017 0 -.7)"/><path fill="#0097df" d="m2170 1412-362 235h362z" transform="matrix(.039017 0 0 .039017 0 -.7)"/><path fill="#0166af" d="m1447 1412v235h361z" transform="matrix(.039017 0 0 .039017 0 -.7)"/><path fill="#08a5d8" d="m2170 1412v235h362z" transform="matrix(.039017 0 0 .039017 0 -.7)"/><path fill="#10b3d1" d="m2532 1177-362 235 362 235 361-235z" transform="matrix(.039017 0 0 .039017 0 -.7)"/><path fill="#1ab8cf" d="m2532 706-362 236v470l362-235z" transform="matrix(.039017 0 0 .039017 0 -.7)"/><path fill="#0096de" d="m2170 0v471l362 235v-471z" transform="matrix(.039017 0 0 .039017 0 -.7)"/><path fill="#0089d1" d="m2170 0 362 235 361-235h-361z" transform="matrix(.039017 0 0 .039017 0 -.7)"/><path fill="#4bd4bd" d="m2893 1412-361 235h361z" transform="matrix(.039017 0 0 .039017 0 -.7)"/><path fill="#38cbc6" d="m2532 706v471l361 235v-470z" transform="matrix(.039017 0 0 .039017 0 -.7)"/><path fill="#47d4c0" d="m2893 471-361 235 361 236 362-236z" transform="matrix(.039017 0 0 .039017 0 -.7)"/><path fill="#0dafd4" d="m2893 0-361 235v471l361-235z" transform="matrix(.039017 0 0 .039017 0 -.7)"/><path fill="#67dbcb" d="m2893 1412v235h362z" transform="matrix(.039017 0 0 .039017 0 -.7)"/><path fill="#81e1d4" d="m3255 1177v470l-362-235z" transform="matrix(.039017 0 0 .039017 0 -.7)"/><path fill="#61dac9" d="m3255 706-362 236v470l362-235z" transform="matrix(.039017 0 0 .039017 0 -.7)"/><path fill="#0dafd4" d="m2893 0v471l362 235v-471z" transform="matrix(.039017 0 0 .039017 0 -.7)"/><path fill="#06a1d9" d="m2893 0 362 235v-235z" transform="matrix(.039017 0 0 .039017 0 -.7)"/><path fill="#0171b8" d="m1447 1412-362 235h362z" transform="matrix(.039017 0 0 .039017 0 -.7)"/><path fill="#0159a1" d="m1085 1177-362 235 362 235 362-235z" transform="matrix(.039017 0 0 .039017 0 -.7)"/><path fill="#0168b1" d="m1085 706v471l362 235v-470z" transform="matrix(.039017 0 0 .039017 0 -.7)"/><path fill="#024389" d="m1447 0-362 235v471l362-235z" transform="matrix(.039017 0 0 .039017 0 -.7)"/><path fill="#013067" d="m723 0 362 235 361-235h-361z" transform="matrix(.039017 0 0 .039017 0 -.7)"/><path fill="#024389" d="m723 1412v235h362z" transform="matrix(.039017 0 0 .039017 0 -.7)"/><path fill="#024a91" d="m1085 706-362 236v470l362-235z" transform="matrix(.039017 0 0 .039017 0 -.7)"/><path fill="#024081" d="m723 471-361 235 361 236 362-236z" transform="matrix(.039017 0 0 .039017 0 -.7)"/><path fill="#023e80" d="m723 0v471l362 235v-471z" transform="matrix(.039017 0 0 .039017 0 -.7)"/><path fill="#013671" d="m723 1412-361 235h361z" transform="matrix(.039017 0 0 .039017 0 -.7)"/><path fill="#013b79" d="m362 1177-362 235 362 235 361-235z" transform="matrix(.039017 0 0 .039017 0 -.7)"/><path fill="#024287" d="m362 706v471l361 235v-470z" transform="matrix(.039017 0 0 .039017 0 -.7)"/><path fill="#002a5b" d="m723 0-361 235v471l361-235z" transform="matrix(.039017 0 0 .039017 0 -.7)"/><path fill="#002655" d="m0 0 362 235 361-235h-361z" transform="matrix(.039017 0 0 .039017 0 -.7)"/><path fill="#012c5f" d="m0 1412v235h362z" transform="matrix(.039017 0 0 .039017 0 -.7)"/><path fill="#012a5c" d="m362 706-362 236v470l362-235z" transform="matrix(.039017 0 0 .039017 0 -.7)"/><path fill="#013671" d="m0 471v471l362-236z" transform="matrix(.039017 0 0 .039017 0 -.7)"/><path fill="#00214b" d="m0 0v471l362 235v-471z" transform="matrix(.039017 0 0 .039017 0 -.7)"/></g></svg>
