<svg xmlns="http://www.w3.org/2000/svg" xmlns:xlink="http://www.w3.org/1999/xlink" viewBox="0 0 211.7 236.8"><defs><radialGradient id="b" cx="256" cy="256" r="249.1" gradientTransform="matrix(2.2585,0.02063,-0.02134,2.336,-316.73,-347.29)" gradientUnits="userSpaceOnUse"><stop offset="0" stop-color="#30c357"/><stop offset=".5" stop-color="#2cb465"/><stop offset="1" stop-color="#32a482"/></radialGradient><radialGradient id="f" cx="88.8" cy="123" r="78.3" fx="88.8" fy="123" gradientTransform="matrix(0.02885,1.09003,-1.35878,0.03597,300.127,33.098)" gradientUnits="userSpaceOnUse" xlink:href="#a"/><radialGradient id="g" cx="97.3" cy="925.6" r="59.3" fx="97.3" fy="925.6" gradientTransform="matrix(0,0.94357,-2.19206,0,2158.799,18.862)" gradientUnits="userSpaceOnUse" xlink:href="#a"/><radialGradient id="h" cx="95.8" cy="937.5" r="59.3" fx="95.8" fy="937.5" gradientTransform="matrix(0,0.8425,-1.93775,0,1946.71,-14.002)" gradientUnits="userSpaceOnUse" xlink:href="#a"/><linearGradient id="j" x1="120.9" x2="168.1" y1="148.8" y2="148.8" gradientTransform="matrix(0.06661942,0,0,0.79555548,118.53932,-0.13416843)" gradientUnits="userSpaceOnUse" xlink:href="#a"/><linearGradient id="d" x1="128" x2="128" y1="809" y2="1033.5" gradientTransform="matrix(1.011,0,0,1.011,18.596,-806.496)" gradientUnits="userSpaceOnUse" xlink:href="#b"/><linearGradient id="e" x1="128" x2="128" y1="809" y2="1033.5" gradientTransform="matrix(1.011,0,0,1.011,-1.404,-810.782)" gradientUnits="userSpaceOnUse" xlink:href="#b"/><linearGradient id="a"><stop offset="0" stop-opacity=".4"/><stop offset="1" stop-opacity="0"/></linearGradient><filter id="c" width="1.1" height="1.1" x="0" y="0" color-interpolation-filters="sRGB"><feGaussianBlur stdDeviation="3.9"/></filter><filter id="k" width="1.8" height="1.8" x="-.4" y="-.4" color-interpolation-filters="sRGB"><feGaussianBlur stdDeviation="2"/></filter><filter id="i" width="2" height="2" x="-.5" y="-.5" color-interpolation-filters="sRGB"><feGaussianBlur stdDeviation=".5"/></filter></defs><g transform="translate(0,0.65625559)"><g fill-opacity=".5" filter="url(#c)" opacity=".5" transform="matrix(0.10643941,0,0,0.10643941,1.8810662,2.1291296) translate(82,-2.286)"><path fill-opacity="1" d="m 47.992,16.371 c -62.684,0 -113.5,50.816 -113.5,113.5 0,15.92 3.284,31.071 9.201,44.822 2.875,7.87 5.724,15.722 6.72,22.264 1.01,6.646 0.108,11.944 -1.16,15.361 -1.266,3.418 -2.901,4.955 -4.165,8.502 -1.264,3.548 -2.155,9.106 0.775,13.319 2.93,4.213 9.68,7.08 22.17,9.277 12.49,2.197 30.725,3.719 46.623,3.719 15.899,0 29.471,-1.536 39.037,-2.932 8.418,-1.228 13.704,-2.35 18.643,-3.459 0.557,-0.122 1.114,-0.241 1.668,-0.37 l 0.363,-0.083 -0.01,-0.006 c 49.969,-11.888 87.135,-56.807 87.135,-110.414 0,-62.684 -50.816,-113.5 -113.5,-113.5 z" paint-order="stroke fill markers"/></g><g fill="#1f6d52"><path d="m 241.492,125.586 c 0,62.684 -50.816,113.5 -113.5,113.5 -62.684,0 -113.5,-50.816 -113.5,-113.5 0,-62.684 50.816,-113.5 113.5,-113.5 62.684,0 113.5,50.816 113.5,113.5 z" paint-order="stroke fill markers" transform="matrix(0.10643941,0,0,0.10643941,1.8810662,2.1291296)"/><path d="m 154.368,236.005 c -5.556,1.258 -11.108,2.516 -20.674,3.912 -9.566,1.397 -23.139,2.93 -39.037,2.933 -15.899,0 -34.133,-1.524 -46.623,-3.72 -12.49,-2.197 -19.241,-5.064 -22.171,-9.277 -2.93,-4.213 -2.038,-9.77 -0.774,-13.318 1.263,-3.548 2.898,-5.086 4.165,-8.503 1.268,-3.418 2.168,-8.716 1.158,-15.361 -1.011,-6.646 -3.932,-14.64 -6.853,-22.634" transform="matrix(0.10643941,0,0,0.10643941,1.8810662,2.1291296)"/></g><path fill="url(#d)" d="m 261.492,124.872 c 0,62.684 -50.816,113.5 -113.5,113.5 -62.684,0 -113.5,-50.816 -113.5,-113.5 0,-62.685 50.816,-113.5 113.5,-113.5 62.684,0 113.5,50.815 113.5,113.5 z" paint-order="stroke fill markers" transform="matrix(0.10643941,0,0,0.10643941,1.8810662,2.1291296) translate(-20,-4.286)"/><path fill="url(#e)" d="m 154.368,231.004 c -5.556,1.26 -11.108,2.517 -20.674,3.913 -9.566,1.396 -23.139,2.93 -39.037,2.933 -15.899,0 -34.133,-1.524 -46.623,-3.72 -12.49,-2.197 -19.241,-5.064 -22.101,-8.228 -2.86,-3.163 -1.828,-6.622 -0.565,-10.17 1.264,-3.547 2.759,-7.184 3.956,-11.651 1.198,-4.467 2.098,-9.765 1.088,-16.41 -1.011,-6.646 -3.932,-14.64 -6.853,-22.635" transform="matrix(0.10643941,0,0,0.10643941,1.8810662,2.1291296)"/><path fill="url(#f)" d="m 188.207,160.324 -82.176,19.83 -19.979,-20.038 c 0,0 -13.082,13.261 -18.072,19.778 l 46.02,46.82 14.242,7.371 c 10.099,-1.39 19.726,-3.117 28.797,-5.267 0.013,0 0.026,-0.01 0.04,-0.01 27.199,-7.275 48.656,-19.338 63.52,-36.12 z" transform="matrix(0.10643941,0,0,0.10643941,1.8810662,2.1291296)"/><path fill="url(#g)" d="m 205.473,113.95 -155.834,18.646 30,30 147.375,21.975 c 7.02,-9.995 12.02,-21.406 14.867,-34.211 z" transform="matrix(0.10643941,0,0,0.10643941,1.8810662,2.1291296)"/><path fill="url(#h)" d="m 188.46,68.752 45,45 -142.557,-2.826 -24,-24 z" transform="matrix(0.10643941,0,0,0.10643941,1.8810662,2.1291296)"/><g fill="#c1ede5" transform="matrix(0.10643941,0,0,0.10643941,1.8810662,2.1291296) matrix(1.011,0,0,1.011,-88.78,-687.44)"><rect width="127.3" height="26.5" x="150.9" y="744.2" rx="13.2" ry="13.2"/><rect width="161.6" height="26.5" x="133.6" y="789.1" rx="13.2" ry="13.2"/><rect width="91.8" height="26.5" x="186.2" y="834.9" rx="13.2" ry="13.2"/><rect width="26.5" height="26.5" x="150.8" y="834.9" rx="13.2" ry="13.2"/></g><text x="34.4" y="20.8" fill="#fff" font-family="sans-serif" font-size="14.2" font-weight="400" style="line-height:1.25"><tspan x="34.4" y="20.8" stroke-width=".4">Kaidan</tspan></text><path fill="#fcfcfc" d="M 0,63.560834 H 127 V 236.2 H 0 Z"/><g transform="matrix(0.74073594,0,0,0.74073594,-1.8424591,13.215534)"><path fill="#3daee9" stroke="#3daee9" stroke-dashoffset="531.6" stroke-linecap="round" stroke-linejoin="round" stroke-width="3.1" d="M 7.6092804,83.631377 H 17.251963"/><circle cx="17.3" cy="83.6" r="4.5" fill="#353535" filter="url(#i)"/><circle cx="17.3" cy="83.6" r="4.5" fill="#e7e7e7"/></g><text x="16.7" y="77.6" fill="#258e36" font-family="sans-serif" font-size="8.4" font-weight="400" letter-spacing="0" style="line-height:1.25" word-spacing="0"><tspan x="16.7" y="77.6">alice@kaidan.im (Online)</tspan></text><path fill="#232629" d="m 3.8217366,87.769741 v 0.587936 0.587995 0.587937 l -1.1759033,1.763884 v 0.58796 0.823367 0.35256 3.52774 0.24345 0.34451 H 3.233785 6.7615396 10.289293 V 96.58912 H 3.233785 v -0.3445 -0.83142 -2.35182 -0.58796 -0.35256 -0.235407 h 0.2354208 0.3525308 0.6339069 l 4.0697737,2.349527 4.0697748,-2.349527 h 0.046 0.587976 0.587951 v 0.235407 0.35256 0.58796 h 0.587951 v -0.35256 -0.831417 -0.57991 L 13.229167,89.533609 V 87.769741 H 4.4097773 Z m 0.587974,0.587936 h 8.2314144 v 0.587995 2.233531 L 8.5254172,93.55517 4.4097106,91.179203 v -2.233531 z m 0.5879517,0.587995 v 0.579907 l -0.00889,0.0089 h 0.00889 7.0555117 0.0089 l -0.0089,-0.0089 v -0.579907 z m 0,1.175901 v 0.58798 h 4.1157074 v -0.58798 z M 12.9351,93.06138 c -0.488573,0 -0.881926,0.39332 -0.881926,0.88191 0,0.48861 0.393353,0.88196 0.881926,0.88196 0.488596,0 0.881949,-0.39335 0.881949,-0.88196 0,-0.48859 -0.393353,-0.88191 -0.881949,-0.88191 z m -0.293975,2.35182 c -0.651463,0 -1.175904,0.52446 -1.175904,1.17592 v 0.58796 h 2.939778 v -0.58796 c 0,-0.65146 -0.524461,-1.17592 -1.175902,-1.17592 z" class="ColorScheme-Text"/><text x="16.4" y="95.6" fill="#232629" font-family="sans-serif" font-size="8.4" font-weight="400" letter-spacing="0" style="line-height:1.25" word-spacing="0"><tspan x="16.4" y="95.6" stroke-width=".2">Invite friends</tspan></text><path fill="#3daee9" d="m 0,101.1 h 127 v 18.5 H 0 Z" opacity=".5"/><text x="16.4" y="112.9" fill="#232629" font-family="sans-serif" font-size="8.4" font-weight="400" letter-spacing="0" style="line-height:1.25" word-spacing="0"><tspan x="16.4" y="112.9">Transfer account</tspan></text><path fill="#232629" d="m 11.575521,104.98229 a 1.190631,1.190625 0 0 0 -1.190625,1.19061 1.190631,1.190625 0 0 0 1.190625,1.19063 1.190631,1.190625 0 0 0 1.190625,-1.19063 1.190631,1.190625 0 0 0 -1.190625,-1.19061 m -2.6789064,2.38124 a 0.29765626,0.29765626 0 0 0 -0.2976563,0.29765 0.29765626,0.29765626 0 0 0 0.2976563,0.29765 0.29765626,0.29765626 0 0 0 0.2976564,-0.29765 0.29765626,0.29765626 0 0 0 -0.2976564,-0.29765 m -1.190625,0.5953 a 0.29765626,0.2976509 0 0 0 -0.2976561,0.29768 0.29765626,0.2976509 0 0 0 0.2976561,0.29765 0.29765626,0.2976509 0 0 0 0.2976563,-0.29765 0.29765626,0.2976509 0 0 0 -0.2976563,-0.29768 m -2.0835937,0.59533 a 1.190625,1.190631 0 0 0 -1.190625,1.19061 1.190625,1.190631 0 0 0 1.190625,1.19063 1.190625,1.190631 0 0 0 1.1906249,-1.19063 1.190625,1.190631 0 0 0 -1.1906249,-1.19061 m 2.0835937,2.38124 a 0.29766161,0.29765626 0 0 0 -0.2976561,0.29766 0.29766161,0.29765626 0 0 0 0.2976561,0.29765 0.29766161,0.29765626 0 0 0 0.2976563,-0.29765 0.29766161,0.29765626 0 0 0 -0.2976563,-0.29766 m 1.190625,0.59531 a 0.29765626,0.29765626 0 0 0 -0.2976563,0.29767 0.29765626,0.29765626 0 0 0 0.2976563,0.29766 0.29765626,0.29765626 0 0 0 0.2976564,-0.29766 0.29765626,0.29765626 0 0 0 -0.2976564,-0.29767 m 2.6789064,0.59533 a 1.190631,1.190625 0 0 0 -1.190625,1.19061 1.190631,1.190625 0 0 0 1.190625,1.19063 1.190631,1.190625 0 0 0 1.190625,-1.19063 1.190631,1.190625 0 0 0 -1.190625,-1.19061" class="ColorScheme-Text"/><path fill="#da4453" d="m 6.8130217,123.50311 v 1.19063 h 0.5953118 v -0.5953 h 2.3812492 v 0.5953 h 0.5953143 v -1.19063 H 6.8130217 m -2.3812515,1.78594 v 0.59532 h 8.3343758 v -0.59532 H 4.4317702 m 1.1906257,1.19063 v 6.54844 H 11.57552 v -6.54844 h -0.595312 v 5.95312 H 6.2177077 v -5.95312 H 5.6223959" class="ColorScheme-NegativeText"/><text x="16.4" y="131.4" fill="#232629" font-family="sans-serif" font-size="8.4" font-weight="400" letter-spacing="0" style="line-height:1.25" word-spacing="0"><tspan x="16.4" y="131.4">Delete account</tspan></text><path fill="#232629" d="m 8.8966158,142.02399 c -0.7226258,0 -1.321011,0.50955 -1.4580495,1.19063 H 3.8364602 v 0.5953 h 3.6021061 c 0.1370475,0.68108 0.7354237,1.19064 1.4580495,1.19064 0.722628,0 1.3210132,-0.50956 1.4580522,-1.19064 h 3.006792 v -0.5953 h -3.006792 c -0.137048,-0.68108 -0.7354242,-1.19063 -1.4580522,-1.19063 z m -3.5718751,6.54844 c -0.824508,0 -1.4882805,0.66377 -1.4882805,1.48829 0,0.82451 0.6637725,1.48828 1.4882805,1.48828 0.7226281,0 1.3210133,-0.50956 1.4580518,-1.19063 H 13.36146 v -0.59531 H 6.7827925 C 6.645745,149.08197 6.0473688,148.57243 5.3247407,148.57243 Z m 0,0.59531 c 0.4947053,0 0.8929688,0.39827 0.8929688,0.89298 0,0.4947 -0.3982635,0.89295 -0.8929688,0.89295 -0.494703,0 -0.8929687,-0.39825 -0.8929687,-0.89295 0,-0.49471 0.3982657,-0.89298 0.8929687,-0.89298 z" class="ColorScheme-Text"/><text x="16.4" y="149.9" fill="#232629" font-family="sans-serif" font-size="8.4" font-weight="400" letter-spacing="0" style="line-height:1.25" word-spacing="0"><tspan x="16.4" y="149.9">Settings</tspan></text><path fill="#232629" d="m 8.5989576,160.5448 c -2.6384242,0 -4.7625007,2.12407 -4.7625007,4.76251 0,2.63841 2.1240765,4.76248 4.7625007,4.76248 2.6384244,0 4.7625004,-2.12407 4.7625004,-4.76248 0,-2.63844 -2.124076,-4.76251 -4.7625004,-4.76251 z m 0,0.5953 c 2.3086214,0 4.1671864,1.85857 4.1671864,4.16721 0,2.30861 -1.858565,4.16718 -4.1671864,4.16718 -2.3086215,0 -4.1671867,-1.85857 -4.1671867,-4.16718 0,-2.30864 1.8585652,-4.16721 4.1671867,-4.16721 z m -0.5953117,1.19064 v 1.19063 h 1.1906235 v -1.19063 z m 0,1.78593 v 4.16718 h 1.1906235 v -4.16718 z" class="ColorScheme-Text"/><text x="16.4" y="168.4" fill="#232629" font-family="sans-serif" font-size="8.4" font-weight="400" letter-spacing="0" style="line-height:1.25" word-spacing="0"><tspan x="16.4" y="168.4">About</tspan></text><path fill="#787879" d="M127 -0.7H211.7V236.10000000000002H127z"/><path fill="url(#j)" d="m 127,-0.7 h 2.81801 V 236.1 H 127 Z" opacity=".5"/><rect width="15.9" height="15.9" x="131.3" y="2.4" filter="url(#k)" rx="2.6" ry="2.6" transform="matrix(0.75037286,0,0,0.75037286,33.729113,2.5754581)"/><rect width="15.9" height="15.9" x="130.4" y="2.4" fill="#eff0f1" rx="2.6" ry="2.6"/><path fill="#535556" d="m 134.43754,5.8237603 -0.81859,0.8021871 3.81271,3.7487216 -3.81271,3.746504 0.81859,0.804411 3.81276,-3.748727 3.81271,3.748727 0.81863,-0.804411 -3.81271,-3.746504 3.81271,-3.7487216 -0.81863,-0.8021871 -3.81271,3.7465024 z"/><path fill="#8f9395" d="M 0,0 H 3255 V 1647 H 0 Z" transform="matrix(0.0390169,0,0,0.0390169,0,-0.7)"/><path fill="#015aa2" d="m 1447,471 -362,235 362,236 361,-236 z" transform="matrix(0.0390169,0,0,0.0390169,0,-0.7)"/><path fill="#0158a1" d="m 1447,0 v 471 l 361,235 V 235 Z" transform="matrix(0.0390169,0,0,0.0390169,0,-0.7)"/><path fill="#0089d0" d="m 1808,706 -361,236 v 470 l 361,-235 z" transform="matrix(0.0390169,0,0,0.0390169,0,-0.7)"/><path fill="#049cda" d="m 1808,1177 -361,235 361,235 362,-235 z" transform="matrix(0.0390169,0,0,0.0390169,0,-0.7)"/><path fill="#02448b" d="M 1447,0 1808,235 2170,0 h -362 z" transform="matrix(0.0390169,0,0,0.0390169,0,-0.7)"/><path fill="#016db5" d="M 2170,0 1808,235 V 706 L 2170,471 Z" transform="matrix(0.0390169,0,0,0.0390169,0,-0.7)"/><path fill="#008ad3" d="m 2170,471 -362,235 362,236 362,-236 z" transform="matrix(0.0390169,0,0,0.0390169,0,-0.7)"/><path fill="#0090da" d="m 1808,706 v 471 l 362,235 V 942 Z" transform="matrix(0.0390169,0,0,0.0390169,0,-0.7)"/><path fill="#0097df" d="m 2170,1412 -362,235 h 362 z" transform="matrix(0.0390169,0,0,0.0390169,0,-0.7)"/><path fill="#0166af" d="m 1447,1412 v 235 h 361 z" transform="matrix(0.0390169,0,0,0.0390169,0,-0.7)"/><path fill="#08a5d8" d="m 2170,1412 v 235 h 362 z" transform="matrix(0.0390169,0,0,0.0390169,0,-0.7)"/><path fill="#10b3d1" d="m 2532,1177 -362,235 362,235 361,-235 z" transform="matrix(0.0390169,0,0,0.0390169,0,-0.7)"/><path fill="#1ab8cf" d="m 2532,706 -362,236 v 470 l 362,-235 z" transform="matrix(0.0390169,0,0,0.0390169,0,-0.7)"/><path fill="#0096de" d="m 2170,0 v 471 l 362,235 V 235 Z" transform="matrix(0.0390169,0,0,0.0390169,0,-0.7)"/><path fill="#0089d1" d="M 2170,0 2532,235 2893,0 h -361 z" transform="matrix(0.0390169,0,0,0.0390169,0,-0.7)"/><path fill="#4bd4bd" d="m 2893,1412 -361,235 h 361 z" transform="matrix(0.0390169,0,0,0.0390169,0,-0.7)"/><path fill="#38cbc6" d="m 2532,706 v 471 l 361,235 V 942 Z" transform="matrix(0.0390169,0,0,0.0390169,0,-0.7)"/><path fill="#47d4c0" d="m 2893,471 -361,235 361,236 362,-236 z" transform="matrix(0.0390169,0,0,0.0390169,0,-0.7)"/><path fill="#0dafd4" d="M 2893,0 2532,235 V 706 L 2893,471 Z" transform="matrix(0.0390169,0,0,0.0390169,0,-0.7)"/><path fill="#67dbcb" d="m 2893,1412 v 235 h 362 z" transform="matrix(0.0390169,0,0,0.0390169,0,-0.7)"/><path fill="#81e1d4" d="m 3255,1177 v 470 l -362,-235 z" transform="matrix(0.0390169,0,0,0.0390169,0,-0.7)"/><path fill="#61dac9" d="m 3255,706 -362,236 v 470 l 362,-235 z" transform="matrix(0.0390169,0,0,0.0390169,0,-0.7)"/><path fill="#0dafd4" d="m 2893,0 v 471 l 362,235 V 235 Z" transform="matrix(0.0390169,0,0,0.0390169,0,-0.7)"/><path fill="#06a1d9" d="m 2893,0 362,235 V 0 Z" transform="matrix(0.0390169,0,0,0.0390169,0,-0.7)"/><path fill="#0171b8" d="m 1447,1412 -362,235 h 362 z" transform="matrix(0.0390169,0,0,0.0390169,0,-0.7)"/><path fill="#0159a1" d="m 1085,1177 -362,235 362,235 362,-235 z" transform="matrix(0.0390169,0,0,0.0390169,0,-0.7)"/><path fill="#0168b1" d="m 1085,706 v 471 l 362,235 V 942 Z" transform="matrix(0.0390169,0,0,0.0390169,0,-0.7)"/><path fill="#024389" d="M 1447,0 1085,235 V 706 L 1447,471 Z" transform="matrix(0.0390169,0,0,0.0390169,0,-0.7)"/><path fill="#013067" d="M 723,0 1085,235 1446,0 h -361 z" transform="matrix(0.0390169,0,0,0.0390169,0,-0.7)"/><path fill="#024389" d="m 723,1412 v 235 h 362 z" transform="matrix(0.0390169,0,0,0.0390169,0,-0.7)"/><path fill="#024a91" d="M 1085,706 723,942 v 470 l 362,-235 z" transform="matrix(0.0390169,0,0,0.0390169,0,-0.7)"/><path fill="#024081" d="M 723,471 362,706 723,942 1085,706 Z" transform="matrix(0.0390169,0,0,0.0390169,0,-0.7)"/><path fill="#023e80" d="m 723,0 v 471 l 362,235 V 235 Z" transform="matrix(0.0390169,0,0,0.0390169,0,-0.7)"/><path fill="#013671" d="M 723,1412 362,1647 H 723 Z" transform="matrix(0.0390169,0,0,0.0390169,0,-0.7)"/><path fill="#013b79" d="M 362,1177 0,1412 362,1647 723,1412 Z" transform="matrix(0.0390169,0,0,0.0390169,0,-0.7)"/><path fill="#024287" d="m 362,706 v 471 l 361,235 V 942 Z" transform="matrix(0.0390169,0,0,0.0390169,0,-0.7)"/><path fill="#002a5b" d="M 723,0 362,235 V 706 L 723,471 Z" transform="matrix(0.0390169,0,0,0.0390169,0,-0.7)"/><path fill="#002655" d="M 0,0 362,235 723,0 H 362 Z" transform="matrix(0.0390169,0,0,0.0390169,0,-0.7)"/><path fill="#012c5f" d="m 0,1412 v 235 h 362 z" transform="matrix(0.0390169,0,0,0.0390169,0,-0.7)"/><path fill="#012a5c" d="M 362,706 0,942 v 470 l 362,-235 z" transform="matrix(0.0390169,0,0,0.0390169,0,-0.7)"/><path fill="#013671" d="M 0,471 V 942 L 362,706 Z" transform="matrix(0.0390169,0,0,0.0390169,0,-0.7)"/><path fill="#00214b" d="M 0,0 V 471 L 362,706 V 235 Z" transform="matrix(0.0390169,0,0,0.0390169,0,-0.7)"/></g></svg>