<svg xmlns="http://www.w3.org/2000/svg" viewBox="0 0 400 200"><g transform="translate(0 -97)"><rect width="120" height="10" x="255" y="267" fill="#4d4d4d" rx="5.5" ry="5"/><path fill="#fc0" d="m 925.98438,623.62109 c -10.4693,0 -17.43561,8.53184 -18.89844,18.89844 l -8,56.69336 c -1.46283,10.3666 8.42914,18.89649 18.89844,18.89649 h 26.89843 c 10.46929,0 18.89649,-8.4272 18.89649,-18.89649 a 18.897636,18.897638 0 0 1 18.89843,-18.89844 h 18.89647 l 94.4883,-18.89648 -132.2832,-18.89844 c 0,-10.46929 -8.4272,-18.89844 -18.89649,-18.89844 z" transform="translate(0 97) scale(.26458)"/><path fill="#ffebdb" stroke="#000" stroke-linecap="round" stroke-linejoin="round" stroke-width="3" d="m 140,277 c 0,0 0,-80 0,-80 0,0 20,-20 20,-20 0,0 0,-40 0,-40 0,0 20,0 20,0 0,0 0,20 0,20 0,0 20,-20 20,-20 0,0 53.68646,53.68646 53.68646,53.68646 0,0 6.31354,6.31354 6.31354,6.31354 0,0 0,80 0,80 0,0 -120,0 -120,0 z" transform="translate(-40)"/><path fill="#4b2623" fill-opacity=".2" d="m 100,197 c 0,0 120,10 120,10 0,0 0,-10 0,-10 0,0 -120,0 -120,0 z"/><path fill="#edbca5" d="m 120,137 c 0,0 20,0 20,0 0,0 0,20 0,20 0,0 -20,20 -20,20 0,0 0,-40 0,-40 z"/><path fill="#d78161" d="m 377.95312,529.13477 v 18.89648 h 28.34571 c 5.23464,0 9.44922,-4.21457 9.44922,-9.44922 0,-5.23464 -4.21458,-9.44726 -9.44922,-9.44726 z" transform="matrix(-.26458 0 0 .26458 240 -3)"/><path fill="#f8dac6" d="m 377.95312,548.03125 v 18.89844 h 9.44922 c 5.23465,0 9.44727,-4.21458 9.44727,-9.44922 0,-5.23465 -4.21262,-9.44922 -9.44727,-9.44922 z" transform="matrix(-.26458 0 0 .26458 240 -3)"/><path fill="#fcba8c" d="m 377.95312,566.92969 v 18.89648 h 28.34571 c 5.23464,0 9.44922,-4.21262 9.44922,-9.44726 0,-5.23465 -4.21458,-9.44922 -9.44922,-9.44922 z" transform="matrix(-.26458 0 0 .26458 240 -3)"/><path fill="#dc8f72" d="m 100,252 v 5.00021 h 2.5001 c 1.385,0 2.49959,-1.11511 2.49959,-2.50011 0,-1.385 -1.11459,-2.5001 -2.49959,-2.5001 z" transform="matrix(-1 0 0 1 240 -100)"/><path fill="#d78161" d="m 377.95312,529.13477 v 18.89648 h 28.34571 c 5.23464,0 9.44922,-4.21457 9.44922,-9.44922 0,-5.23464 -4.21458,-9.44726 -9.44922,-9.44726 z" transform="matrix(-.26458 0 0 .26458 320 57)"/><path fill="#f8dac6" d="m 377.95312,548.03125 v 18.89844 h 9.44922 c 5.23465,0 9.44727,-4.21458 9.44727,-9.44922 0,-5.23465 -4.21262,-9.44922 -9.44727,-9.44922 z" transform="matrix(-.26458 0 0 .26458 320 57)"/><path fill="#edbca5" d="m 377.95312,566.92969 v 18.89648 h 28.34571 c 5.23464,0 9.44922,-4.21262 9.44922,-9.44726 0,-5.23465 -4.21458,-9.44922 -9.44922,-9.44922 z" transform="matrix(-.26458 0 0 .26458 320 57)"/><path fill="#fcba8c" d="m 377.95312,642.51953 v 18.89844 h 28.34571 c 5.23464,0 9.44922,-4.21457 9.44922,-9.44922 0,-5.23465 -4.21458,-9.44922 -9.44922,-9.44922 z" transform="matrix(-.26458 0 0 .26458 320 57)"/><path fill="#d78161" d="m 377.95312,661.41797 v 18.89648 h 9.44922 c 5.23465,0 9.44727,-4.21457 9.44727,-9.44922 0,-5.23464 -4.21262,-9.44726 -9.44727,-9.44726 z" transform="matrix(-.26458 0 0 .26458 320 57)"/><path fill="#edbca5" d="M 100,262.0003 V 267 h 2.5001 c 1.385,0 2.49959,-1.11511 2.49959,-2.50011 0,-1.385 -1.11459,-2.49959 -2.49959,-2.49959 z" transform="matrix(-1 0 0 1 320 -40)"/><path fill="#dc8f72" d="m 100,252 v 5.00021 h 2.5001 c 1.385,0 2.49959,-1.11511 2.49959,-2.50011 0,-1.385 -1.11459,-2.5001 -2.49959,-2.5001 z" transform="matrix(-1 0 0 1 320 -40)"/><rect width="15" height="5" x="135" y="212" fill="#fcba8c" ry="2.4"/><rect width="10" height="5" x="135" y="207" fill="#edbca5" ry="2.5"/><rect width="20" height="20" x="120" y="207" fill="#b7bec8" rx="0" ry="0"/><path fill="#d0d6da" d="M139.58188 207.00016l-11.5471 19.99981h4.22558l7.73958-13.40538v-6.59443zM121.49358 207.00016l-1.49345 2.58692v15.56752l10.48153-18.15444z"/><rect width="20" height="20" x="120" y="207" fill="none" stroke="#80403c" stroke-dashoffset="24.9" stroke-linecap="round" stroke-linejoin="round" stroke-width="3" rx="0" ry="0"/><path fill="#fff" stroke="#fefefe" stroke-dashoffset="24.9" stroke-linecap="round" stroke-linejoin="round" stroke-width="3" d="m 124.8877,211.8877 h 10.26497 -10.26497 v 2.26621"/><path fill="#fff" stroke="#fefefe" stroke-linecap="round" stroke-width="3" d="m 164.8877,256.72498 c 0,0.69151 0,1.38703 0,2.08077" transform="translate(-40 -38)"/><rect width="20" height="20" x="180" y="207" fill="#b7bec8" rx="0" ry="0"/><path fill="#d0d6da" d="M199.72943 207.00013l-11.5471 19.99981h4.22558l7.73958-13.40538v-6.59443zM181.64113 207.00013l-1.49345 2.58692v15.56752l10.48153-18.15444z"/><rect width="20" height="20" x="180" y="207" fill="none" stroke="#80403c" stroke-dashoffset="24.9" stroke-linecap="round" stroke-linejoin="round" stroke-width="3" rx="0" ry="0"/><path fill="#fff" stroke="#fefefe" stroke-dashoffset="24.9" stroke-linecap="round" stroke-linejoin="round" stroke-width="3" d="m 185.03525,211.88767 h 10.26497 -10.26497 v 2.26621"/><path fill="#fff" stroke="#fefefe" stroke-linecap="round" stroke-width="3" d="m 164.8877,256.72498 c 0,-0.0122 0,-0.0242 0,-0.0359" transform="translate(20 -38)"/><path fill="#c0695e" stroke="#80403c" stroke-dashoffset="24.9" stroke-linecap="round" stroke-linejoin="round" stroke-width="3" d="M180.14755 246.99997H200.14755V276.99996999999996H180.14755z"/><rect width="20" height="20" x="120" y="247" fill="#b7bec8" rx="0" ry="0"/><path fill="#d0d6da" d="M139.72944 247.00013l-11.5471 19.99981h4.22559l7.73958-13.40538v-6.59443zM121.64114 247.00013l-1.49345 2.58692v15.56752l10.48153-18.15444z"/><rect width="20" height="20" x="120" y="247" fill="none" stroke="#80403c" stroke-dashoffset="24.9" stroke-linecap="round" stroke-linejoin="round" stroke-width="3" rx="0" ry="0"/><path fill="#fff" stroke="#fefefe" stroke-dashoffset="24.9" stroke-linecap="round" stroke-linejoin="round" stroke-width="3" d="m 125.03527,251.88767 h 10.26497 -10.26497 v 2.26621"/><path fill="#fff" stroke="#fefefe" stroke-linecap="round" stroke-width="3" d="m 164.8877,256.72498 c 0,-0.0122 0,-0.0242 0,-0.0359" transform="translate(-40 2)"/><path fill="none" stroke="#d9917a" stroke-dashoffset="24.9" stroke-linecap="round" stroke-linejoin="round" stroke-width="3" d="m 184.35704,255.99656 v -4.6 h 12.0625"/><path fill="none" stroke="#d9917a" stroke-linecap="round" stroke-width="3" d="m 224.20947,260.22992 c 0,0.67374 0,1.34773 0,2.02199" transform="translate(-40)"/><path fill="none" d="m 100.0001,261.99974 v 5.00022 h 2.5001 c 1.385,0 2.49959,-1.11511 2.49959,-2.50011 0,-1.385 -1.11459,-2.50011 -2.49959,-2.50011 z"/><path fill="#d78161" d="m 377.95312,529.13477 v 18.89648 h 28.34571 c 5.23464,0 9.44922,-4.21457 9.44922,-9.44922 0,-5.23464 -4.21458,-9.44726 -9.44922,-9.44726 z" transform="translate(0 97) scale(.26458)"/><path fill="#f8dac6" d="m 377.95312,548.03125 v 18.89844 h 9.44922 c 5.23465,0 9.44727,-4.21458 9.44727,-9.44922 0,-5.23465 -4.21262,-9.44922 -9.44727,-9.44922 z" transform="translate(0 97) scale(.26458)"/><path fill="#edbca5" d="m 377.95312,566.92969 v 18.89648 h 28.34571 c 5.23464,0 9.44922,-4.21262 9.44922,-9.44726 0,-5.23465 -4.21458,-9.44922 -9.44922,-9.44922 z" transform="translate(0 97) scale(.26458)"/><path fill="#fcba8c" d="m 377.95312,642.51953 v 18.89844 h 28.34571 c 5.23464,0 9.44922,-4.21457 9.44922,-9.44922 0,-5.23465 -4.21458,-9.44922 -9.44922,-9.44922 z" transform="translate(0 97) scale(.26458)"/><path fill="#d78161" d="m 377.95312,661.41797 v 18.89648 h 9.44922 c 5.23465,0 9.44727,-4.21457 9.44727,-9.44922 0,-5.23464 -4.21262,-9.44726 -9.44727,-9.44726 z" transform="translate(0 97) scale(.26458)"/><path fill="#edbca5" d="M 100,262.0003 V 267 h 2.5001 c 1.385,0 2.49959,-1.11511 2.49959,-2.50011 0,-1.385 -1.11459,-2.49959 -2.49959,-2.49959 z"/><path fill="#dc8f72" d="m 100,252 v 5.00021 h 2.5001 c 1.385,0 2.49959,-1.11511 2.49959,-2.50011 0,-1.385 -1.11459,-2.5001 -2.49959,-2.5001 z"/><path fill="#d78161" d="M219.99995 267.00031V272h-7.4998c-1.385 0-2.50011-1.1151-2.50011-2.5001 0-1.385 1.11511-2.49959 2.50011-2.49959zM220 241.99969v5.00022h-2.50011c-1.385 0-2.49959-1.11511-2.49959-2.50011 0-1.385 1.11459-2.50011 2.49959-2.50011z"/><path fill="#edbca5" d="M 220,237.00031 V 242 h -7.4998 c -1.385,0 -2.50011,-1.11459 -2.50011,-2.4996 0,-1.38499 1.11511,-2.5001 2.50011,-2.5001 z"/><path fill="#fcba8c" d="m 220,252 v 5.00021 h -7.4998 c -1.385,0 -2.50011,-1.11511 -2.50011,-2.50011 0,-1.385 1.11511,-2.5001 2.50011,-2.5001 z"/><path fill="#edbca5" d="m 220.00009,262.00006 v 4.9997 h -2.5001 c -1.385,0 -2.49959,-1.11511 -2.49959,-2.50011 0,-1.385 1.11459,-2.49959 2.49959,-2.49959 z"/><path fill="#fcba8c" d="M 220,271.99979 V 277 h -2.5001 c -1.385,0 -2.49959,-1.11511 -2.49959,-2.50011 0,-1.385 1.11459,-2.5001 2.49959,-2.5001 z"/><path fill="#d78161" d="M219.99995 267.00031V272h-7.4998c-1.385 0-2.50011-1.1151-2.50011-2.5001 0-1.385 1.11511-2.49959 2.50011-2.49959zM220 241.99969v5.00022h-2.50011c-1.385 0-2.49959-1.11511-2.49959-2.50011 0-1.385 1.11459-2.50011 2.49959-2.50011z" transform="matrix(-1 0 0 1 320 -40)"/><path fill="#edbca5" d="M 220,237.00031 V 242 h -7.4998 c -1.385,0 -2.50011,-1.11459 -2.50011,-2.4996 0,-1.38499 1.11511,-2.5001 2.50011,-2.5001 z" transform="matrix(-1 0 0 1 320 -40)"/><path fill="#fcba8c" d="m 220,252 v 5.00021 h -7.4998 c -1.385,0 -2.50011,-1.11511 -2.50011,-2.50011 0,-1.385 1.11511,-2.5001 2.50011,-2.5001 z" transform="matrix(-1 0 0 1 320 -40)"/><path fill="#edbca5" d="m 220.00009,262.00006 v 4.9997 h -2.5001 c -1.385,0 -2.49959,-1.11511 -2.49959,-2.50011 0,-1.385 1.11459,-2.49959 2.49959,-2.49959 z" transform="matrix(-1 0 0 1 320 -40)"/><path fill="#fcba8c" d="M 220,271.99979 V 277 h -2.5001 c -1.385,0 -2.49959,-1.11511 -2.49959,-2.50011 0,-1.385 1.11459,-2.5001 2.49959,-2.5001 z" transform="matrix(-1 0 0 1 320 -40)"/><path fill="#4d4d4d" stroke="#4b2623" stroke-width="3" d="m 139.49742,238.5 c 39.93277,0 79.33531,0 119.00258,0" transform="translate(-38 -1)"/><path fill="#4b2623" fill-opacity=".2" d="m 100,197 c 0,0 120,10 120,10 0,0 0,-10 0,-10 0,0 -120,0 -120,0 z" transform="translate(0 40)"/><path fill="#d78161" d="m 377.95312,529.13477 v 18.89648 h 18.34571 c 5.23464,0 -18.34571,-18.89648 -18.34571,-18.89648 z" transform="matrix(.26458 0 0 -.26458 20 317)"/><path fill="#fcba8c" d="m 377.95312,548.03125 v 18.89844 h 9.44922 c 5.23465,0 9.44727,-4.21458 9.44727,-9.44922 0,-5.23465 -4.21262,-9.44922 -9.44727,-9.44922 z" transform="matrix(.26458 0 0 -.26458 20 317)"/><path fill="#f8dac6" d="m 377.95312,566.92969 v 18.89648 h 28.34571 c 5.23464,0 9.44922,-4.21262 9.44922,-9.44726 0,-5.23465 -4.21458,-9.44922 -9.44922,-9.44922 z" transform="matrix(.26458 0 0 -.26458 20 317)"/><path fill="#fcba8c" d="m 377.95312,642.51953 v 18.89844 h 28.34571 c 5.23464,0 9.44922,-4.21457 9.44922,-9.44922 0,-5.23465 -4.21458,-9.44922 -9.44922,-9.44922 z" transform="matrix(.26458 0 0 -.26458 20 317)"/><path fill="#d78161" d="m 377.95312,661.41797 v 18.89648 h 9.44922 c 5.23465,0 9.44727,-4.21457 9.44727,-9.44922 0,-5.23464 -4.21262,-9.44726 -9.44727,-9.44726 z" transform="matrix(.26458 0 0 -.26458 20 317)"/><path fill="#f8dac6" d="M 100,262.0003 V 267 h 2.5001 c 1.385,0 2.49959,-1.11511 2.49959,-2.50011 0,-1.385 -1.11459,-2.49959 -2.49959,-2.49959 z" transform="matrix(1 0 0 -1 20 414)"/><path fill="#dc8f72" d="m 100,252 v 5.00021 h 2.5001 c 1.385,0 2.49959,-1.11511 2.49959,-2.50011 0,-1.385 -1.11459,-2.5001 -2.49959,-2.5001 z" transform="matrix(1 0 0 -1 20 414)"/><path fill="#d9917a" fill-opacity=".3" d="m 100,197 c 0,0 120,0 120,0 0,0 -60,-60 -60,-60 0,0 -60,60 -60,60 z"/><rect width="10" height="5" x="150" y="247" fill="#edbca5" ry="2.5"/><rect width="10" height="5" x="155" y="252" fill="#fcba8c" ry="2.5"/><path fill="#4d4d4d" stroke="#4b2623" stroke-linecap="round" stroke-linejoin="round" stroke-width="3" d="m 138.5,198.5 c 39.85234,0 80.00026,0 120,0" transform="translate(-38 -1)"/><path fill="none" stroke="#4b2623" stroke-linecap="round" stroke-width="3" d="M225 202c-1.66667-1.66667-3.33333-3.33334-5-5M100 197c-1.666402 1.6664-3.33307 3.33307-5.000001 5"/><rect width="10" height="5" x="140" y="177" fill="#d78161" ry="2.5"/><rect width="10" height="5" x="145" y="172" fill="#d78161" ry="2.5"/><path fill="#80403c" d="m 160.00005,137.00014 -4.26951,4.26951 c 0.4519,0.45177 1.07691,0.73019 1.7694,0.73019 h 5.00022 c 0.6925,0 1.31762,-0.27842 1.7694,-0.73019 z m -9.9999,9.99991 -4.26951,4.2695 c 0.4519,0.45178 1.0769,0.73019 1.7694,0.73019 h 5.00021 c 1.385,0 2.49959,-1.11459 2.49959,-2.49959 0,-1.38499 -1.11459,-2.5001 -2.49959,-2.5001 z m 17.4997,0 c -1.385,0 -2.50011,1.11511 -2.50011,2.5001 0,1.385 1.11511,2.49959 2.50011,2.49959 h 5.00021 c 0.6925,0 1.3175,-0.27841 1.7694,-0.73019 l -4.2695,-4.2695 z m -27.49961,9.9999 -4.26951,4.26951 c 0.4519,0.4519 1.0769,0.73071 1.7694,0.73071 h 4.9997 c 1.385,0 2.5001,-1.11511 2.5001,-2.50011 0,-1.385 -1.1151,-2.50011 -2.5001,-2.50011 z m 37.49952,0 c -1.385,0 -2.49959,1.11511 -2.49959,2.50011 0,1.385 1.11459,2.50011 2.49959,2.50011 h 5.00021 c 0.6925,0 1.3175,-0.27881 1.7694,-0.73071 l -4.26951,-4.26951 z m -47.49943,9.99991 -4.26951,4.26951 c 0.45191,0.4519 1.07691,0.7307 1.7694,0.7307 h 4.9997 c 1.385,0 2.50011,-1.1151 2.50011,-2.5001 0,-1.385 -1.11511,-2.50011 -2.50011,-2.50011 z m 57.49985,0 c -1.385,0 -2.50011,1.11511 -2.50011,2.50011 0,1.385 1.11511,2.5001 2.50011,2.5001 h 4.99969 c 0.69251,0 1.31751,-0.2788 1.76941,-0.7307 l -4.26951,-4.26951 z m -67.49975,9.99991 -4.26951,4.2695 c 0.45175,0.45175 1.07652,0.73071 1.76888,0.73071 h 5.00022 c 1.38499,0 2.5001,-1.11511 2.5001,-2.50011 0,-1.385 -1.11511,-2.5001 -2.5001,-2.5001 z m 77.49966,0 c -1.385,0 -2.50011,1.1151 -2.50011,2.5001 0,1.385 1.11511,2.50011 2.50011,2.50011 h 4.99969 c 0.6925,0 1.3175,-0.2788 1.7694,-0.73071 l -4.2695,-4.2695 z M 110,187.00019 l -4.26899,4.26899 c 0.45188,0.45174 1.07653,0.73071 1.76889,0.73071 h 5.00021 c 1.385,0 2.5001,-1.11511 2.5001,-2.50011 0,-1.385 -1.1151,-2.49959 -2.5001,-2.49959 z m 97.49999,0 c -1.385,0 -2.5001,1.11459 -2.5001,2.49959 0,1.385 1.1151,2.50011 2.5001,2.50011 h 5.00021 c 0.69237,0 1.31714,-0.27897 1.76889,-0.73071 l -4.26899,-4.26899 z"/><path fill="none" stroke="#4b2623" stroke-linecap="round" stroke-linejoin="round" stroke-width="3" d="m 140,277 c 0,0 0,-80 0,-80 0,0 20,-20 20,-20 0,0 0,-40 0,-40 0,0 20,0 20,0 0,0 0,20 0,20 0,0 20,-20 20,-20 0,0 53.68646,53.68646 53.68646,53.68646 0,0 6.31354,6.31354 6.31354,6.31354 0,0 0,80 0,80 0,0 -120,0 -120,0 z" transform="translate(-40)"/><path fill="none" stroke="#4b2623" stroke-linecap="round" stroke-width="3" d="m 120,177 c 6.66693,-6.66693 13.3336,-13.3336 20,-20"/><path fill="#4b2623" fill-opacity=".2" d="m 140.00024,156.99996 c 0,0 -20.00034,8.70407 -20.00034,8.70407 0,0 1e-4,11.2956 1e-4,11.2956 0,0 20.00024,-19.99967 20.00024,-19.99967"/><path fill="none" stroke="#585858" stroke-linecap="round" stroke-linejoin="round" stroke-width="3" d="m 220,197 c 0,0 -60.12856,-79.87036 -60.12856,-79.87036 C 159.87144,117.12964 100,197 100,197"/><path fill="none" stroke="#444" stroke-dasharray="3 9" stroke-dashoffset="11" stroke-linecap="round" stroke-linejoin="round" stroke-width="3" d="m 220,197 c 0,0 -60.12856,-79.87036 -60.12856,-79.87036 C 159.87144,117.12964 100,197 100,197"/><rect width="140" height="10" x="90" y="287" fill="gray" rx="5.1" ry="6.7"/><g transform="rotate(39 314 21)"><rect width="241.8" height="10" x="250" y="182" fill="#fc0" rx="5.4" ry="4.5"/><rect width="25.9" height="15.5" x="249" y="182" fill="#333" rx="5" ry="5"/></g><path fill="#444" fill-opacity=".2" d="m 215.02822,151.07319 -9.42784,4.71392 20.25136,20.25177 -6.81601,-20.95767 z" transform="rotate(-6 233 93)"/><g transform="rotate(39 314 21)"><rect width="166.1" height="16.4" x="326" y="176" fill="#fc0" rx="8.2" ry="8.2"/><rect width="25.9" height="15.5" x="249" y="182" fill="#333" rx="5" ry="5"/></g><path fill="none" stroke="#ffe990" stroke-linecap="round" stroke-width="3" d="m 220,152 c 6.66666,6.66667 13.33333,13.33333 20,20" transform="scale(.97703) rotate(-6 274 39)"/><path fill="none" stroke="#ffe990" stroke-linecap="round" stroke-width="3" d="m 220,152 c 1.66667,1.66666 3.33333,3.33333 5,5" transform="rotate(-6 471 -170)"/><path fill="none" stroke="#ffe990" stroke-linecap="round" stroke-width="3" d="m 220,152 c 7.5,7.5 15.00001,15 22.5,22.5" transform="rotate(-6 638 -354)"/><path fill="none" stroke="#ffe990" stroke-linecap="round" stroke-width="3" d="m 217.5,149.5 c 0.0306,0.0306 0.0611,0.0611 0.0917,0.0917" transform="rotate(-6 923 -670)"/><path fill="none" stroke="#ffe990" stroke-linecap="round" stroke-width="3" d="m 220,152 c 7.5,7.5 15.00001,15 22.5,22.5" transform="rotate(-6 935 -683)"/><path fill="none" stroke="#ffe990" stroke-linecap="round" stroke-width="3" d="m 220,152 c 7.5,7.5 15.00001,15 22.5,22.5" transform="rotate(-6 -47 497)"/><path fill="none" stroke="#ffe990" stroke-linecap="round" stroke-width="3" d="m 217.5,149.5 c 0.0306,0.0306 0.0611,0.0611 0.0917,0.0917" transform="rotate(-6 239 181)"/><path fill="#1a1a1a" fill-opacity=".2" d="m 333.70321,262.12348 c 0,0 -17.7825,3.98436 -17.7825,3.98436 0,0 17.35975,1.73706 17.35975,1.73706 0,0 0.42275,-5.72142 0.42275,-5.72142 z" transform="rotate(-6 233 93)"/><circle cx="295" cy="287" r="9.9" fill="#1a1a1a"/><circle cx="340" cy="287" r="9.9" fill="#1a1a1a"/><circle cx="365" cy="287" r="9.9" fill="#1a1a1a"/><path fill="#fc0" d="m 992.12695,661.41797 c -5.23464,0 -9.44922,4.21262 -9.44922,9.44726 0,5.23465 4.21458,9.44922 9.44922,9.44922 h 160.62895 a 18.897638,18.897638 0 0 1 18.8984,18.89844 h 0.023 c 0,0.15934 -0.023,0.31432 -0.023,0.47461 v 17.94727 c 0,10.73288 8.4272,19.37304 18.8965,19.37304 h 18.8984 c 10.4693,0 18.8965,-8.64016 18.8965,-19.37304 V 699.6875 c 0,-0.16029 -0.02,-0.31527 -0.023,-0.47461 h 0.023 a 18.897638,18.897638 0 0 1 18.8984,-18.89844 h 160.6289 c 5.2347,0 9.4493,-4.21457 9.4493,-9.44922 0,-5.23464 -4.2146,-9.44726 -9.4493,-9.44726 z" transform="translate(0 97) scale(.26458)"/><path fill="none" stroke="#565656" stroke-linecap="round" stroke-linejoin="round" stroke-width="3" d="m 250,287 c 0,0 -15,0 -15,0 0,0 -5,-5 -5,-5" transform="translate(3)"/><path fill="#fc0" d="M 297.11664,257 H 315 v 0 10 0 H 294.99997 295 Z"/><path fill="none" stroke="#fc0" stroke-linecap="round" stroke-linejoin="round" stroke-width="3" d="m 315,242 c 0,0 0,25 0,25 0,0 -20,0 -20,0"/><path fill="none" stroke="#565656" stroke-linecap="round" stroke-linejoin="round" stroke-width="3" d="m 315,242 c 0,0 -15,0 -15,0 0,0 -5.00001,25 -5.00001,25"/><rect width="55" height="10" x="305" y="257" fill="#fc0" rx="5" ry="4.6"/><rect width="15" height="20" x="350" y="247" fill="#fc0" rx="5" ry="5"/><circle cx="270" cy="287" r="10" fill="#1a1a1a"/><path fill="#b7bec8" d="m 928.13477,634.51953 c -6.28158,0 -10.32785,5.13803 -11.33789,11.33789 l -5.93946,36.45703 v 0.002 9.8125 c 0,5.03255 4.05139,9.08398 9.08399,9.08398 h 21.78711 c 5.03255,0 9.08398,-4.05143 9.08398,-9.08398 v -9.81446 -9.8125 -26.64453 c 0,-6.28157 -5.05827,-11.33789 -11.33984,-11.33789 z" transform="translate(0 97) scale(.26458)"/><rect width="29.4" height="5" x="324" y="267" fill="#1a1a1a" rx="2.5" ry="2.5"/><path fill="none" stroke="#ffe990" stroke-linecap="round" stroke-width="3" d="m 255,267 c 5.83344,1.13744 11.66685,2.27488 17.50019,3.4123" transform="translate(0 3)"/><path fill="none" stroke="#ffe990" stroke-dashoffset="81.4" stroke-linecap="round" stroke-linejoin="round" stroke-width="3" d="M318.23543 287.79846h-2.65439c-.78462 0-1.41628-.63166-1.41628-1.41627v-7.15925M312.21932 274.09394h-7.15925M300.04847 274.09394h-.28008M312.21932 260.33558H299.7684M338.67767 260.33558h-7.15925M326.50682 260.33558h-.28008"/><path fill="#1a1a1a" fill-opacity=".2" d="m 316.48939,267 c 0,0 2.20308,-10 2.20308,-10 0,0 -2.39191,0 -2.39191,0 0,0 0.18883,10 0.18883,10 z" transform="matrix(1 0 0 -1 0 524)"/><path fill="#d0d6da" d="m 944.37695,635.64062 -33.40625,57.86133 c 0.65942,4.37489 4.40616,7.71094 8.97071,7.71094 h 9.25976 l 21.61133,-37.43164 v -17.92383 c 0,-4.52018 -2.62602,-8.39304 -6.43555,-10.2168 z" transform="translate(0 97) scale(.26458)"/><circle cx="270" cy="287" r="7.5" fill="#333"/><circle cx="270" cy="287" r="2.4" fill="#b3b3b3"/><circle cx="353.6" cy="-210.7" r="7.5" fill="#333" transform="rotate(75)"/><circle cx="353.6" cy="-210.7" r="2.4" fill="#b3b3b3" transform="rotate(75)"/><circle cx="365.2" cy="-254.1" r="7.5" fill="#333" transform="rotate(75)"/><circle cx="365.2" cy="-254.1" r="2.4" fill="#b3b3b3" transform="rotate(75)"/><circle cx="371.7" cy="-278.3" r="7.5" fill="#333" transform="rotate(75)"/><circle cx="371.7" cy="-278.3" r="2.4" fill="#b3b3b3" transform="rotate(75)"/><g fill="none" stroke="#4a5461" stroke-dashoffset="81.4" stroke-linecap="round" stroke-linejoin="round" stroke-width="2"><path d="m 275.27139,287 a 5.271389,5.271389 0 0 1 -2.69542,4.59912 5.271389,5.271389 0 0 1 -5.32977,-0.10422"/><path d="m 264.72975,287.10951 a 5.271389,5.271389 0 0 1 4.08089,-5.24497"/><path d="m 357.38095,-207.02261 a 5.271389,5.271389 0 0 1 -6.56242,0.85046" transform="rotate(75)"/><path d="m 348.30208,-210.55755 a 5.271389,5.271389 0 0 1 4.08088,-5.24496" transform="rotate(75)"/><path d="m 370.49057,-254.13371 a 5.271389,5.271389 0 0 1 -2.69543,4.59912 5.271389,5.271389 0 0 1 -5.32976,-0.10422" transform="rotate(75)"/><path d="m 359.94893,-254.02421 a 5.271389,5.271389 0 0 1 10e-4,-0.2673" transform="rotate(75)"/><path d="m 376.96106,-278.28186 a 5.271389,5.271389 0 0 1 -2.69543,4.59912 5.271389,5.271389 0 0 1 -5.32976,-0.10422" transform="rotate(75)"/><path d="m 366.41942,-278.17235 a 5.271389,5.271389 0 0 1 3.34911,-5.01836 5.271389,5.271389 0 0 1 5.86572,1.41202" transform="rotate(75)"/><path d="m 362.25055,-258.48972 a 5.271389,5.271389 0 0 1 6.1997,0.19095" transform="rotate(75)"/><path d="m 357.02183,-214.65308 a 5.271389,5.271389 0 0 1 1.74089,3.06552" transform="rotate(75)"/></g></g></svg>