<svg xmlns="http://www.w3.org/2000/svg" viewBox="0 0 400 200"><g stroke="#0d1b30"><path fill="#f4d1bf" stroke="none" d="m 170,116.99981 c -5.52297,6e-5 -10.00014,4.47745 -9.99991,10.00043 V 297.00019 H 359.99977 V 176.99977 l -59.99995,-59.99996 z" paint-order="stroke fill markers" transform="translate(-60 -97)"/><path fill="none" stroke="#ffebdb" stroke-linecap="round" stroke-linejoin="round" stroke-width="5" d="M 169.99999,286.99999 170,244.3 m 0,-7.3 -1e-5,-3.83334 m 0,-11.64166 V 174.5 m 0,-10.05417 v -28.50416 c 0,-5.54 3.40167,-8.94167 8.94167,-8.94167 m 7.9375,0 h 24.9052 m 0,0 h 39.72188 m 7.97187,0 h 23.84688" paint-order="stroke fill markers" transform="translate(-60 -97)"/><path fill="#1c2422" fill-opacity=".2" stroke="none" d="m 250,177 c 0,0 31.82212,6.36442 31.82212,6.36442 0,0 18.17788,3.63558 18.17788,3.63558 0,0 0,-10 0,-10 0,0 -50,0 -50,0 z" transform="translate(0 -97)"/><path fill="#ffebdb" stroke="none" d="m 299.99982,116.99981 v 50.00005 a 10,10 0 0 0 10.00042,9.99991 h 49.99953 z" paint-order="stroke fill markers" transform="translate(-60 -97)"/><path fill="none" stroke="#acb6e4" stroke-dashoffset="24.9" stroke-linecap="round" stroke-linejoin="round" stroke-width="5" d="m 305.29149,129.69981 v 33.59588 c 5e-5,5.52298 2.88994,8.41264 8.41292,8.41241 h 3.96202" paint-order="stroke fill markers" transform="translate(-60 -97)"/><path fill="none" stroke="#fff" stroke-dashoffset="24.9" stroke-linecap="round" stroke-linejoin="round" stroke-width="5" d="m 305.29149,129.69981 v 33.59588 c 5e-5,5.52298 2.88994,8.41264 8.41292,8.41241 h 3.96202 m 6.62132,0 h 0.25785 m 10.32549,0 h 11.89952" paint-order="stroke fill markers" transform="translate(-60 -97)"/><path fill="none" stroke-linecap="round" stroke-width="10" d="M 229.63915,148.09899 H 290.3607" transform="translate(-60 -97)"/><path fill="none" stroke-linecap="round" stroke-width="8.5" d="M185.09794 168.09899c13.57385 0 27.1477 0 40.72155 0m13.57385 0c13.57385 0 27.1477 0 40.72155 0M186.09388 189.07938c6.61824 0 13.23647 0 19.85471 0m19.85471 0c13.23647 0 26.47295 0 39.70942 0m19.8547 0c19.85471 0 39.70942 0 59.56413 0M186.09388 208.58919c6.61824 0 13.23647 0 19.85471 0m19.85471 0c17.23647 0 34.47295 0 51.70942 0m19.8547 0c13.90314 0 27.80628 0 41.70942 0M186.09388 228.09899c13.2849 0 26.56981 0 39.85471 0m19.85471 0c21.82103 0 43.64207 0 65.4631 0m13.95573 0c3.95851 0 7.91702 0 11.87553 0M186.09388 247.60879c6.61824 0 13.23647 0 19.85471 0m19.85471 0c13.23647 0 26.47295 0 39.70942 0m19.8547 0c19.85471 0 39.70942 0 59.56413 0M186.09388 267.1186c13.23647 0 26.47295 0 39.70942 0m19.85471 0c6.61824 0 13.23647 0 19.85471 0m19.8547 0c13.23647 0 26.47295 0 39.70942 0" transform="translate(-60 -97)"/></g></svg>