<svg xmlns="http://www.w3.org/2000/svg" viewBox="0 0 400 200"><g transform="translate(0 -97)"><path fill="#ffebdb" d="m 114.60909,112.58871 c -6.94874,0 -12.54264,5.59391 -12.54264,12.54267 0,6.94878 5.5939,12.54268 12.54264,12.54268 h 131.80426 c 6.94877,0 12.54269,-5.5939 12.54269,-12.54268 0,-6.94876 -5.59392,-12.54267 -12.54269,-12.54267 h -62.48824 -12.76954 z m -1.01707,25.08593 c 6.94877,0 12.54326,5.59391 12.54326,12.54267 0,6.94877 -5.59449,12.54268 -12.54326,12.54268 h -11.46061 c -6.948774,0 -12.543242,5.53043 -12.543242,12.39995 v 0.37248 c 0,6.86952 5.594468,12.39995 12.543242,12.39995 h 5.36101 c 6.2563,0.71862 11.08466,6.00179 11.08466,12.4568 0,6.45501 -4.82836,11.73759 -11.08466,12.45623 h -6.78306 c -6.849949,0 -12.364545,5.51462 -12.364545,12.36456 0,6.73901 5.338437,12.18121 12.033825,12.35584 h -0.13461 c 6.94878,0 12.54269,5.59391 12.54269,12.54268 0,6.94876 -5.59391,12.54326 -12.54269,12.54326 h -5.519969 c -6.948771,0 -12.543239,5.52984 -12.543239,12.39936 v 0.37248 c 0,6.86952 5.594468,12.39995 12.543239,12.39995 h 92.355009 c 0.11635,0 0.23137,-0.006 0.34693,-0.009 h 73.00839 c 6.94871,0 12.54266,-5.52986 12.54266,-12.39938 v -0.37248 c 0,-6.86952 -5.59395,-12.39994 -12.54266,-12.39994 h -5.51941 c -6.94877,0 -12.54269,-5.59392 -12.54269,-12.54268 0,-6.94876 5.59392,-12.54267 12.54269,-12.54267 h 15.72819 c 6.70085,-0.16864 12.04547,-5.61352 12.04547,-12.35644 0,-6.84992 -5.51463,-12.36455 -12.36458,-12.36455 h -2.15924 c -6.22563,-0.74676 -11.02197,-6.01422 -11.02197,-12.44752 0,-6.45501 4.82836,-11.73818 11.08466,-12.4568 h 0.59736 c 6.94871,0 12.54325,-5.53043 12.54325,-12.39995 v -0.37248 c 0,-6.86952 -5.59454,-12.39995 -12.54325,-12.39995 h -21.39326 c -6.94877,0 -12.54325,-5.59391 -12.54325,-12.54268 0,-6.94876 5.59448,-12.54267 12.54325,-12.54267 z"/><rect width="96.9" height="163.1" x="133" y="119" fill="#c0695e" stroke="#80403c" stroke-dashoffset="24.9" stroke-linecap="round" stroke-linejoin="round" stroke-width="3.4" rx="6.2" ry="6.9"/><path fill="none" stroke="#a3574f" stroke-linecap="round" stroke-width="3.4" d="m 228.50572,257.8521 c -1.17361,0.46327 -2.80052,1.07339 -4.61372,1.66083 m -10.97853,1.89577 c -2.68868,-0.32761 -5.15482,-1.38321 -7.51035,-2.79642 -2.35554,-1.4132 -4.60045,-3.184 -6.8467,-4.94201 m -14.38857,-7.43105 c -2.49108,-0.20779 -4.892,0.26179 -7.24835,1.08673 -2.35633,0.82494 -4.66808,2.00523 -6.98082,3.21885 -2.31275,1.21363 -4.62649,2.4606 -6.98681,3.41888 m -7.26624,1.68681 c -1.94205,0.0458 -3.90195,-0.20084 -5.85302,-0.62702 -1.95106,-0.42615 -3.89329,-1.03186 -5.80003,-1.70424 -1.90674,-0.67237 -3.77798,-1.41141 -5.58706,-2.10423 -1.80907,-0.69283 -3.556,-1.33946 -5.2141,-1.827"/><path fill="none" stroke="#d9917a" stroke-dashoffset="24.9" stroke-linecap="round" stroke-linejoin="round" stroke-width="3.4" d="m 141.79274,148.53094 v -22.34868 h 58.60452"/><path fill="none" stroke="#d9917a" stroke-linecap="round" stroke-width=".7" d="m 224.20947,260.22992 c 0,0.67374 0,1.34773 0,2.02199" transform="translate(-948 -1095) scale(4.8584)"/><path fill="#a3574f" d="m 183.2819,251.88388 c -9.11584,-0.27869 -17.09851,8.58532 -26.32928,8.83406 -8.12057,0.21883 -16.96786,-4.24985 -23.58612,-6.22086 v 20.45306 c 0,3.82803 2.74657,6.90956 6.15819,6.90956 h 84.58154 c 3.41163,0 6.1582,-3.08153 6.1582,-6.90956 v -12.12202 c -0.72717,0.30298 -12.46031,5.14013 -18.61791,4.28126 -10.36228,-1.44534 -17.06442,-14.1642 -27.47866,-15.16922 -0.29649,-0.0286 -0.59189,-0.0473 -0.88596,-0.0563 z"/><rect width="96.9" height="163.1" x="133" y="119" fill="none" stroke="#80403c" stroke-dashoffset="24.9" stroke-linecap="round" stroke-linejoin="round" stroke-width="3.4" rx="6.2" ry="6.9"/><path fill="none" stroke="#a3574f" stroke-linecap="round" stroke-width="2.2" d="m 209.30672,242.85021 c 0,-21.39481 0,-42.78942 0,-64.18382" transform="translate(-102 -123) scale(1.5067)"/><path fill="none" stroke="#a3574f" stroke-linecap="round" stroke-width="2.2" d="m 187.56138,201.81465 c 0,-5.37809 0,-10.75597 0,-16.13364" transform="translate(-101 -80) scale(1.5067)"/><path fill="none" stroke="#a3574f" stroke-linecap="round" stroke-width="2.2" d="m 187.56138,201.81465 c 0,-6.7794 0,-13.55859 0,-20.33758" transform="translate(-89 -112) scale(1.5067)"/><path fill="none" stroke="#a3574f" stroke-linecap="round" stroke-width="2.2" d="m 187.56138,201.81465 c 0,-5.37809 0,-10.75597 0,-16.13364" transform="translate(-89 -61) scale(1.5067)"/><path fill="none" stroke="#a3574f" stroke-linecap="round" stroke-width="2.2" d="m 187.56138,181.63576 c 0,-0.0531 0,-0.106 0,-0.15869" transform="translate(-89 -124) scale(1.5067)"/><path fill="none" stroke="#a3574f" stroke-linecap="round" stroke-width="2.2" d="m 187.56138,201.81465 c 0,-2.57547 0,-5.15072 0,-7.72577" transform="translate(-101 -131) scale(1.5067)"/><path fill="none" stroke="#a3574f" stroke-linecap="round" stroke-width="2.2" d="m 187.56138,201.81465 c 0,-6.7794 0,-13.55859 0,-20.33758" transform="rotate(180 222 252) scale(1.5067)"/><path fill="none" stroke="#a3574f" stroke-linecap="round" stroke-width="2.2" d="m 187.56138,201.81465 c 0,-5.37809 0,-10.75597 0,-16.13364" transform="rotate(180 222 223) scale(1.5067)"/><path fill="none" stroke="#a3574f" stroke-linecap="round" stroke-width="2.2" d="m 187.56138,181.63576 c 0,-0.0531 0,-0.106 0,-0.15869" transform="rotate(180 222 258) scale(1.5067)"/><g fill="none" stroke-linecap="round" stroke-linejoin="round" stroke-width="2.2"><path stroke="#626262" d="m 161.72721,215.52492 h 11.76807 v 4.09207" transform="matrix(-1.5067 0 0 1.5067 407 -131)"/><path stroke="#bababa" d="m 161.71878,214.33313 h 11.76807" transform="matrix(-1.5067 0 0 1.5067 407 -131)"/></g><path fill="none" stroke="#80403c" stroke-linecap="round" stroke-width="2.2" d="m 187.56138,210.22252 c 0,-5.09786 0,-10.19545 0,-15.29285" transform="translate(-101 -36) scale(1.5067)"/><path fill="none" stroke="#80403c" stroke-linecap="round" stroke-width="2.2" d="m 187.56138,210.22252 c 0,-2.15508 0,-4.30994 0,-6.46458" transform="translate(-120 -36) scale(1.5067)"/><path fill="none" stroke="#80403c" stroke-linecap="round" stroke-width="2.2" d="m 187.56138,210.22252 c 0,-2.29523 0,-4.59019 0,-6.88498" transform="translate(-89 -36) scale(1.5067)"/><path fill="none" stroke="#80403c" stroke-linecap="round" stroke-width="2.2" d="m 187.56138,206.43898 c 0,-0.0531 0,-0.106 0,-0.15868" transform="translate(-89 -48) scale(1.5067)"/><path fill="none" stroke="#80403c" stroke-linecap="round" stroke-width="2.2" d="m 187.56138,210.22252 c 0,-1.17416 0,-2.3481 0,-3.52183" transform="translate(-70 -36) scale(1.5067)"/><path fill="none" stroke="#80403c" stroke-linecap="round" stroke-width="2.2" d="m 187.56138,210.22252 c 0,-0.75376 0,-1.50731 0,-2.26064" transform="translate(-139 -36) scale(1.5067)"/><path fill="#262626" stroke="#626262" stroke-dashoffset="111.3" stroke-linecap="round" stroke-linejoin="round" stroke-width="3.4" d="m 144.34949,231.39096 c -1.00321,0 -1.81055,-0.80733 -1.81055,-1.81054 v -9.26855 a 6.0807751,6.0807751 0 0 1 -2.90044,-5.17737 6.0807751,6.0807751 0 0 1 6.08048,-6.08048 6.0807751,6.0807751 0 0 1 6.0811,6.08048 6.0807751,6.0807751 0 0 1 -2.96972,5.21633 v 9.22959 c 0,1.00321 -0.80732,1.81054 -1.81054,1.81054 z"/><rect width="37.9" height="20.6" x="230" y="192" fill="none" rx="17" ry="17"/><rect width="47.6" height="15.9" x="236" y="180" fill="#b3b3b3" stroke="#848484" stroke-dashoffset="111.3" stroke-linecap="round" stroke-linejoin="round" stroke-width="3" rx="7.9" ry="7.9"/><circle cx="275.9" cy="188.2" r="3.4" fill="#b3b3b3" stroke="#848484" stroke-dashoffset="111.3" stroke-linecap="round" stroke-linejoin="round" stroke-width="3"/><text x="245" y="192" fill="#333" stroke-width=".3" font-family="sans-serif" font-size="12.3" font-weight="400" letter-spacing="0" style="line-height:1.25" word-spacing="0"><tspan x="245" y="192">Bob</tspan></text></g></svg>
