<svg xmlns="http://www.w3.org/2000/svg" viewBox="0 0 400 200"><g transform="translate(-4 -167) scale(1.27317)"><path fill="#ffebdb" d="m 140,277 c 0,0 0,-80 0,-80 0,0 20,-20 20,-20 0,0 0,-40 0,-40 0,0 20,0 20,0 0,0 0,20 0,20 0,0 20,-20 20,-20 0,0 53.68646,53.68646 53.68646,53.68646 0,0 6.31354,6.31354 6.31354,6.31354 0,0 0,80 0,80 0,0 -120,0 -120,0 z" transform="translate(-10 27) scale(.84848)"/><path fill="#4b2623" fill-opacity=".2" d="m 100,197 c 0,0 120,10 120,10 0,0 0,-10 0,-10 0,0 -120,0 -120,0 z" transform="translate(24 27) scale(.84848)"/><path fill="#edbca5" d="m 120,137 c 0,0 20,0 20,0 0,0 0,20 0,20 0,0 -20,20 -20,20 0,0 0,-40 0,-40 z" transform="translate(24 27) scale(.84848)"/><path fill="#d78161" d="m 377.95312,529.13477 v 18.89648 h 28.34571 c 5.23464,0 9.44922,-4.21457 9.44922,-9.44922 0,-5.23464 -4.21458,-9.44726 -9.44922,-9.44726 z" transform="matrix(-.2245 0 0 .2245 228 25)"/><path fill="#f8dac6" d="m 377.95312,548.03125 v 18.89844 h 9.44922 c 5.23465,0 9.44727,-4.21458 9.44727,-9.44922 0,-5.23465 -4.21262,-9.44922 -9.44727,-9.44922 z" transform="matrix(-.2245 0 0 .2245 228 25)"/><path fill="#fcba8c" d="m 377.95312,566.92969 v 18.89648 h 28.34571 c 5.23464,0 9.44922,-4.21262 9.44922,-9.44726 0,-5.23465 -4.21458,-9.44922 -9.44922,-9.44922 z" transform="matrix(-.2245 0 0 .2245 228 25)"/><path fill="#dc8f72" d="m 100,252 v 5.00021 h 2.5001 c 1.385,0 2.49959,-1.11511 2.49959,-2.50011 0,-1.385 -1.11459,-2.5001 -2.49959,-2.5001 z" transform="matrix(-.84848 0 0 .84848 228 -58)"/><path fill="#d78161" d="m 377.95312,529.13477 v 18.89648 h 28.34571 c 5.23464,0 9.44922,-4.21457 9.44922,-9.44922 0,-5.23464 -4.21458,-9.44726 -9.44922,-9.44726 z" transform="matrix(-.2245 0 0 .2245 296 76)"/><path fill="#f8dac6" d="m 377.95312,548.03125 v 18.89844 h 9.44922 c 5.23465,0 9.44727,-4.21458 9.44727,-9.44922 0,-5.23465 -4.21262,-9.44922 -9.44727,-9.44922 z" transform="matrix(-.2245 0 0 .2245 296 76)"/><path fill="#edbca5" d="m 377.95312,566.92969 v 18.89648 h 28.34571 c 5.23464,0 9.44922,-4.21262 9.44922,-9.44726 0,-5.23465 -4.21458,-9.44922 -9.44922,-9.44922 z" transform="matrix(-.2245 0 0 .2245 296 76)"/><path fill="#fcba8c" d="m 377.95312,642.51953 v 18.89844 h 28.34571 c 5.23464,0 9.44922,-4.21457 9.44922,-9.44922 0,-5.23465 -4.21458,-9.44922 -9.44922,-9.44922 z" transform="matrix(-.2245 0 0 .2245 296 76)"/><path fill="#d78161" d="m 377.95312,661.41797 v 18.89648 h 9.44922 c 5.23465,0 9.44727,-4.21457 9.44727,-9.44922 0,-5.23464 -4.21262,-9.44726 -9.44727,-9.44726 z" transform="matrix(-.2245 0 0 .2245 296 76)"/><path fill="#edbca5" d="M 100,262.0003 V 267 h 2.5001 c 1.385,0 2.49959,-1.11511 2.49959,-2.50011 0,-1.385 -1.11459,-2.49959 -2.49959,-2.49959 z" transform="matrix(-.84848 0 0 .84848 296 -7)"/><path fill="#dc8f72" d="m 100,252 v 5.00021 h 2.5001 c 1.385,0 2.49959,-1.11511 2.49959,-2.50011 0,-1.385 -1.11459,-2.5001 -2.49959,-2.5001 z" transform="matrix(-.84848 0 0 .84848 296 -7)"/><g transform="translate(24 27) scale(.84848)"><rect width="15" height="5" x="135" y="212" fill="#fcba8c" ry="2.4"/><rect width="10" height="5" x="135" y="207" fill="#edbca5" ry="2.5"/></g><path fill="#c0695e" stroke="#80403c" stroke-dashoffset="24.9" stroke-linecap="round" stroke-linejoin="round" stroke-width="2.5" d="m 177.09473,236.85138 h 16.96955 v 25.45432 l -16.96955,-7.05301 z"/><path fill="none" stroke="#d9917a" stroke-dashoffset="24.9" stroke-linecap="round" stroke-linejoin="round" stroke-width="2.5" d="m 180.66639,240.95831 v -3.903 l 10.23476,3.52651"/><path fill="none" stroke="#d9917a" stroke-linecap="round" stroke-width="3" d="m 224.20947,256.07364 c 0,0.67374 0,1.34773 0,2.02199" transform="translate(-10 27) scale(.84848)"/><path fill="none" d="m 109.09145,249.57838 v 4.24257 h 2.12128 c 1.17514,0 2.12084,-0.94615 2.12084,-2.12128 0,-1.17515 -0.9457,-2.12129 -2.12084,-2.12129 z"/><path fill="#d78161" d="m 377.95312,529.13477 v 18.89648 h 28.34571 c 5.23464,0 9.44922,-4.21457 9.44922,-9.44922 0,-5.23464 -4.21458,-9.44726 -9.44922,-9.44726 z" transform="translate(24 110) scale(.2245)"/><path fill="#f8dac6" d="m 377.95312,548.03125 v 18.89844 h 9.44922 c 5.23465,0 9.44727,-4.21458 9.44727,-9.44922 0,-5.23465 -4.21262,-9.44922 -9.44727,-9.44922 z" transform="translate(24 110) scale(.2245)"/><path fill="#edbca5" d="m 377.95312,566.92969 v 18.89648 h 28.34571 c 5.23464,0 9.44922,-4.21262 9.44922,-9.44726 0,-5.23465 -4.21458,-9.44922 -9.44922,-9.44922 z" transform="translate(24 110) scale(.2245)"/><path fill="#fcba8c" d="m 377.95312,642.51953 v 18.89844 h 28.34571 c 5.23464,0 9.44922,-4.21457 9.44922,-9.44922 0,-5.23465 -4.21458,-9.44922 -9.44922,-9.44922 z" transform="translate(24 110) scale(.2245)"/><path fill="#d78161" d="m 377.95312,661.41797 v 18.89648 h 9.44922 c 5.23465,0 9.44727,-4.21457 9.44727,-9.44922 0,-5.23464 -4.21262,-9.44726 -9.44727,-9.44726 z" transform="translate(24 110) scale(.2245)"/><path fill="#edbca5" d="M 100,262.0003 V 267 h 2.5001 c 1.385,0 2.49959,-1.11511 2.49959,-2.50011 0,-1.385 -1.11459,-2.49959 -2.49959,-2.49959 z" transform="translate(24 27) scale(.84848)"/><path fill="#dc8f72" d="m 100,252 v 5.00021 h 2.5001 c 1.385,0 2.49959,-1.11511 2.49959,-2.50011 0,-1.385 -1.11459,-2.5001 -2.49959,-2.5001 z" transform="translate(24 27) scale(.84848)"/><path fill="#d78161" d="M219.99995 267.00031V272h-7.4998c-1.385 0-2.50011-1.1151-2.50011-2.5001 0-1.385 1.11511-2.49959 2.50011-2.49959zM220 241.99969v5.00022h-2.50011c-1.385 0-2.49959-1.11511-2.49959-2.50011 0-1.385 1.11459-2.50011 2.49959-2.50011z" transform="translate(24 27) scale(.84848)"/><path fill="#edbca5" d="M 220,237.00031 V 242 h -7.4998 c -1.385,0 -2.50011,-1.11459 -2.50011,-2.4996 0,-1.38499 1.11511,-2.5001 2.50011,-2.5001 z" transform="translate(24 27) scale(.84848)"/><path fill="#fcba8c" d="m 220,252 v 5.00021 h -7.4998 c -1.385,0 -2.50011,-1.11511 -2.50011,-2.50011 0,-1.385 1.11511,-2.5001 2.50011,-2.5001 z" transform="translate(24 27) scale(.84848)"/><path fill="#edbca5" d="m 220.00009,262.00006 v 4.9997 h -2.5001 c -1.385,0 -2.49959,-1.11511 -2.49959,-2.50011 0,-1.385 1.11459,-2.49959 2.49959,-2.49959 z" transform="translate(24 27) scale(.84848)"/><path fill="#fcba8c" d="M 220,271.99979 V 277 h -2.5001 c -1.385,0 -2.49959,-1.11511 -2.49959,-2.50011 0,-1.385 1.11459,-2.5001 2.49959,-2.5001 z" transform="translate(24 27) scale(.84848)"/><path fill="#d78161" d="M219.99995 267.00031V272h-7.4998c-1.385 0-2.50011-1.1151-2.50011-2.5001 0-1.385 1.11511-2.49959 2.50011-2.49959zM220 241.99969v5.00022h-2.50011c-1.385 0-2.49959-1.11511-2.49959-2.50011 0-1.385 1.11459-2.50011 2.49959-2.50011z" transform="matrix(-.84848 0 0 .84848 296 -7)"/><path fill="#edbca5" d="M 220,237.00031 V 242 h -7.4998 c -1.385,0 -2.50011,-1.11459 -2.50011,-2.4996 0,-1.38499 1.11511,-2.5001 2.50011,-2.5001 z" transform="matrix(-.84848 0 0 .84848 296 -7)"/><path fill="#fcba8c" d="m 220,252 v 5.00021 h -7.4998 c -1.385,0 -2.50011,-1.11511 -2.50011,-2.50011 0,-1.385 1.11511,-2.5001 2.50011,-2.5001 z" transform="matrix(-.84848 0 0 .84848 296 -7)"/><path fill="#edbca5" d="m 220.00009,262.00006 v 4.9997 h -2.5001 c -1.385,0 -2.49959,-1.11511 -2.49959,-2.50011 0,-1.385 1.11459,-2.49959 2.49959,-2.49959 z" transform="matrix(-.84848 0 0 .84848 296 -7)"/><path fill="#fcba8c" d="M 220,271.99979 V 277 h -2.5001 c -1.385,0 -2.49959,-1.11511 -2.49959,-2.50011 0,-1.385 1.11459,-2.5001 2.49959,-2.5001 z" transform="matrix(-.84848 0 0 .84848 296 -7)"/><path fill="#4d4d4d" stroke="#4b2623" stroke-width="3" d="m 139.49742,238.5 c 39.93277,0 79.33531,0 119.00258,0" transform="translate(-8 26) scale(.84848)"/><path fill="#4b2623" fill-opacity=".2" d="m 100,197 c 0,0 120,10 120,10 0,0 0,-10 0,-10 0,0 -120,0 -120,0 z" transform="translate(24 61) scale(.84848)"/><path fill="#d78161" d="m 377.95312,529.13477 v 18.89648 h 18.34571 c 5.23464,0 -18.34571,-18.89648 -18.34571,-18.89648 z" transform="matrix(.2245 0 0 -.2245 41 296)"/><path fill="#fcba8c" d="m 377.95312,548.03125 v 18.89844 h 9.44922 c 5.23465,0 9.44727,-4.21458 9.44727,-9.44922 0,-5.23465 -4.21262,-9.44922 -9.44727,-9.44922 z" transform="matrix(.2245 0 0 -.2245 41 296)"/><path fill="#f8dac6" d="m 377.95312,566.92969 v 18.89648 h 28.34571 c 5.23464,0 9.44922,-4.21262 9.44922,-9.44726 0,-5.23465 -4.21458,-9.44922 -9.44922,-9.44922 z" transform="matrix(.2245 0 0 -.2245 41 296)"/><path fill="#fcba8c" d="m 377.95312,642.51953 v 18.89844 h 28.34571 c 5.23464,0 9.44922,-4.21457 9.44922,-9.44922 0,-5.23465 -4.21458,-9.44922 -9.44922,-9.44922 z" transform="matrix(.2245 0 0 -.2245 41 296)"/><path fill="#d78161" d="m 377.95312,661.41797 v 18.89648 h 9.44922 c 5.23465,0 9.44727,-4.21457 9.44727,-9.44922 0,-5.23464 -4.21262,-9.44726 -9.44727,-9.44726 z" transform="matrix(.2245 0 0 -.2245 41 296)"/><path fill="#f8dac6" d="M 100,262.0003 V 267 h 2.5001 c 1.385,0 2.49959,-1.11511 2.49959,-2.50011 0,-1.385 -1.11459,-2.49959 -2.49959,-2.49959 z" transform="matrix(.84848 0 0 -.84848 41 379)"/><path fill="#dc8f72" d="m 100,252 v 5.00021 h 2.5001 c 1.385,0 2.49959,-1.11511 2.49959,-2.50011 0,-1.385 -1.11459,-2.5001 -2.49959,-2.5001 z" transform="matrix(.84848 0 0 -.84848 41 379)"/><path fill="#d9917a" fill-opacity=".3" d="m 100,197 c 0,0 120,0 120,0 0,0 -60,-60 -60,-60 0,0 -60,60 -60,60 z" transform="translate(24 27) scale(.84848)"/><rect width="8.5" height="4.2" x="152" y="237" fill="#edbca5" ry="2.1"/><rect width="8.5" height="4.2" x="156" y="241" fill="#fcba8c" ry="2.1"/><path fill="#4d4d4d" stroke="#4b2623" stroke-linecap="round" stroke-linejoin="round" stroke-width="3" d="m 138.5,198.5 c 39.85234,0 80.00026,0 120,0" transform="translate(-8 26) scale(.84848)"/><path fill="none" stroke="#4b2623" stroke-linecap="round" stroke-width="3" d="M225 202c-1.66667-1.66667-3.33333-3.33334-5-5M100 197c-1.666402 1.6664-3.33307 3.33307-5.000001 5" transform="translate(24 27) scale(.84848)"/><rect width="8.5" height="4.2" x="143" y="178" fill="#d78161" ry="2.1"/><rect width="8.5" height="4.2" x="147" y="173" fill="#d78161" ry="2.1"/><path fill="#80403c" d="m 160.00004,143.51907 -3.62258,3.62258 c 0.38342,0.38332 0.91373,0.61955 1.5013,0.61955 h 4.24257 c 0.58757,0 1.11797,-0.23623 1.50129,-0.61955 z m -8.48469,8.48469 -3.62258,3.62258 c 0.38343,0.38332 0.91373,0.61955 1.5013,0.61955 h 4.24257 c 1.17513,0 2.12084,-0.94571 2.12084,-2.12085 0,-1.17513 -0.94571,-2.12128 -2.12084,-2.12128 z m 14.8481,0 c -1.17514,0 -2.12129,0.94615 -2.12129,2.12128 0,1.17514 0.94615,2.12085 2.12129,2.12085 h 4.24256 c 0.58757,0 1.11788,-0.23623 1.50131,-0.61955 l -3.62258,-3.62258 z m -23.33279,8.48469 -3.62258,3.62258 c 0.38343,0.38343 0.91372,0.62 1.50129,0.62 h 4.24213 c 1.17515,0 2.12128,-0.94615 2.12128,-2.12129 0,-1.17514 -0.94613,-2.12129 -2.12128,-2.12129 z m 31.81748,0 c -1.17513,0 -2.12084,0.94615 -2.12084,2.12129 0,1.17514 0.94571,2.12129 2.12084,2.12129 h 4.24257 c 0.58757,0 1.11787,-0.23657 1.5013,-0.62 l -3.62259,-3.62258 z m -40.30217,8.4847 -3.62259,3.62258 c 0.38343,0.38342 0.91373,0.61998 1.5013,0.61998 h 4.24213 c 1.17514,0 2.12128,-0.94613 2.12128,-2.12128 0,-1.17514 -0.94614,-2.12128 -2.12128,-2.12128 z m 48.78731,0 c -1.17514,0 -2.1213,0.94614 -2.1213,2.12128 0,1.17515 0.94616,2.12128 2.1213,2.12128 h 4.24212 c 0.58758,0 1.11787,-0.23656 1.5013,-0.61998 l -3.62258,-3.62258 z m -57.272,8.48469 -3.62259,3.62258 c 0.38331,0.38329 0.91341,0.61998 1.50086,0.61998 h 4.24257 c 1.17513,0 2.12128,-0.94614 2.12128,-2.12128 0,-1.17514 -0.94615,-2.12128 -2.12128,-2.12128 z m 65.75669,0 c -1.17514,0 -2.12128,0.94614 -2.12128,2.12128 0,1.17514 0.94614,2.12128 2.12128,2.12128 h 4.24212 c 0.58757,0 1.11787,-0.23655 1.5013,-0.61998 l -3.62257,-3.62258 z m -74.24183,8.48513 -3.62214,3.62214 c 0.38341,0.3833 0.91341,0.62 1.50086,0.62 h 4.24256 c 1.17515,0 2.12128,-0.94616 2.12128,-2.12129 0,-1.17515 -0.94613,-2.12085 -2.12128,-2.12085 z m 82.72652,0 c -1.17514,0 -2.12128,0.9457 -2.12128,2.12085 0,1.17513 0.94614,2.12129 2.12128,2.12129 h 4.24256 c 0.58746,0 1.11756,-0.2367 1.50087,-0.62 l -3.62215,-3.62214 z"/><path fill-opacity=".3" d="m 178.36589,261.02772 7.43664,-22.92593 -7.43664,-0.11033 z"/><path fill="none" stroke="#80403c" stroke-dashoffset="24.9" stroke-linecap="round" stroke-linejoin="round" stroke-width="2.5" d="M177.09474 236.85138H194.064285V262.305695H177.09474z"/><path fill="none" stroke="#4b2623" stroke-linecap="round" stroke-linejoin="round" stroke-width="3" d="m 140,277 c 0,0 0,-80 0,-80 0,0 20,-20 20,-20 0,0 0,-40 0,-40 0,0 20,0 20,0 0,0 0,20 0,20 0,0 20,-20 20,-20 0,0 53.68646,53.68646 53.68646,53.68646 0,0 6.31354,6.31354 6.31354,6.31354 0,0 0,80 0,80 0,0 -120,0 -120,0 z" transform="translate(-10 27) scale(.84848)"/><path fill="none" stroke="#4b2623" stroke-linecap="round" stroke-width="3" d="m 120,177 c 6.66693,-6.66693 13.3336,-13.3336 20,-20" transform="translate(24 27) scale(.84848)"/><path fill="#4b2623" fill-opacity=".2" d="m 140.00024,156.99996 c 0,0 -20.00034,8.70407 -20.00034,8.70407 0,0 1e-4,11.2956 1e-4,11.2956 0,0 20.00024,-19.99967 20.00024,-19.99967" transform="translate(24 27) scale(.84848)"/><path fill="#fc0" stroke="#3549a5" stroke-linecap="round" stroke-width="2.9" d="m 190.50931,280.00123 -1e-5,-7.14351 -1e-5,-8.5532"/><g transform="translate(24 27) scale(.84838)"><rect width="20" height="20" x="120" y="207" fill="#b7bec8" rx="0" ry="0"/><path fill="#d0d6da" d="M139.58188 207.00016l-11.5471 19.99981h4.22558l7.73958-13.40538v-6.59443zM121.49358 207.00016l-1.49345 2.58692v15.56752l10.48153-18.15444z"/><rect width="20" height="20" x="120" y="207" fill="none" stroke="#80403c" stroke-dashoffset="24.9" stroke-linecap="round" stroke-linejoin="round" stroke-width="3" rx="0" ry="0"/><path fill="#fff" stroke="#fefefe" stroke-dashoffset="24.9" stroke-linecap="round" stroke-linejoin="round" stroke-width="3" d="m 124.8877,211.8877 h 10.26497 -10.26497 v 2.26621"/><path fill="#fff" stroke="#fefefe" stroke-linecap="round" stroke-width="3" d="m 164.8877,256.72498 c 0,0.69151 0,1.38703 0,2.08077" transform="translate(-40 -38)"/><rect width="20" height="20" x="180" y="207" fill="#b7bec8" rx="0" ry="0"/><path fill="#d0d6da" d="M199.72943 207.00013l-11.5471 19.99981h4.22558l7.73958-13.40538v-6.59443zM181.64113 207.00013l-1.49345 2.58692v15.56752l10.48153-18.15444z"/><rect width="20" height="20" x="180" y="207" fill="none" stroke="#80403c" stroke-dashoffset="24.9" stroke-linecap="round" stroke-linejoin="round" stroke-width="3" rx="0" ry="0"/><path fill="#fff" stroke="#fefefe" stroke-dashoffset="24.9" stroke-linecap="round" stroke-linejoin="round" stroke-width="3" d="m 185.03525,211.88767 h 10.26497 -10.26497 v 2.26621"/><path fill="#fff" stroke="#fefefe" stroke-linecap="round" stroke-width="3" d="m 164.8877,256.72498 c 0,-0.0122 0,-0.0242 0,-0.0359" transform="translate(20 -38)"/><rect width="20" height="20" x="120" y="247" fill="#b7bec8" rx="0" ry="0"/><path fill="#d0d6da" d="M139.72944 247.00013l-11.5471 19.99981h4.22559l7.73958-13.40538v-6.59443zM121.64114 247.00013l-1.49345 2.58692v15.56752l10.48153-18.15444z"/><rect width="20" height="20" x="120" y="247" fill="none" stroke="#80403c" stroke-dashoffset="24.9" stroke-linecap="round" stroke-linejoin="round" stroke-width="3" rx="0" ry="0"/><path fill="#fff" stroke="#fefefe" stroke-dashoffset="24.9" stroke-linecap="round" stroke-linejoin="round" stroke-width="3" d="m 125.03527,251.88767 h 10.26497 -10.26497 v 2.26621"/></g><path fill="#fc0" stroke="#3549a5" stroke-linecap="round" stroke-width="2.9" d="M180.85994 280.00121V264.30452M185.68461 259.47985l4.82468 4.82469 5.07579 5.07578M185.68461 259.47985l-4.82469 4.82469-5.07578 5.07578"/></g></svg>