<svg xmlns="http://www.w3.org/2000/svg" viewBox="0 0 400 200"><g transform="translate(0 -97)"><path fill="none" stroke="#442c9d" stroke-linecap="round" stroke-linejoin="round" stroke-width="3" d="m 143.47293,215.50471 c 0,0 -4.90775,0.86151 -4.90775,0.86151 0,0 1.10206,3.63926 1.10206,3.63926" transform="rotate(-75 91 330) scale(1.65103)"/><path fill="none" stroke="#f58225" stroke-linecap="round" stroke-linejoin="round" stroke-width="3" d="m 146.02695,216.51751 c 0,0 -6.84842,0.95358 -6.84842,0.95358 0,0 -4.76789,-3.20749 -4.76789,-3.20749" transform="translate(-87 -177) scale(1.65103)"/><rect width="17.5" height="24.6" x="148" y="172" fill="#feda00" rx="8.1" ry="5.5"/><path fill="none" stroke="#ffe758" stroke-linecap="round" stroke-width="3" d="m 133.60452,223.27104 c 0,3.16616 0,6.33258 0,9.49927" transform="translate(-57 -188) scale(1.63355)"/><circle cx="156.7" cy="165.3" r="8.3" fill="#f58225"/><path fill="#f7984c" d="m 156.67038,156.99976 a 8.3013017,8.3013017 0 0 0 -8.30147,8.30146 8.3013017,8.3013017 0 0 0 3.73795,6.92718 8.3013017,8.3013017 0 0 0 2.83468,0.50987 8.3013017,8.3013017 0 0 0 8.30147,-8.30147 8.3013017,8.3013017 0 0 0 -3.73625,-6.92548 8.3013017,8.3013017 0 0 0 -2.83638,-0.51156 z"/><path fill="#feda00" stroke="#feda00" stroke-dashoffset="24.9" stroke-linecap="round" stroke-linejoin="round" stroke-width="4.4" d="m 149.37503,161.06506 a 7.5525165,7.5525165 0 0 1 7.29517,-5.59779 7.5525165,7.5525165 0 0 1 7.29517,5.59779"/><path fill="none" stroke="#f58225" stroke-linecap="round" stroke-linejoin="round" stroke-width="3" d="m 144.76279,214.16515 c 0,0 -5.58426,3.30594 -5.58426,3.30594 0,0 -3.19861,-5.23923 -3.19861,-5.23923" transform="rotate(-26 -168 435) scale(1.65103)"/><path fill="none" stroke="#442c9d" stroke-linecap="round" stroke-linejoin="round" stroke-width="3" d="m 144.3195,219.07185 c 0,0 -5.50525,1.49496 -5.50525,1.49496 0,0 1.37286,4.12964 1.37286,4.12964" transform="rotate(-75 91 330) scale(1.65103)"/><path fill="none" stroke="#d2b300" stroke-linecap="round" stroke-width="2.7" d="m 141.56347,207.69874 c 3.43932,0 6.87842,0 10.31733,0" transform="translate(-89 -185) scale(1.6655)"/><path fill="none" stroke="#a3514c" stroke-linecap="round" stroke-linejoin="round" stroke-width="3" d="m 140,277 c 0,0 0,-79.99999 0,-79.99999" transform="rotate(90 277 282) scale(1.63355)"/><path fill="none" stroke="#80403c" stroke-linecap="round" stroke-linejoin="round" stroke-width="3" d="m 140,277 c 0,0 0,-64.125 0,-64.125" transform="translate(-45 -172) scale(1.63355)"/><path fill="none" stroke="#80403c" stroke-linecap="round" stroke-linejoin="round" stroke-width="3" d="m 140,277 c 0,0 0,-53.54166 0,-53.54166" transform="translate(-19 -172) scale(1.63355)"/><path fill="none" stroke="#4b2623" stroke-linecap="round" stroke-linejoin="round" stroke-width="3" d="m 140,277 c 0,0 0,-48.25 0,-48.25" transform="translate(6 -172) scale(1.63355)"/><path fill="none" stroke="#a3514c" stroke-linecap="round" stroke-linejoin="round" stroke-width="3" d="m 140,277 c 0,0 0,-53.54166 0,-53.54166" transform="translate(43 -172) scale(1.63355)"/><rect width="228.7" height="16.3" x="90" y="281" fill="gray" rx="8.4" ry="11"/><path fill="none" stroke="#935a55" stroke-linecap="round" stroke-linejoin="round" stroke-width="3" d="m 140,277 c 0,0 0,-69.41666 0,-69.41666" transform="translate(-96 -172) scale(1.63355)"/><path fill="#ffebdb" d="m 140,277 c 0,0 0,-42.95833 0,-42.95833 0,0 5,0.45833 5,0.45833 0,0 12.64757,2.49997 12.64757,2.49997 0,0 5,5 5,5 0,0 7.5,2.5 7.5,2.5 0,0 17.35243,2.50003 17.35243,2.50003 0,0 4.76222,5.01106 4.76222,5.01106 0,0 8.01109,2.76225 8.01109,2.76225 0,0 7.22669,2.22669 7.22669,2.22669 0,0 -0.24563,4.9882 -0.24563,4.9882 0,0 0.24563,5.0118 0.24563,5.0118 0,0 7.5,5 7.5,5 0,0 0,5 0,5 0,0 -75,0 -75,0 z" transform="translate(-122 -172) scale(1.63355)"/><rect width="32.7" height="32.7" x="139" y="232" fill="#b7bec8" rx="0" ry="0"/><path fill="#d0d6da" d="M171.23549 231.65824l-18.86275 32.67067h6.90271l12.64298-21.89834v-10.77233zM141.68736 231.65824l-2.43962 4.22586v25.43031l17.12209-29.65617z"/><path fill="#fff" stroke="#fefefe" stroke-dashoffset="24.9" stroke-linecap="round" stroke-linejoin="round" stroke-width="4.9" d="m 147.23185,239.64227 h 16.76832 -16.76832 v 3.70198"/><path fill="#fff" stroke="#fefefe" stroke-linecap="round" stroke-width="3" d="m 164.8877,256.72498 c 0,-0.0122 0,-0.0242 0,-0.0359" transform="translate(-122 -168) scale(1.63355)"/><path fill="none" d="m 106.33566,256.16084 v 8.16811 h 4.08404 c 2.26246,0 4.0832,-1.82158 4.0832,-4.08405 0,-2.26247 -1.82074,-4.08406 -4.0832,-4.08406 z"/><path fill="#d78161" d="m 377.95312,529.13477 v 18.89648 h 28.34571 c 5.23464,0 9.44922,-4.21457 9.44922,-9.44922 0,-5.23464 -4.21458,-9.44726 -9.44922,-9.44726 z" transform="translate(-57 -13) scale(.43221)"/><path fill="#f8dac6" d="m 377.95312,548.03125 v 18.89844 h 9.44922 c 5.23465,0 9.44727,-4.21458 9.44727,-9.44922 0,-5.23465 -4.21262,-9.44922 -9.44727,-9.44922 z" transform="translate(-57 -13) scale(.43221)"/><path fill="#edbca5" d="m 377.95312,566.92969 v 18.89648 h 28.34571 c 5.23464,0 9.44922,-4.21262 9.44922,-9.44726 0,-5.23465 -4.21458,-9.44922 -9.44922,-9.44922 z" transform="translate(-57 -13) scale(.43221)"/><path fill="#fcba8c" d="m 377.95312,642.51953 v 18.89844 h 28.34571 c 5.23464,0 9.44922,-4.21457 9.44922,-9.44922 0,-5.23465 -4.21458,-9.44922 -9.44922,-9.44922 z" transform="translate(-57 -13) scale(.43221)"/><path fill="#d78161" d="m 377.95312,661.41797 v 18.89648 h 9.44922 c 5.23465,0 9.44727,-4.21457 9.44727,-9.44922 0,-5.23464 -4.21262,-9.44726 -9.44727,-9.44726 z" transform="translate(-57 -13) scale(.43221)"/><path fill="#edbca5" d="M 100,262.0003 V 267 h 2.5001 c 1.385,0 2.49959,-1.11511 2.49959,-2.50011 0,-1.385 -1.11459,-2.49959 -2.49959,-2.49959 z" transform="translate(-57 -172) scale(1.63355)"/><path fill="#dc8f72" d="m 100,252 v 5.00021 h 2.5001 c 1.385,0 2.49959,-1.11511 2.49959,-2.50011 0,-1.385 -1.11459,-2.5001 -2.49959,-2.5001 z" transform="translate(-57 -172) scale(1.63355)"/><path fill="#f8dac6" d="M 100,231.99978 V 237 h 2.5001 c 1.385,0 2.49959,-1.11511 2.49959,-2.50011 0,-1.385 -1.11459,-2.50011 -2.49959,-2.50011 z" transform="translate(-57 -172) scale(1.63355)"/><rect width="16.3" height="8.2" x="180" y="232" fill="#edbca5" ry="4.1"/><rect width="16.3" height="8.2" x="188" y="240" fill="#fcba8c" ry="4.1"/><rect width="16.3" height="8.2" x="270" y="273" fill="#df967a" rx="4.1" ry="4.1"/><rect width="8.2" height="8.2" x="270" y="264" fill="#fcba8c" rx="4.1" ry="4.1"/><rect width="16.3" height="8.2" x="221" y="273" fill="#edbca5" rx="4.1" ry="4.1"/><rect width="16.3" height="8.2" x="213" y="264" fill="#dc8f72" rx="4.1" ry="4.1"/><rect width="16.3" height="8.2" x="213" y="248" fill="#f8dac6" rx="4.1" ry="4.1"/><rect width="16.3" height="8.2" x="204" y="256" fill="#fcba8c" rx="4.1" ry="4.1"/><rect width="16.3" height="8.2" x="204" y="240" fill="#d78161" rx="4.1" ry="4.1"/><rect width="16.3" height="8.2" x="172" y="224" fill="#d78161" ry="4.1"/><rect width="16.3" height="8.2" x="155" y="224" fill="#fcba8c" ry="4.1"/><rect width="16.3" height="8.2" x="139" y="224" fill="#edbca5" ry="4.1"/><rect width="32.7" height="32.7" x="139" y="232" fill="none" stroke="#80403c" stroke-dashoffset="24.9" stroke-linecap="round" stroke-linejoin="round" stroke-width="4.9" rx="0" ry="0"/><rect width="16.3" height="8.2" x="131" y="215" fill="#edbca5" ry="4.1"/><rect width="24.5" height="8.2" x="115" y="207" fill="#edbca5" ry="4.1"/><path fill="none" stroke="#4b2623" stroke-linecap="round" stroke-linejoin="round" stroke-width="3" d="m 246.75,277 c 0,0 -106.75,0 -106.75,0 0,0 0,-74.70833 0,-74.70833" transform="translate(-122 -172) scale(1.63355)"/><path fill="none" stroke="#4b2623" stroke-linecap="round" stroke-linejoin="round" stroke-width="3" d="m 140,277 c 0,0 0,-106.45833 0,-106.45833" transform="rotate(90 290 269) scale(1.63355)"/><path fill="#fff" d="m 281.89264,249.91849 -11.922,9.05576 9.05576,-11.922 -9.05576,-11.92201 11.922,9.05576 11.922,-9.05576 -9.05576,11.92201 9.05576,11.922 z" transform="scale(.83154) rotate(-45 288 371)"/><circle cx="153.5" cy="165.8" r="1.9" fill="#fffadb"/><circle cx="152.6" cy="165.8" r="1" fill="#000002"/><circle cx="149.2" cy="165.8" r="1.9" fill="#fffadb"/><circle cx="148.2" cy="165.8" r="1" fill="#000002"/></g></svg>