<svg xmlns="http://www.w3.org/2000/svg" viewBox="0 0 400 200"><g transform="translate(0 -97)"><path fill="#ffebdb" d="m 142.8138,112.58871 c -6.18905,0 -11.17139,4.98234 -11.17139,11.17141 0,6.18908 4.98234,11.17141 11.17139,11.17141 h 117.39438 c 6.18908,0 11.17143,-4.98233 11.17143,-11.17141 0,-6.18907 -4.98235,-11.17141 -11.17143,-11.17141 h -55.65653 -11.37348 z m -0.90588,22.34334 c 6.18908,0 11.17193,4.98234 11.17193,11.17141 0,6.18907 -4.98285,11.17141 -11.17193,11.17141 h -10.20765 c -6.18908,0 -11.17192,4.9258 -11.17192,11.04429 v 0.33176 c 0,6.11849 4.98284,11.04429 11.17192,11.04429 h 4.77491 c 5.57231,0.64006 9.8728,5.34563 9.8728,11.09493 0,5.74929 -4.30049,10.45434 -9.8728,11.09441 h -6.04149 c -6.10106,0 -11.01276,4.91172 -11.01276,11.01277 0,6.00225 4.7548,10.84947 10.7182,11.00501 h -0.11989 c 6.18908,0 11.17142,4.98234 11.17142,11.17141 0,6.18907 -4.98234,11.17193 -11.17142,11.17193 h -4.91649 c -6.18908,0 -11.17192,4.92528 -11.17192,11.04377 v 0.33176 c 0,6.11849 4.98284,11.04429 11.17192,11.04429 h 82.25804 c 0.10363,0 0.20608,-0.005 0.309,-0.008 h 65.02654 c 6.18903,0 11.1714,-4.92529 11.1714,-11.04378 v -0.33176 c 0,-6.11849 -4.98237,-11.04428 -11.1714,-11.04428 h -4.91598 c -6.18908,0 -11.17143,-4.98235 -11.17143,-11.17142 0,-6.18907 4.98235,-11.17141 11.17143,-11.17141 h -0.13076 c 5.96826,-0.1502 10.72856,-4.9998 10.72856,-11.00553 0,-6.10104 -4.91172,-11.01276 -11.01278,-11.01276 h -6.165 c -5.545,-0.66512 -9.81697,-5.3567 -9.81697,-11.08666 0,-5.7493 4.30049,-10.45487 9.8728,-11.09493 h 4.77388 c 6.18902,0 11.17192,-4.9258 11.17192,-11.04429 v -0.33176 c 0,-6.11849 -4.9829,-11.04429 -11.17192,-11.04429 h -4.91496 c -6.18908,0 -11.17192,-4.98234 -11.17192,-11.17141 0,-6.18907 4.98284,-11.17141 11.17192,-11.17141 z"/><rect width="86.3" height="145.3" x="160" y="118" fill="#c0695e" stroke="#80403c" stroke-dashoffset="24.9" stroke-linecap="round" stroke-linejoin="round" stroke-width="3" rx="5.5" ry="6.2"/><path fill="none" stroke="#a3574f" stroke-linecap="round" stroke-width="3" d="m 245.94523,241.27632 c 0,0 -0.64157,0.28182 -1.68687,0.69445 -1.04531,0.41262 -2.49435,0.95604 -4.10932,1.47925 m -9.77827,1.68851 c -2.39473,-0.29179 -4.59125,-1.23198 -6.68926,-2.49069 -2.09801,-1.2587 -4.09749,-2.8359 -6.09816,-4.40171 m -12.8155,-6.61863 c -2.21874,-0.18507 -4.35717,0.23317 -6.4559,0.96792 -2.09872,0.73475 -4.15773,1.786 -6.21763,2.86694 -2.0599,1.08095 -4.12068,2.19159 -6.22295,3.0451 m -6.47184,1.5024 c -1.72973,0.0408 -3.47536,-0.17889 -5.21312,-0.55847 -1.73776,-0.37956 -3.46765,-0.91905 -5.16593,-1.51792 -1.69828,-0.59886 -3.36494,-1.25711 -4.97624,-1.87418 -1.61129,-0.61709 -2.55298,-1.13684 -4.0298,-1.57108"/><path fill="none" stroke="#d9917a" stroke-dashoffset="24.9" stroke-linecap="round" stroke-linejoin="round" stroke-width="3" d="m 167.02552,144.60145 v -19.90534 h 52.19741"/><path fill="none" stroke="#d9917a" stroke-linecap="round" stroke-width=".7" d="m 224.20947,260.22992 c 0,0.67374 0,1.34773 0,2.02199" transform="translate(-803 -963) scale(4.32725)"/><path fill="#a3574f" d="m 770.94336,527.83008 c -30.68687,-0.93815 -57.5591,28.90095 -88.63281,29.73828 -27.33641,0.73665 -57.11923,-14.30637 -79.39844,-20.94141 v 68.85157 c 0,12.88638 9.24582,23.25976 20.73047,23.25976 h 284.72851 c 11.48465,0 20.73047,-10.37338 20.73047,-23.25976 v -40.80664 c -2.44787,1.01995 -41.94539,17.30332 -62.67383,14.4121 -34.88277,-4.86546 -57.4443,-47.68124 -92.50195,-51.06445 -0.9981,-0.0963 -1.99252,-0.15919 -2.98242,-0.18945 z" transform="translate(0 97) scale(.26458)"/><rect width="86.3" height="145.3" x="160" y="118" fill="none" stroke="#80403c" stroke-dashoffset="24.9" stroke-linecap="round" stroke-linejoin="round" stroke-width="3" rx="5.5" ry="6.2"/><path fill="none" stroke="#a3574f" stroke-linecap="round" stroke-width="2.2" d="m 209.30672,242.85021 c 0,-21.39481 0,-42.78942 0,-64.18382" transform="translate(-50 -97) scale(1.34198)"/><path fill="none" stroke="#a3574f" stroke-linecap="round" stroke-width="2.2" d="m 187.56138,201.81465 c 0,-5.37809 0,-10.75597 0,-16.13364" transform="translate(-50 -59) scale(1.34198)"/><path fill="none" stroke="#a3574f" stroke-linecap="round" stroke-width="2.2" d="m 187.56138,201.81465 c 0,-6.7794 0,-13.55859 0,-20.33758" transform="translate(-38 -87) scale(1.34198)"/><path fill="none" stroke="#a3574f" stroke-linecap="round" stroke-width="2.2" d="m 187.56138,201.81465 c 0,-5.37809 0,-10.75597 0,-16.13364" transform="translate(-38 -42) scale(1.34198)"/><path fill="none" stroke="#a3574f" stroke-linecap="round" stroke-width="2.2" d="m 187.56138,181.63576 c 0,-0.0531 0,-0.106 0,-0.15869" transform="translate(-38 -98) scale(1.34198)"/><path fill="none" stroke="#a3574f" stroke-linecap="round" stroke-width="2.2" d="m 187.56138,201.81465 c 0,-2.57547 0,-5.15072 0,-7.72577" transform="translate(-50 -104) scale(1.34198)"/><path fill="none" stroke="#a3574f" stroke-linecap="round" stroke-width="2.2" d="m 187.56138,201.81465 c 0,-6.7794 0,-13.55859 0,-20.33758" transform="rotate(180 218 231) scale(1.34198)"/><path fill="none" stroke="#a3574f" stroke-linecap="round" stroke-width="2.2" d="m 187.56138,201.81465 c 0,-5.37809 0,-10.75597 0,-16.13364" transform="rotate(180 218 205) scale(1.34198)"/><path fill="none" stroke="#a3574f" stroke-linecap="round" stroke-width="2.2" d="m 187.56138,181.63576 c 0,-0.0531 0,-0.106 0,-0.15869" transform="rotate(180 218 236) scale(1.34198)"/><g fill="none" stroke-linecap="round" stroke-linejoin="round" stroke-width="2.2"><path stroke="#626262" d="m 161.72721,215.52492 h 11.76807 v 4.09207" transform="matrix(-1.34198 0 0 1.34198 402 -104)"/><path stroke="#bababa" d="m 161.71878,214.33313 h 11.76807" transform="matrix(-1.34198 0 0 1.34198 402 -104)"/></g><path fill="none" stroke="#80403c" stroke-linecap="round" stroke-width="2.2" d="m 187.56138,210.22252 c 0,-5.09786 0,-10.19545 0,-15.29285" transform="translate(-50 -19) scale(1.34198)"/><path fill="none" stroke="#80403c" stroke-linecap="round" stroke-width="2.2" d="m 187.56138,210.22252 c 0,-2.15508 0,-4.30994 0,-6.46458" transform="translate(-66 -19) scale(1.34198)"/><path fill="none" stroke="#80403c" stroke-linecap="round" stroke-width="2.2" d="m 187.56138,210.22252 c 0,-2.29523 0,-4.59019 0,-6.88498" transform="translate(-38 -19) scale(1.34198)"/><path fill="none" stroke="#80403c" stroke-linecap="round" stroke-width="2.2" d="m 187.56138,206.43898 c 0,-0.0531 0,-0.106 0,-0.15868" transform="translate(-38 -31) scale(1.34198)"/><path fill="none" stroke="#80403c" stroke-linecap="round" stroke-width="2.2" d="m 187.56138,210.22252 c 0,-1.17416 0,-2.3481 0,-3.52183" transform="translate(-21 -19) scale(1.34198)"/><path fill="none" stroke="#80403c" stroke-linecap="round" stroke-width="2.2" d="m 187.56138,210.22252 c 0,-0.75376 0,-1.50731 0,-2.26064" transform="translate(-83 -19) scale(1.34198)"/><path fill="#262626" stroke="#626262" stroke-dashoffset="111.3" stroke-linecap="round" stroke-linejoin="round" stroke-width="3" d="m 171.74284,218.40257 c 0.89353,0 1.6126,-0.71906 1.6126,-1.61259 v -8.25524 a 5.4159771,5.4159771 0 0 0 2.58334,-4.61134 5.4159771,5.4159771 0 0 0 -5.41571,-5.41572 5.4159771,5.4159771 0 0 0 -5.41627,5.41572 5.4159771,5.4159771 0 0 0 2.64505,4.64604 v 8.22054 c 0,0.89353 0.71906,1.61259 1.6126,1.61259 z"/><g stroke-linecap="round" stroke-width="3.6"><path fill="#737373" stroke="#a0a0a0" stroke-dashoffset="111.3" stroke-linejoin="round" d="m 81.968991,192.20384 c -9.886416,-9e-5 -17.901025,8.01434 -17.901139,17.90076 -1e-4,9.88657 8.014571,17.90124 17.901139,17.90114 5.644446,-0.007 10.954818,-2.67641 14.328451,-7.20171 h 8.437938 l 3.75257,-3.75257 c 0.28211,-0.28212 0.65049,-0.42348 1.01866,-0.42348 0.36817,0 1.14806,0.0462 1.01828,0.42348 l 2.96001,2.96001 2.95963,-2.96001 c 0.56423,-0.56423 1.47271,-0.56423 2.03694,0 l 3.75257,3.75257 h 6.37148 l 3.75218,-3.75257 c 0.56422,-0.56423 1.4727,-0.56423 2.03692,0 l 3.75257,3.75257 h 2.73741 c 3.53369,0 6.37848,-2.84479 6.37848,-6.37848 v -5.34972 c 0,-3.53368 -2.84479,-6.37847 -6.37848,-6.37847 H 98.246182 c -2.901896,-6.38421 -9.26441,-10.48597 -16.277191,-10.49352 z m -7.160922,12.24258 c 3.124943,-4e-5 5.658219,2.53323 5.658187,5.65818 3.2e-5,3.12494 -2.533244,5.65822 -5.658187,5.65818 -3.124943,4e-5 -5.658216,-2.53324 -5.658184,-5.65818 -3.2e-5,-3.12495 2.533241,-5.65822 5.658184,-5.65818 z" transform="translate(29 30) scale(.83217)"/><path fill="#ececec" stroke="#dcdcdc" d="m 113.6541,208.36534 c -6.44664,0 -12.89355,0 -19.340723,0" transform="translate(29 30) scale(.83217)"/><path fill="#ececec" stroke="#dcdcdc" d="m 113.6541,208.36534 c -0.10974,0 -0.21975,0 -0.33002,0" transform="translate(33 30) scale(.83217)"/><path fill="#ececec" stroke="#dcdcdc" d="m 97.7791,208.36534 c -2.402796,0 -4.80586,0 -7.209186,0" transform="translate(60 30) scale(.83217)"/><path fill="none" stroke="#dcdcdc" stroke-dashoffset="111.3" stroke-linejoin="round" d="M90.970472 201.51835a12.440129 12.440129 0 0 1 3.309493 6.79978M87.683896 199.05514a12.440129 12.440129 0 0 1 .04599.0239M76.449023 198.95629a12.440129 12.440129 0 0 1 5.499951-1.29162" transform="translate(29 30) scale(.83217)"/></g></g></svg>
