<svg xmlns="http://www.w3.org/2000/svg" viewBox="0 0 400 200"><g transform="translate(0 -97)"><path fill="#dba277" d="m 484.80219,248.73112 c -9.47916,-16.33908 -18.95836,-32.67823 -24.07385,-41.32795 -5.11549,-8.64972 -6.54227,-10.47231 -8.19483,-11.78189 -1.65256,-1.30958 -3.86843,-2.53729 -7.06569,-7.04902 -3.19726,-4.51173 -7.37547,-12.30691 -5.59854,-17.7066 1.77692,-5.39968 9.00299,-8.20717 8.75407,-16.0074 -0.24892,-7.80023 -7.9114,-18.67777 -9.31383,-24.3484 -1.40242,-5.67063 4.05764,-5.36948 6.77094,-5.0017 2.71329,0.36778 2.71329,0.80435 3.63284,0.52346 0.91954,-0.28089 2.7561,-1.2781 4.3919,-3.42941 1.63579,-2.15131 3.07038,-5.45711 2.15163,-9.04264 -0.91876,-3.58553 -4.19107,-7.45238 -7.46308,-11.31888 2.86674,-0.60203 5.73379,-1.20413 8.91536,0.28497 3.18157,1.4891 6.67903,5.07004 9.44876,9.83888 2.76973,4.76885 5.31773,12.2008 6.20817,18.81 0.89045,6.6092 0.39024,12.95312 1.62562,20.68294 1.23537,7.72981 4.20266,16.72253 9.26663,25.72307 5.06396,9.00054 12.15271,17.88087 21.44861,29.70485 9.2959,11.82398 20.77367,26.55993 32.25143,41.29585 0,0 -53.15614,0.14987 -53.15614,0.14987 z" transform="translate(-88 80)"/><path fill="none" stroke="#dba277" stroke-linecap="round" stroke-linejoin="bevel" stroke-width="12.5" d="m 433.53991,91.202463 c 7.35897,2.120382 14.7178,4.240723 19.08309,6.236267 4.36528,1.995543 5.7373,3.86648 9.64929,7.95357 3.912,4.08709 10.3636,10.38997 12.75561,14.05039 2.39201,3.66043 0.7241,4.6782 -0.25703,11.81743 -0.98112,7.13922 -1.27463,20.39624 -0.79778,30.08151 0.47685,9.68527 1.72408,15.79669 10.76699,29.70406 9.04291,13.90737 25.88033,35.60893 42.71834,57.31125" transform="translate(-88 80)"/><path fill="none" stroke="#dba277" stroke-linecap="round" stroke-linejoin="bevel" stroke-width="13.7" d="m 428.51283,102.05038 c 6.76033,4.87871 13.52066,9.75741 19.16492,13.29644 5.64426,3.53903 10.17226,5.73831 13.01638,8.00512 2.84413,2.26682 4.00424,4.60108 5.92409,7.88416 1.91985,3.28309 4.599,7.51425 5.82321,13.28623 1.2242,5.77198 0.99275,13.0819 1.50063,19.79323 0.50788,6.71134 1.75505,12.82242 2.64648,16.22357 0.89144,3.40114 1.42694,4.09133 9.84616,14.94277 8.41922,10.85144 24.72119,31.86288 41.02372,52.87504" transform="translate(-88 80)"/><path fill="none" stroke="#d59362" stroke-linecap="round" stroke-width="5" d="m 345.34166,332.71874 c -9.56914,-16.75702 -19.13824,-33.51397 -28.70729,-50.27083 m -4.89479,-6.35 c -3.35139,-3.70417 -6.70279,-7.40834 -11.42115,-10.31874 -4.71836,-2.9104 -10.8037,-5.02704 -16.88927,-7.14376" transform="translate(60)"/><path fill="none" stroke="#dfad87" stroke-linecap="round" stroke-width="5" d="m 290.94357,171.87244 c 5.55381,1.8592 10.97346,3.67349 14.81736,5.65474 3.8439,1.98125 5.69329,3.91411 7.58649,5.89276 m 5.96019,6.23005 c 3.3982,3.28527 6.14358,5.93941 7.66834,9.6072 1.52475,3.6678 1.24658,7.27825 0.95016,11.12556 m -1.05833,8.99583 c -0.56427,6.96802 -1.12849,13.93549 -0.61716,20.10431 0.51133,6.16881 2.09817,11.53743 3.68524,16.90684 m 4.23723,9.02404 c 4.09088,5.49705 8.18167,10.99399 16.4694,22.02534 8.28773,11.03135 20.77192,27.59648 33.25631,44.16188" transform="translate(60)"/><path fill="#3549a5" d="m 170,116.99981 c -5.52297,6e-5 -10.00014,4.47745 -9.99991,10.00043 V 297.00019 H 359.99977 V 176.99977 l -59.99995,-59.99996 z" paint-order="stroke fill markers"/><g fill="none" stroke="#fff" stroke-dasharray="4 4" stroke-dashoffset="5.9" stroke-opacity=".3"><path d="m 99.999999,277.5 c 66.666931,0 133.333591,0 200.000001,0" transform="translate(60)"/><path d="M 99.999999,277 C 166.66693,277 233.33359,277 300,277" transform="translate(60 -20)"/><path d="m 99.999999,277.5 c 66.666931,0 133.333591,0 200.000001,0" transform="translate(60 -40)"/><path d="M 99.999999,277 C 166.66693,277 233.33359,277 300,277" transform="translate(60 -60)"/><path d="M 99.999999,277 C 166.66693,277 233.33359,277 300,277" transform="translate(60 -80)"/><path d="M 99.999999,277 C 166.66693,277 233.33359,277 300,277" transform="translate(60 -101)"/><path d="m 99.999999,277 c 57.847491,0 115.694701,0 173.541671,0" transform="translate(60 -120)"/><path d="m 99.999999,277 c 50.791931,0 101.583591,0 152.375001,0" transform="translate(60 -140)"/><g><path d="M 99.999999,277 C 160.00021,276.83333 220.0002,276.66667 280,276.5" transform="rotate(90 220 237)"/><path d="M 99.999999,277 C 160.00021,276.83333 220.0002,276.66667 280,276.5" transform="rotate(90 230 247)"/><path d="M 99.999999,277 C 160.00021,276.83333 220.0002,276.66667 280,276.5" transform="rotate(90 240 257)"/><path d="M 99.999999,277 C 160.00021,276.83333 220.0002,276.66667 280,276.5" transform="rotate(90 250 267)"/><path d="M 99.999999,277 C 160.00021,276.83333 220.0002,276.66667 280,276.5" transform="rotate(90 260 277)"/><path d="M 99.999999,277 C 160.00021,276.83333 220.0002,276.66667 280,276.5" transform="rotate(90 270 287)"/><path d="M 99.999999,277 C 160.00021,276.83333 220.0002,276.66667 280,276.5" transform="rotate(90 280 297)"/><path d="M 152.91667,277 C 195.27785,276.83333 237.63895,276.66667 280,276.5" transform="rotate(90 290 307)"/><path d="M 152.91667,277 C 195.27785,276.83333 237.63895,276.66667 280,276.5" transform="rotate(90 300 317)"/></g></g><g fill="none" stroke="#fff" stroke-linecap="round" stroke-width="3" transform="translate(60)"><path stroke-linejoin="round" d="m 140,197 c 39.85234,0 80.00026,0 120,0 m -120,80 c 0,0 0,-80 0,-80 0,0 20,-20 20,-20 0,0 0,-40 0,-40 0,0 20,0 20,0 0,0 0,20 0,20 0,0 20,-20 20,-20 0,0 53.68646,53.68646 53.68646,53.68646 0,0 6.31354,6.31354 6.31354,6.31354 0,0 0,80 0,80 0,0 -120,0 -120,0 z"/><rect width="20" height="20" x="160" y="207" stroke-dashoffset="24.9" stroke-linejoin="round" paint-order="stroke fill markers" rx="0" ry="0"/><rect width="20" height="20" x="160" y="247" stroke-dashoffset="24.9" stroke-linejoin="round" paint-order="stroke fill markers" rx="0" ry="0"/><path stroke-dashoffset="24.9" stroke-linejoin="round" d="M219.99998 207H239.99998V227H219.99998zM219.99998 247H239.99998V277H219.99998z" paint-order="stroke fill markers"/><path stroke-dasharray="12 6 3 6" d="m 140,237 c 40.26746,0 80.00026,0 120,0"/></g><path fill="none" stroke="#6376cd" stroke-linecap="round" stroke-linejoin="round" stroke-width="5" d="M 169.99999,286.99999 170,244.3 m 0,-7.3 -1e-5,-3.83334 m 0,-11.64166 V 174.5 m 0,-10.05417 v -28.50416 c 0,-5.54 3.40167,-8.94167 8.94167,-8.94167 m 7.9375,0 h 24.9052 m 0,0 h 39.72188 m 7.97187,0 h 23.84688" paint-order="stroke fill markers"/><path fill="none" stroke="#fff" stroke-linecap="round" stroke-linejoin="round" stroke-width="2" d="M279.99999 277c-3.33306 0-6.66639 0-10 0M279.99999 287c0-36.95336 0-73.3336 0-110" transform="translate(60)"/><path fill="none" stroke="#fff" stroke-linecap="round" stroke-linejoin="round" stroke-width="2" d="m 279.99999,277 c -3.33306,0 -6.66639,0 -10,0" transform="translate(60 -20)"/><path fill="none" stroke="#fff" stroke-linecap="round" stroke-linejoin="round" stroke-width="2" d="m 279.99999,277 c -3.33306,0 -6.66639,0 -10,0" transform="translate(60 -40)"/><path fill="none" stroke="#fff" stroke-linecap="round" stroke-linejoin="round" stroke-width="2" d="m 279.99999,277 c -3.33306,0 -6.66639,0 -10,0" transform="translate(60 -60)"/><path fill="none" stroke="#fff" stroke-linecap="round" stroke-linejoin="round" stroke-width="2" d="m 279.99999,277 c -3.33306,0 -6.66639,0 -10,0" transform="translate(60 -80)"/><path fill="#1c2422" fill-opacity=".2" d="m 250,177 c 0,0 31.82212,6.36442 31.82212,6.36442 0,0 18.17788,3.63558 18.17788,3.63558 0,0 0,-10 0,-10 0,0 -50,0 -50,0 z" transform="translate(60)"/><path fill="#6376cd" d="m 299.99982,116.99981 v 50.00005 a 10,10 0 0 0 10.00042,9.99991 h 49.99953 z" paint-order="stroke fill markers"/><g fill="none" stroke="#fff" stroke-linecap="round" stroke-linejoin="round" stroke-width="2"><path d="m 279.99999,277 c -3.33306,0 -6.66639,0 -10,0" transform="rotate(-90 245 322)"/><path d="m 279.99999,277 c -3.33306,0 -6.66639,0 -10,0" transform="rotate(-90 255 312)"/><path d="m 279.99999,277 c -3.33306,0 -6.66639,0 -10,0" transform="rotate(-90 265 302)"/><path d="m 279.99999,277 c -3.33306,0 -6.66639,0 -10,0" transform="rotate(-90 275 292)"/><path d="m 279.99999,277 c -3.33306,0 -6.66639,0 -10,0" transform="rotate(-90 285 282)"/><path d="m 279.99999,277 c -3.33306,0 -6.66639,0 -10,0" transform="rotate(-90 295 272)"/><path d="m 279.99999,277 c -3.33306,0 -6.66639,0 -10,0" transform="rotate(-90 305 262)"/></g><path fill="none" stroke="#fff" stroke-dasharray="12 6 3 6" stroke-dashoffset="5.7" stroke-linecap="round" stroke-width="3" d="m 160,177 c 6.66693,-6.66693 13.33359,-13.3336 19.99999,-20" transform="translate(60)"/><path fill="none" stroke="#dfad87" stroke-linecap="round" stroke-width="15.1" d="m 421.94042,114.02728 c 6.73518,6.61046 13.47037,13.22093 19.55093,21.20574 6.08057,7.98482 11.50657,17.34408 16.93262,26.70344" transform="translate(-88 80)"/><path fill="#f2f2f2" stroke="#e8c5aa" stroke-linecap="round" stroke-width="12.1" d="m 421.94042,114.02728 c 1.68387,1.65254 3.36774,3.30508 5.05161,4.95762" transform="translate(-12 100) scale(.81676)"/><path fill="#f2f2f2" stroke="#dfad87" stroke-linecap="round" stroke-width="12.1" d="m 421.94042,114.02728 c 1.68387,1.65254 3.36774,3.30508 5.05161,4.95762" transform="translate(-4 108) scale(.81676)"/><path fill="#dfad87" stroke="#dfad87" stroke-linecap="round" stroke-linejoin="round" stroke-width="5" d="m 303.51329,240.49922 c 3.18045,5.42548 6.36096,10.85106 10.34691,15.41525 3.98595,4.56419 8.77713,8.26679 9.65018,8.32912 0.87305,0.0623 -2.17206,-3.51561 -3.97522,-7.8927 -1.80317,-4.3771 -2.36444,-9.55325 -3.81438,-13.80943 -1.44995,-4.25619 -3.78854,-7.59259 -6.12711,-10.92895" paint-order="fill markers stroke" transform="translate(60)"/><path fill="none" stroke="#acb6e4" stroke-dashoffset="24.9" stroke-linecap="round" stroke-linejoin="round" stroke-width="5" d="m 305.29149,129.69981 v 33.59588 c 5e-5,5.52298 2.88994,8.41264 8.41292,8.41241 h 3.96202" paint-order="stroke fill markers"/><path fill="none" stroke="#8392d7" stroke-dashoffset="24.9" stroke-linecap="round" stroke-linejoin="round" stroke-width="5" d="M305.29149 129.69981v33.59588c.00005 5.52298 2.88994 8.41264 8.41292 8.41241h3.96202M324.28775 171.7081h.25785M334.87109 171.7081h11.89952" paint-order="stroke fill markers"/><rect width="102.1" height="282.1" x="400" y="97" fill="#fff" paint-order="stroke fill markers" rx="0" ry="0"/><rect width="102.1" height="282.1" x="297" y="-401" fill="#fff" paint-order="stroke fill markers" rx="0" ry="0" transform="rotate(90)"/><rect width="23.5" height="17.1" x="18" y="228" fill="#c0695e" stroke="#a3574f" stroke-dashoffset="24.9" stroke-linecap="square" stroke-width="4" rx="1.6" ry="1.6"/><path fill="none" stroke="#a3574f" stroke-width="4" d="m -40.584903,230.6861 c 7.102116,4.87482 14.204174,9.7496 21.306178,14.62435" transform="translate(59 -2)"/><path fill="none" stroke="#a3574f" stroke-width="4" d="m -40.584903,230.6861 c 7.102116,4.87482 14.204174,9.7496 21.306178,14.62435" transform="matrix(-1 0 0 1 0 -2)"/><rect width="140" height="10" x="10" y="247" fill="gray" paint-order="stroke fill markers" rx="5" ry="5"/><rect width="80.5" height="6.7" x="64" y="227" fill="#4d4d4d" rx="3.7" ry="3.4"/><path fill="#fc0" d="m 56.866085,223.56168 c -1.859287,0 -3.096463,1.5152 -3.356253,3.35625 l -1.420754,10.06841 c -0.25979,1.84105 1.496967,3.35591 3.356254,3.35591 h 4.777005 c 1.859285,0 3.355907,-1.49662 3.355907,-3.35591 a 3.3561105,3.3561109 0 0 1 3.356251,-3.35625 h 3.355904 l 16.780574,-3.3559 -23.492729,-3.35626 c 0,-1.85928 -1.496622,-3.35625 -3.355907,-3.35625 z"/><rect width="111.5" height="11" x="127" y="86" fill="#fc0" rx="5.5" ry="5.5" transform="rotate(39)"/><path fill="none" stroke="#ffe990" stroke-linecap="round" stroke-width="4.5" d="m 220,152 c 1.66667,1.66666 3.33333,3.33333 5,5" transform="scale(.67123) rotate(-6 1127 1472)"/><path fill="none" stroke="#ffe990" stroke-linecap="round" stroke-width="4.5" d="m 220,152 c 7.5,7.5 15.00001,15 22.5,22.5" transform="rotate(-6 868 865) scale(.67122)"/><path fill="none" stroke="#ffe990" stroke-linecap="round" stroke-width="4.5" d="m 217.5,149.5 c 0.0306,0.0306 0.0611,0.0611 0.0917,0.0917" transform="scale(.67123) rotate(-6 1579 973)"/><path fill="none" stroke="#ffe990" stroke-linecap="round" stroke-width="4.5" d="m 220,152 c 7.5,7.5 15.00001,15 22.5,22.5" transform="scale(.67123) rotate(-6 1591 960)"/><path fill="#1a1a1a" fill-opacity=".2" d="m 333.70321,262.12348 c 0,0 -17.7825,3.98436 -17.7825,3.98436 0,0 17.35975,1.73706 17.35975,1.73706 0,0 0.42275,-5.72142 0.42275,-5.72142 z" transform="scale(.67123) rotate(-6 865 1734)"/><circle cx="90.4" cy="240.3" r="6.7" fill="#1a1a1a"/><circle cx="120.6" cy="240.3" r="6.7" fill="#1a1a1a"/><circle cx="137.4" cy="240.3" r="6.7" fill="#1a1a1a"/><path fill="#fc0" d="m 68.612622,230.27419 c -0.929642,0 -1.678127,0.74813 -1.678127,1.67777 0,0.92965 0.748485,1.67813 1.678127,1.67813 h 28.52677 a 3.3561109,3.3561109 0 0 1 3.356248,3.35625 h 0.004 c 0,0.0283 -0.004,0.0558 -0.004,0.0843 v 3.18733 c 0,1.9061 1.49662,3.44054 3.35591,3.44054 h 3.35624 c 1.85929,0 3.35591,-1.53444 3.35591,-3.44054 v -3.18733 c 0,-0.0285 -0.004,-0.056 -0.004,-0.0843 h 0.004 a 3.3561109,3.3561109 0 0 1 3.35625,-3.35625 h 28.52676 c 0.92965,0 1.67814,-0.74848 1.67814,-1.67813 0,-0.92964 -0.74849,-1.67777 -1.67814,-1.67777 z"/><path fill="none" stroke="#565656" stroke-linecap="round" stroke-linejoin="round" stroke-width="3" d="m 250,287 c 0,0 -15,0 -15,0 0,0 -5,-5 -5,-5" transform="translate(-105 48) scale(.67122)"/><path fill="#fc0" d="m 91.847915,220.20574 h 12.003705 v 0 6.71222 0 h -13.424461 2e-5 z"/><path fill="none" stroke="#fc0" stroke-linecap="round" stroke-linejoin="round" stroke-width="3" d="m 315,242 c 0,0 0,25 0,25 0,0 -20,0 -20,0" transform="translate(-108 48) scale(.67122)"/><path fill="none" stroke="#565656" stroke-linecap="round" stroke-linejoin="round" stroke-width="3" d="m 315,242 c 0,0 -15,0 -15,0 0,0 -5.00001,25 -5.00001,25" transform="translate(-108 48) scale(.67122)"/><rect width="36.9" height="6.7" x="97" y="220" fill="#fc0" rx="3.4" ry="3.1"/><rect width="10.1" height="13.4" x="127" y="214" fill="#fc0" rx="3.4" ry="3.4"/><circle cx="73.6" cy="240.3" r="6.7" fill="#1a1a1a"/><path fill="#b7bec8" d="m 57.247982,225.49718 c -1.115572,0 -1.834166,0.91248 -2.013544,2.01354 l -1.054813,6.47456 v 3.5e-4 1.74265 c 0,0.89375 0.719503,1.61326 1.613264,1.61326 h 3.869264 c 0.893752,0 1.613262,-0.71951 1.613262,-1.61326 v -1.74299 -1.74265 -4.73191 c 0,-1.11557 -0.898319,-2.01354 -2.01389,-2.01354 z"/><rect width="19.7" height="3.4" x="110" y="227" fill="#1a1a1a" rx="1.7" ry="1.7"/><path fill="none" stroke="#ffe990" stroke-linecap="round" stroke-width="4.5" d="m 255,267 c 5.83344,1.13744 11.66685,2.27488 17.50019,3.4123" transform="translate(-108 50) scale(.67122)"/><path fill="none" stroke="#ffe990" stroke-dashoffset="81.4" stroke-linecap="round" stroke-linejoin="round" stroke-width="3" d="M106.02332 240.87835h-1.78169c-.52665 0-.95064-.42398-.95064-.95063v-4.80545M101.98517 222.44466H95.215336M119.7446 222.44466h-4.80545M109.98776 222.44466h-.18799"/><path fill="#1a1a1a" fill-opacity=".2" d="m 316.48939,267 c 0,0 2.20308,-10 2.20308,-10 0,0 -2.39191,0 -2.39191,0 0,0 0.18883,10 0.18883,10 z" transform="matrix(.67122 0 0 -.67122 -108 399)"/><path fill="#d0d6da" d="m 60.132499,225.69628 -5.932756,10.27583 c 0.117109,0.77696 0.782508,1.36942 1.593146,1.36942 h 1.644479 l 3.838047,-6.64764 v -3.18317 c 0,-0.80276 -0.466366,-1.49055 -1.142916,-1.81444 z"/><circle cx="73.6" cy="240.3" r="5" fill="#333"/><circle cx="73.6" cy="240.3" r="1.6" fill="#b3b3b3"/><circle cx="255.6" cy="-25.1" r="5" fill="#333" transform="rotate(75)"/><circle cx="255.6" cy="-25.1" r="1.6" fill="#b3b3b3" transform="rotate(75)"/><circle cx="263.4" cy="-54.3" r="5" fill="#333" transform="rotate(75)"/><circle cx="263.4" cy="-54.3" r="1.6" fill="#b3b3b3" transform="rotate(75)"/><circle cx="267.7" cy="-70.5" r="5" fill="#333" transform="rotate(75)"/><circle cx="267.7" cy="-70.5" r="1.6" fill="#b3b3b3" transform="rotate(75)"/><path fill="none" stroke="#585858" stroke-linecap="round" stroke-linejoin="round" stroke-width="3" d="m 165.22826,192.70679 c 0,0 -15.94015,-79.81048 -15.94015,-79.81048 0,0 -9.34265,78.86057 -9.34265,78.86057" transform="translate(-123 36)"/><path fill="none" stroke="#444" stroke-dasharray="3 9" stroke-dashoffset="11" stroke-linecap="round" stroke-linejoin="round" stroke-width="3" d="m 165.22826,192.70679 c 0,0 -1.83687,-9.19697 -1.83687,-9.19697 0,0 -14.10328,-70.61351 -14.10328,-70.61351 0,0 -9.34265,78.86057 -9.34265,78.86057" transform="translate(-123 36)"/><rect width="17.4" height="10.4" x="111" y="90" fill="#333" rx="3.4" ry="3.4" transform="rotate(39)"/><g fill="none" stroke="#4a5461" stroke-dashoffset="81.4" stroke-linecap="round" stroke-linejoin="round" stroke-width="1.3"><path d="m 77.184895,240.34241 a 3.5382733,3.5382733 0 0 1 -1.809228,3.08703 3.5382733,3.5382733 0 0 1 -3.577456,-0.07"/><path d="m 70.109112,240.41591 a 3.5382733,3.5382733 0 0 1 2.739182,-3.52054"/><path d="m 258.11364,-22.694526 a 3.5382733,3.5382733 0 0 1 -4.40485,0.570847" transform="rotate(75)"/><path d="m 252.0197,-25.067253 a 3.5382733,3.5382733 0 0 1 2.73918,-3.520539" transform="rotate(75)"/><path d="m 266.91312,-54.316544 a 3.5382733,3.5382733 0 0 1 -1.80923,3.087035 3.5382733,3.5382733 0 0 1 -3.57745,-0.06996" transform="rotate(75)"/><path d="m 259.83734,-54.24304 a 3.5382733,3.5382733 0 0 1 8.2e-4,-0.179423" transform="rotate(75)"/><path d="m 271.25626,-70.525314 a 3.5382733,3.5382733 0 0 1 -1.80923,3.087034 3.5382733,3.5382733 0 0 1 -3.57745,-0.06996" transform="rotate(75)"/><path d="m 264.18048,-70.451811 a 3.5382733,3.5382733 0 0 1 2.248,-3.368431 3.5382733,3.5382733 0 0 1 3.9372,0.94778" transform="rotate(75)"/><path d="m 261.38224,-57.240391 a 3.5382733,3.5382733 0 0 1 4.16137,0.128167" transform="rotate(75)"/><path d="m 257.87259,-27.81627 a 3.5382733,3.5382733 0 0 1 1.16852,2.057651" transform="rotate(75)"/></g></g></svg>