<svg xmlns="http://www.w3.org/2000/svg" viewBox="0 0 400 200"><g transform="translate(0 -97)"><path fill="#999" stroke="#696969" stroke-linecap="round" stroke-width="5.4" d="m 233.72812,281.12619 c 0,-23.29374 0,-46.58723 0,-69.88045" transform="translate(-123 -139) scale(1.49009)"/><path fill="#999" stroke="#c2c2c2" stroke-linecap="round" stroke-width="2.7" d="m 233.72812,281.12619 c 0,-12.71041 0,-25.42056 0,-38.13045" transform="translate(-121 -139) scale(1.49009)"/><path fill="#999" stroke="#c2c2c2" stroke-linecap="round" stroke-width="2.7" d="m 233.72812,263.51077 c 0,-6.30945 0,-12.61864 0,-18.92753" transform="translate(-121 -186) scale(1.49009)"/><path fill="#b3b3b3" d="m 224.71899,139.07222 c -13.93253,0 -25.14895,4.64798 -25.14895,10.42072 v 7.14582 25.1766 7.14582 c 0,5.77274 3.9989,10.41995 8.96615,10.41995 h 32.36561 c 4.96725,0 8.96615,-4.64721 8.96615,-10.41995 v -7.14582 -25.1766 -7.14582 c 0,-5.77274 -11.21641,-10.42072 -25.14896,-10.42072 z"/><path fill="#ececec" fill-opacity=".6" d="m 849.33203,159.01367 c -2.43449,0 -4.83912,0.0493 -7.22656,0.12305 l -87.81445,188.87109 c 0.20157,21.6139 15.22946,38.94531 33.87695,38.94531 h 122.32617 c 18.77386,0 33.88867,-17.56458 33.88867,-39.38281 V 320.5625 225.40625 198.39844 c 0,-21.81823 -42.39232,-39.38477 -95.05078,-39.38477 z" transform="translate(0 97) scale(.26458)"/><rect width="35.8" height="8.2" x="207" y="154" fill="#353535" stroke="#898989" stroke-dashoffset="111.3" stroke-linecap="round" stroke-linejoin="round" stroke-width="4" rx="1.3" ry="1.2"/><path fill="none" stroke="#898989" stroke-dashoffset="111.3" stroke-linecap="round" stroke-linejoin="round" stroke-width="4" d="m 224.71899,139.07222 c -13.93253,0 -25.14895,4.64798 -25.14895,10.42072 v 7.14582 25.1766 7.14582 c 0,5.77274 3.9989,10.41995 8.96615,10.41995 h 32.36561 c 4.96725,0 8.96615,-4.64721 8.96615,-10.41995 v -7.14582 -25.1766 -7.14582 c 0,-5.77274 -11.21641,-10.42072 -25.14896,-10.42072 z"/><g fill="#262626" aria-label="bob @ example.com" font-family="sans-serif" font-size="15.1" font-weight="400" letter-spacing="0" style="line-height:1" text-anchor="middle" word-spacing="0"><path d="M830.2508 314.13191q0-2.51075-1.03893-3.9331-1.02657-1.43471-2.83233-1.43471-1.80576 0-2.84469 1.43471-1.02656 1.42235-1.02656 3.9331 0 2.51075 1.02656 3.94546 1.03893 1.42235 2.84469 1.42235 1.80576 0 2.83233-1.42235 1.03893-1.43471 1.03893-3.94546zm-7.74251-4.83598q.71735-1.23682 1.80576-1.8305 1.10077-.60604 2.62206-.60604 2.52312 0 4.09389 2.00365 1.58313 2.00365 1.58313 5.26887 0 3.26521-1.58313 5.26886-1.57077 2.00366-4.09389 2.00366-1.52129 0-2.62206-.59368-1.08841-.60604-1.80576-1.84286v2.07786h-2.28813v-19.24497h2.28813zM841.75326 308.78883q-1.8305 0-2.89417 1.43472-1.06367 1.42234-1.06367 3.90836 0 2.48601 1.0513 3.92073 1.06367 1.42234 2.90654 1.42234 1.81813 0 2.88179-1.43471 1.06367-1.43472 1.06367-3.90836 0-2.46128-1.06367-3.896-1.06366-1.44708-2.88179-1.44708zm0-1.92944q2.96837 0 4.66282 1.92944 1.69445 1.92945 1.69445 5.34308 0 3.40126-1.69445 5.34307-1.69445 1.92945-4.66282 1.92945-2.98075 0-4.6752-1.92945-1.68208-1.94181-1.68208-5.34307 0-3.41363 1.68208-5.34308 1.69445-1.92944 4.6752-1.92944zM861.8269 314.13191q0-2.51075-1.03894-3.9331-1.02656-1.43471-2.83232-1.43471-1.80576 0-2.84469 1.43471-1.02657 1.42235-1.02657 3.9331 0 2.51075 1.02657 3.94546 1.03893 1.42235 2.84469 1.42235 1.80576 0 2.83232-1.42235 1.03894-1.43471 1.03894-3.94546zm-7.74252-4.83598q.71736-1.23682 1.80576-1.8305 1.10078-.60604 2.62207-.60604 2.52312 0 4.09388 2.00365 1.58314 2.00365 1.58314 5.26887 0 3.26521-1.58314 5.26886-1.57076 2.00366-4.09388 2.00366-1.52129 0-2.62207-.59368-1.0884-.60604-1.80576-1.84286v2.07786h-2.28812v-19.24497h2.28812z" font-size="25.3" style="line-height:1;text-align:center" transform="translate(-151 33) scale(.44567)"/><path d="M839.8191 332.2547q0 1.05229.52247 1.6557.52246.59605 1.43493.59605.90512 0 1.42023-.60341.52246-.60341.52246-1.64834 0-1.03021-.52982-1.63362-.52983-.61077-1.42758-.61077-.8904 0-1.42022.60341-.52247.60341-.52247 1.64098zm4.01047 2.20024q-.44152.56662-1.01549.83889-.56662.26491-1.32456.26491-1.26569 0-2.06043-.91247-.78738-.91984-.78738-2.39157 0-1.47173.79474-2.39157.79474-.91983 2.05307-.91983.75794 0 1.33192.27963.57397.27227 1.00813.83153v-.96399h1.05229v5.41598q1.07437-.16189 1.67778-.9787.61077-.82417.61077-2.12665 0-.78738-.23548-1.4791-.22812-.69171-.69907-1.2804-.7653-.96399-1.8691-1.47174-1.09645-.5151-2.39157-.5151-.90512 0-1.73665.24283-.83153.23548-1.53796.70643-1.15531.75059-1.81023 1.97213-.64756 1.21418-.64756 2.6344 0 1.17003.41944 2.19288.42681 1.02286 1.2289 1.80287.77266.76531 1.78816 1.16267 1.01549.40473 2.1708.40473.94927 0 1.86174-.32378.91984-.31642 1.68514-.91248l.66228.81682q-.91983.71379-2.00892 1.08908-1.08172.38265-2.20024.38265-1.36135 0-2.56817-.48567-1.20682-.47832-2.14873-1.39815-.94191-.91983-1.43494-2.12665-.49303-1.21418-.49303-2.60497 0-1.33928.50039-2.55346.50039-1.21418 1.42758-2.13401.94926-.93455 2.19288-1.42758 1.24361-.50039 2.6344-.50039 1.56004 0 2.89196.6402 1.33927.64021 2.24439 1.81759.5519.72115.83889 1.5674.29434.84624.29434 1.75136 0 1.93533-1.17002 3.05385-1.17003 1.11851-3.23046 1.16267zM802.85698 349.19221v.66228h-6.22543q.0883 1.39815.83889 2.13401.75794.72851 2.10457.72851.78002 0 1.50853-.19133.73587-.19132 1.45702-.57397v1.28041q-.72851.30906-1.49381.47095-.7653.16189-1.55268.16189-1.97212 0-3.12743-1.14795-1.14796-1.14795-1.14796-3.10536 0-2.02363 1.08909-3.20837 1.09644-1.19211 2.95082-1.19211 1.66306 0 2.62704 1.07437.97135 1.067.97135 2.90667zm-1.354-.39737q-.0147-1.11116-.62548-1.77344-.60341-.66228-1.60419-.66228-1.13324 0-1.81759.64021-.677.6402-.78002 1.80287zM811.6653 345.40986l-2.98026 4.01047 3.13479 4.23123H810.223l-2.39892-3.23781-2.39893 3.23781h-1.59683l3.20102-4.31218-2.92875-3.92952h1.59683l2.18553 2.9361 2.18552-2.9361zM817.47865 349.50863q-1.64099 0-2.27383.37529-.63285.3753-.63285 1.28041 0 .72115.47096 1.14795.47831.41945 1.29512.41945 1.12588 0 1.80288-.79474.68435-.80209.68435-2.12665v-.30171zm2.70063-.55926v4.70219h-1.354v-1.25097q-.46359.75058-1.15531 1.11116-.69171.35321-1.69249.35321-1.26569 0-2.01628-.70643-.74322-.71379-.74322-1.90589 0-1.39079.92719-2.09722.93455-.70644 2.78158-.70644h1.89853v-.13245q0-.93455-.61813-1.4423-.61076-.51511-1.72192-.51511-.70644 0-1.37607.16925-.66964.16925-1.28777.50775v-1.25097q.74322-.28699 1.4423-.42681.69907-.14717 1.36135-.14717 1.78816 0 2.6712.92719.88304.92719.88304 2.81101zM829.38497 346.99197q.50775-.91248 1.21418-1.34664.70643-.43416 1.66306-.43416 1.28776 0 1.98684.90512.69907.89775.69907 2.56081v4.97446h-1.36135v-4.93031q0-1.18474-.41945-1.75872-.41944-.57397-1.28041-.57397-1.05228 0-1.66305.69907-.61077.69907-.61077 1.9059v4.65803h-1.36136v-4.93031q0-1.1921-.41944-1.75872-.41944-.57397-1.29512-.57397-1.03758 0-1.64835.70643-.61077.69907-.61077 1.89854v4.65803h-1.36135v-8.2417h1.36135v1.2804q.4636-.75794 1.11116-1.11851.64757-.36058 1.53796-.36058.89776 0 1.52325.45624.63284.45624.93455 1.32456zM838.95859 352.4153v4.37105h-1.36135v-11.37649h1.36135v1.25097q.42681-.73587 1.07437-1.08908.65492-.36058 1.56004-.36058 1.50116 0 2.43571 1.19211.94191 1.1921.94191 3.13479 0 1.94268-.94191 3.13479-.93455 1.1921-2.43571 1.1921-.90512 0-1.56004-.35321-.64756-.36058-1.07437-1.09645zm4.60653-2.87723q0-1.49381-.61813-2.34006-.61077-.8536-1.68513-.8536-1.07437 0-1.6925.8536-.61077.84625-.61077 2.34006 0 1.49381.61077 2.34741.61813.84625 1.6925.84625 1.07436 0 1.68513-.84625.61813-.8536.61813-2.34741zM847.21502 342.20148h1.35399v11.45008h-1.35399zM858.4517 349.19221v.66228h-6.22543q.0883 1.39815.83888 2.13401.75795.72851 2.10458.72851.78002 0 1.50853-.19133.73587-.19132 1.45701-.57397v1.28041q-.7285.30906-1.4938.47095-.76531.16189-1.55268.16189-1.97213 0-3.12744-1.14795-1.14795-1.14795-1.14795-3.10536 0-2.02363 1.08909-3.20837 1.09644-1.19211 2.95082-1.19211 1.66306 0 2.62704 1.07437.97135 1.067.97135 2.90667zm-1.354-.39737q-.0147-1.11116-.62548-1.77344-.60341-.66228-1.60419-.66228-1.13324 0-1.81759.64021-.677.6402-.78002 1.80287zM860.86534 351.78246h1.55268v1.8691h-1.55268z" style="line-height:1;text-align:center" transform="translate(-151 33) scale(.44567)"/></g><g transform="matrix(.58747 -.28706 .43634 .69146 -3 105)"><rect width="90.3" height="55.8" x="60" y="163" fill="#ccc" rx="6.8" ry="6.8"/><path fill="#6376cd" d="m 643.86719,422.63867 8.88476,14.07813 21.59766,2.88672 c 1.65227,-3.6786 1.81908,-8.23043 0.3418,-12.84766 z" transform="matrix(.34424 .1429 -.21723 .29246 11 -7)"/><path fill="#c0695e" d="M162.25313 116.93027H173.839095V122.31757049999999H162.25313z" transform="skewY(30) scale(.86603 1)"/><path fill="#6376cd" d="M162.25313 106.34693H173.839095V111.7342305H162.25313z" transform="skewY(30) scale(.86603 1)"/><path fill="#c0695e" d="M162.25313 95.763603H173.839095V101.1509035H162.25313z" transform="skewY(30) scale(.86603 1)"/><path fill="#6376cd" d="M162.25313 85.180275H173.839095V90.56757549999999H162.25313z" transform="skewY(30) scale(.86603 1)"/><path fill="#c0695e" d="M-81.111633 -147.51463H-69.525668V-142.1273295H-81.111633z" transform="skewY(30) scale(-.86603 -1)"/><path fill="#6376cd" d="M-81.111633 -158.09798H-69.525668V-152.7106795H-81.111633z" transform="skewY(30) scale(-.86603 -1)"/><path fill="#c0695e" d="M-81.111633 -168.68129H-69.525668V-163.29398949999998H-81.111633z" transform="skewY(30) scale(-.86603 -1)"/><path fill="#6376cd" d="M227.57031 421.94922V435.375c0 2.64485.39616 5.19367 1.13477 7.58984l31.16015 17.99024h5.62696V443.8418zM230.48242 263.62891c-1.85735 3.54824-2.91211 7.58916-2.91211 11.88671v6.79493l37.92188 21.89257V283.8418z" transform="translate(0 97) scale(.26458)"/><g style="line-height:0"><path d="M185.99517 229.85357q-7.32497 0-10.14985 1.67523-2.82489 1.67521-2.82489 5.71546 0 3.21904 2.10224 5.12419 2.13508 1.8723 5.78115 1.8723 5.02566 0 8.04763-3.54751 3.0548-3.58038 3.0548-9.49291v-1.34676zm12.05501-2.4964v20.98952h-6.04393v-5.58406q-2.06939 3.35042-5.15704 4.95995-3.08766 1.57667-7.55491 1.57667-5.64977 0-9.0002-3.15335-3.3176-3.1862-3.3176-8.50748 0-6.20818 4.13879-9.36153 4.17162-3.15336 12.41633-3.15336h8.47463v-.59125q0-4.17162-2.75918-6.43809-2.72634-2.29932-7.68629-2.29932-3.15336 0-6.14249.75549-2.98911.75549-5.7483 2.26646v-5.58406q3.3176-1.28105 6.43811-1.90514 3.12051-.65696 6.07677-.65696 7.98192 0 11.92362 4.13878 3.94169 4.13878 3.94169 12.54773zM210.49937 197.23606h6.04393v51.11063h-6.04393zM229.18957 211.55755h6.04393v36.78914h-6.04393zm0-14.32149h6.04393v7.65345h-6.04393zM274.35481 212.96998v5.64977q-2.56211-1.41245-5.15706-2.10223-2.5621-.72265-5.1899-.72265-5.87969 0-9.13158 3.7446-3.2519 3.71176-3.2519 10.44549 0 6.73374 3.2519 10.47834 3.25189 3.71176 9.13158 3.71176 2.6278 0 5.1899-.6898 2.59495-.72263 5.15706-2.13508v5.58406q-2.52926 1.18251-5.25559 1.77376-2.69351.59125-5.74831.59125-8.31041 0-13.20467-5.22273-4.89427-5.22274-4.89427-14.09156 0-9.00019 4.92712-14.15725 4.95996-5.15705 13.56598-5.15705 2.79204 0 5.45268.59126 2.66064.55841 5.15706 1.70806zM316.33383 228.44113v2.95627H288.5449q.39416 6.24102 3.74461 9.52577 3.38329 3.25189 9.39437 3.25189 3.48183 0 6.73372-.85403 3.28475-.85405 6.50379-2.5621v5.71546q-3.25189 1.37958-6.66802 2.10223-3.41613.72263-6.93082.72263-8.80311 0-13.96016-5.12419-5.1242-5.12421-5.1242-13.86163 0-9.03304 4.86142-14.32147 4.89427-5.3213 13.17182-5.3213 7.42354 0 11.72654 4.79574 4.33586 4.76288 4.33586 12.97473zm-6.04393-1.77376q-.0658-4.95997-2.79202-7.91624-2.69349-2.95626-7.16074-2.95626-5.05852 0-8.11332 2.85773-3.02198 2.85773-3.48185 8.04761zM236.42871 270.7168q0 2.79297 1.38672 4.39453 1.38672 1.58203 3.80859 1.58203 2.40235 0 3.76953-1.60156 1.38672-1.60157 1.38672-4.375 0-2.73438-1.40625-4.33594-1.40625-1.62109-3.78906-1.62109-2.36328 0-3.76953 1.60156-1.38672 1.60156-1.38672 4.35547zm10.64453 5.83984q-1.17187 1.50391-2.69531 2.22656-1.50391.70313-3.51563.70313-3.35937 0-5.46875-2.42188-2.08984-2.4414-2.08984-6.34765 0-3.90625 2.10938-6.34766 2.10937-2.44141 5.44921-2.44141 2.01172 0 3.53516.74219 1.52344.72266 2.67578 2.20703v-2.55859h2.79297v14.375q2.85156-.42969 4.45313-2.59766 1.62109-2.1875 1.62109-5.64453 0-2.08984-.625-3.92578-.60547-1.83594-1.85547-3.39844-2.03125-2.55859-4.96094-3.90625-2.91015-1.36718-6.34765-1.36718-2.40235 0-4.60938.64453-2.20703.625-4.08203 1.875-3.06641 1.99218-4.80469 5.23437-1.71875 3.22266-1.71875 6.99219 0 3.10547 1.11328 5.82031 1.13282 2.71485 3.26172 4.78516 2.05078 2.03125 4.7461 3.08594 2.69531 1.07421 5.76172 1.07421 2.51953 0 4.9414-.85937 2.44141-.83984 4.47266-2.42188l1.75781 2.16797q-2.44141 1.89453-5.33203 2.89063-2.87109 1.01562-5.83984 1.01562-3.61329 0-6.81641-1.28906-3.20313-1.26953-5.70313-3.71094-2.5-2.4414-3.80859-5.64453-1.30859-3.22265-1.30859-6.91406 0-3.55469 1.32812-6.77734 1.32813-3.22266 3.78906-5.66407 2.51954-2.48047 5.82032-3.78906 3.30078-1.32812 6.99218-1.32812 4.14063 0 7.67579 1.69921 3.55468 1.69922 5.95703 4.82422 1.46484 1.91407 2.22656 4.16016.78125 2.24609.78125 4.64844 0 5.13672-3.10547 8.10547-3.10547 2.96875-8.57422 3.08593zM128.87012 309.36914v1.75781h-16.52344q.23437 3.71094 2.22656 5.66407 2.01172 1.93359 5.58594 1.93359 2.07031 0 4.00391-.50781 1.95312-.50782 3.86718-1.52344v3.39844q-1.93359.82031-3.96484 1.25-2.03125.42968-4.12109.42968-5.23438 0-8.30079-3.04687-3.04687-3.04688-3.04687-8.24219 0-5.37109 2.89062-8.51562 2.91016-3.16407 7.83204-3.16407 4.41406 0 6.97265 2.85157 2.57813 2.83203 2.57813 7.71484zm-3.59375-1.05469q-.0391-2.94922-1.66016-4.70703-1.60156-1.75781-4.25781-1.75781-3.00781 0-4.82422 1.69922-1.79688 1.69922-2.07031 4.78515zM152.24902 299.33008l-7.91015 10.64453 8.32031 11.23047h-4.23828l-6.36719-8.59375-6.36719 8.59375h-4.23828l8.4961-11.44531-7.77344-10.42969h4.23828l5.80078 7.79297 5.80078-7.79297zM167.67871 310.20898q-4.35547 0-6.03516.9961-1.67968.99609-1.67968 3.39844 0 1.91406 1.25 3.04687 1.26953 1.11328 3.4375 1.11328 2.98828 0 4.78515-2.10937 1.81641-2.12891 1.81641-5.64453v-.80079zm7.16797-1.48437v12.48047h-3.59375v-3.32031q-1.23047 1.99218-3.06641 2.94921-1.83593.9375-4.49218.9375-3.35938 0-5.35157-1.875-1.97265-1.89453-1.97265-5.05859 0-3.69141 2.46093-5.56641 2.48047-1.875 7.38282-1.875h5.03906v-.35156q0-2.48047-1.64063-3.82812-1.62109-1.36719-4.57031-1.36719-1.875 0-3.65234.44922-1.77735.44922-3.41797 1.34765v-3.32031q1.97266-.76172 3.82812-1.13281 1.85547-.39063 3.61329-.39063 4.74609 0 7.08984 2.46094 2.34375 2.46094 2.34375 7.46094zM199.28027 303.5293q1.34766-2.42188 3.22266-3.57422 1.875-1.15235 4.41406-1.15235 3.41797 0 5.27344 2.40235 1.85547 2.38281 1.85547 6.79687v13.20313h-3.61328v-13.08594q0-3.14453-1.11328-4.66797-1.11329-1.52344-3.39844-1.52344-2.79297 0-4.41406 1.85547-1.6211 1.85547-1.6211 5.0586v12.36328h-3.61328v-13.08594q0-3.16406-1.11328-4.66797-1.11328-1.52344-3.4375-1.52344-2.75391 0-4.375 1.875-1.62109 1.85547-1.62109 5.03907v12.36328h-3.61329v-21.875h3.61329v3.39844q1.23046-2.01172 2.94921-2.96875 1.71875-.95704 4.08204-.95704 2.38281 0 4.04296 1.21094 1.67969 1.21094 2.48047 3.51563zM224.69043 317.92383v11.60156h-3.61328v-30.19531h3.61328v3.32031q1.13281-1.95312 2.85156-2.89062 1.73828-.95704 4.14063-.95704 3.98437 0 6.46484 3.16407 2.5 3.16406 2.5 8.32031 0 5.15625-2.5 8.32031-2.48047 3.16406-6.46484 3.16406-2.40235 0-4.14063-.9375-1.71875-.95703-2.85156-2.91015zm12.22656-7.63672q0-3.96484-1.64062-6.21094-1.6211-2.26562-4.47266-2.26562-2.85156 0-4.49219 2.26562-1.62109 2.2461-1.62109 6.21094 0 3.96484 1.62109 6.23047 1.64063 2.24609 4.49219 2.24609 2.85156 0 4.47266-2.24609 1.64062-2.26563 1.64062-6.23047zM246.60449 290.81445h3.59375v30.39063h-3.59375zM276.42871 309.36914v1.75781h-16.52344q.23438 3.71094 2.22657 5.66407 2.01171 1.93359 5.58593 1.93359 2.07032 0 4.00391-.50781 1.95312-.50782 3.86719-1.52344v3.39844q-1.9336.82031-3.96485 1.25-2.03125.42968-4.12109.42968-5.23438 0-8.30078-3.04687-3.04688-3.04688-3.04688-8.24219 0-5.37109 2.89063-8.51562 2.91015-3.16407 7.83203-3.16407 4.41406 0 6.97266 2.85157 2.57812 2.83203 2.57812 7.71484zm-3.59375-1.05469q-.0391-2.94922-1.66016-4.70703-1.60156-1.75781-4.25781-1.75781-3.00781 0-4.82422 1.69922-1.79687 1.69922-2.07031 4.78515zM282.83496 316.24414h4.12109v4.96094h-4.12109zM310.78418 300.16992v3.35938q-1.52344-.83985-3.06641-1.25-1.52343-.42969-3.08593-.42969-3.4961 0-5.42969 2.22656-1.9336 2.20703-1.9336 6.21094 0 4.00391 1.9336 6.23047 1.93359 2.20703 5.42969 2.20703 1.5625 0 3.08593-.41016 1.54297-.42968 3.06641-1.26953v3.32031q-1.50391.70313-3.125 1.05469-1.60156.35156-3.41797.35156-4.94141 0-7.85156-3.10546-2.91016-3.10547-2.91016-8.37891 0-5.35156 2.92969-8.41797 2.94922-3.06641 8.06641-3.06641 1.66015 0 3.24218.35157 1.58203.33203 3.06641 1.01562zM325.51074 301.84961q-2.89062 0-4.57031 2.26562-1.67969 2.2461-1.67969 6.17188 0 3.92578 1.66016 6.19141 1.67969 2.24609 4.58984 2.24609 2.8711 0 4.55078-2.26563 1.67969-2.26562 1.67969-6.17187 0-3.88672-1.67969-6.15234-1.67968-2.28516-4.55078-2.28516zm0-3.04688q4.6875 0 7.36328 3.04688 2.67578 3.04687 2.67578 8.4375 0 5.37109-2.67578 8.4375-2.67578 3.04687-7.36328 3.04687-4.70703 0-7.38281-3.04687-2.65625-3.06641-2.65625-8.4375 0-5.39063 2.65625-8.4375 2.67578-3.04688 7.38281-3.04688zM358.53809 303.5293q1.34765-2.42188 3.22265-3.57422 1.875-1.15235 4.41406-1.15235 3.41797 0 5.27344 2.40235 1.85547 2.38281 1.85547 6.79687v13.20313h-3.61328v-13.08594q0-3.14453-1.11328-4.66797-1.11328-1.52344-3.39844-1.52344-2.79297 0-4.41406 1.85547-1.6211 1.85547-1.6211 5.0586v12.36328h-3.61328v-13.08594q0-3.16406-1.11328-4.66797-1.11328-1.52344-3.4375-1.52344-2.7539 0-4.375 1.875-1.62109 1.85547-1.62109 5.03907v12.36328h-3.61328v-21.875h3.61328v3.39844q1.23047-2.01172 2.94922-2.96875 1.71875-.95704 4.08203-.95704 2.38281 0 4.04297 1.21094 1.67968 1.21094 2.48047 3.51563z" aria-label="alice @ example.com" font-family="sans-serif" font-size="40" font-weight="400" letter-spacing="0" style="line-height:1;text-align:center" text-anchor="middle" transform="matrix(.2402 -.00089 -.00717 .22037 50 143)" word-spacing="0"/></g><path fill="#b3b3b3" d="m 66.978793,163.12889 c -3.608954,0 -6.539674,2.79681 -6.754111,6.35 h -0.01394 l 40.497438,13.94941 c 5.14717,1.77295 5.47453,1.68869 10.9615,-0.24535 l 38.87921,-13.70406 h -0.0139 c -0.21444,-3.55319 -3.14464,-6.35 -6.75359,-6.35 z"/></g><path fill="none" stroke="#888" stroke-linecap="round" stroke-opacity=".6" stroke-width="3" d="m 100.63324,211.46174 c -10.256705,5.3541 -20.513491,10.70824 -30.770351,16.06242" transform="translate(2 1)"/><path fill="none" stroke="#888" stroke-linecap="round" stroke-opacity=".6" stroke-width="3" d="M 100.63324,211.46174 C 80.119854,222.16999 59.606155,232.8784 39.092142,243.58697" transform="translate(7 12)"/><path fill="none" stroke="#888" stroke-linecap="round" stroke-opacity=".6" stroke-width="3" d="m 100.63324,211.46174 c -10.256706,5.3541 -20.513487,10.70824 -30.770352,16.06242" transform="translate(13 22)"/><path fill="#fcba8c" d="m 870.22852,660.33594 c -6.33372,0.0206 -9.07415,5.72195 -13.81836,10.12695 -6.0726,5.6384 -10.6884,7.05765 -15.57153,3.50892 -4.88313,-3.54873 -3.6094,-12.0481 -11.26933,-9.29376 -7.65993,2.75434 -24.41777,14.09186 -38.73336,21.32976 -14.31559,7.23791 -31.9899,8.76812 -44.75196,13.50196 -12.76205,4.73383 -20.60783,12.66949 -16.29687,16.63867 4.31096,3.96918 20.77393,3.97028 36.82812,7.26367 16.0542,3.29338 31.69595,9.8804 58.45313,11.11523 26.75718,1.23484 64.63256,-2.88233 96.46289,-5.56836 31.83033,-2.68602 57.61938,-3.94231 56.05078,-8.375 -1.5686,-4.43268 -30.49408,-12.04314 -53.09375,-25.04882 -22.59967,-13.00568 -36.72622,-28.9799 -47.9707,-33.72657 -2.45973,-1.03833 -4.51562,-1.47842 -6.28906,-1.47265 z" transform="translate(0 97) scale(.26458)"/><path fill="#d78161" d="m 870.22852,660.33594 c -6.33372,0.0206 -9.07415,5.72195 -13.81836,10.12695 -6.0726,5.6384 -10.6884,7.05765 -15.57153,3.50892 -4.88313,-3.54873 -3.6094,-12.0481 -11.26933,-9.29376 -7.65993,2.75434 -24.41777,14.09186 -38.73336,21.32976 -14.31559,7.23791 -31.9899,8.76812 -44.75196,13.50196 -12.76205,4.73383 -20.60783,12.66949 -16.29687,16.63867 4.31096,3.96918 20.77393,3.97028 36.82812,7.26367 16.0542,3.29338 31.69595,9.8804 58.45313,11.11523 26.75718,1.23484 64.63256,-2.88233 96.46289,-5.56836 8.86242,-0.74786 17.15331,-1.38422 24.61914,-2.00976 0.01,-0.17981 0.0303,-0.35677 0.0156,-0.54297 -0.7697,-9.79473 -35.27852,-28.5056 -51.5,-44.70313 -6.31307,-6.30374 -9.87865,-11.94004 -12.12696,-16.55078 -2.10569,-1.38623 -4.10988,-2.5368 -6.02148,-3.34375 -2.45973,-1.03833 -4.51562,-1.47842 -6.28906,-1.47265 z" transform="translate(0 97) scale(.26458)"/><path fill="#fcba8c" d="m 214.74477,277.70853 c -1.99684,1.6623 -5.13441,3.81815 -7.96326,5.0963 -2.82886,1.27815 -5.34807,1.67803 -4.44807,2.27799 0.9,0.59995 5.21848,1.39967 8.4377,0.61975 3.21922,-0.77992 5.33884,-3.13949 6.42619,-5.13001 1.08736,-1.99051 1.17992,-4.69737 0.78953,-5.19562 -0.3904,-0.49825 -1.24525,0.66929 -3.24209,2.33159 z"/><path fill="#fcba8c" d="m 214.03093,283.979 c -0.16569,1.64119 0.65489,2.62363 2.02559,3.37157 1.37069,0.74795 3.29049,1.26087 4.77728,1.15365 1.48679,-0.10722 2.53959,-0.83432 1.65147,-1.3878 -0.88813,-0.55347 -3.71722,-0.93349 -5.03831,-2.46733 -1.32108,-1.53384 -1.13397,-4.22119 -1.6163,-4.41546 -0.48234,-0.19427 -1.63405,2.10418 -1.79973,3.74537 z" transform="translate(13)"/><path fill="#262626" stroke-width=".3" d="M236.56334 187.3485q-.49011 0-.7749.38414-.28479.38082-.28479 1.04644 0 .66561.28148 1.04975.28479.38083.77821.38083.48679 0 .77158-.38414.28479-.38414.28479-1.04644 0-.65899-.28479-1.04313-.28479-.38745-.77158-.38745zm0-.51659q.79476 0 1.24844.51659.45368.5166.45368 1.43058 0 .91067-.45368 1.43058-.45368.51659-1.24844.51659-.79808 0-1.25176-.51659-.45036-.51991-.45036-1.43058 0-.91398.45036-1.43058.45368-.51659 1.25176-.51659zM241.42465 187.4909q-.10266-.0596-.22518-.0861-.11922-.0298-.26493-.0298-.51659 0-.79476.33778-.27486.33446-.27486.96365v1.9538h-.61263v-3.7089h.61263v.5762q.19207-.33777.50004-.50004.30797-.16557.74841-.16557.0629 0 .13908.01.0762.007.16889.0232zM244.38515 188.73272q0-.66231-.27486-1.02657-.27154-.36427-.76496-.36427-.4901 0-.76496.36427-.27154.36426-.27154 1.02657 0 .65899.27154 1.02326.27486.36426.76496.36426.49342 0 .76496-.36426.27486-.36427.27486-1.02326zm.60932 1.4372q0 .94709-.42056 1.40739-.42057.46362-1.28819.46362-.32121 0-.606-.0497-.28479-.0464-.55303-.1457v-.59277q.26824.14571.52985.21525.26161.0695.53315.0695.59939 0 .89742-.31459.29804-.31128.29804-.94378v-.30135q-.18876.32784-.48348.4901-.29473.16227-.70536.16227-.68217 0-1.09942-.51991-.41725-.51991-.41725-1.37759 0-.861.41725-1.38091.41725-.5199 1.09942-.5199.41063 0 .70536.16226.29472.16226.48348.4901v-.56295h.60932z" aria-label="org" font-family="sans-serif" font-size="6.8" font-weight="400" letter-spacing="0" word-spacing="0"/></g></svg>