<svg xmlns="http://www.w3.org/2000/svg" viewBox="0 0 400 200"><g transform="translate(0 -97)"><g transform="translate(-41 -70) scale(1.25874)"><path fill="#ffebdb" stroke="#000" stroke-linecap="round" stroke-linejoin="round" stroke-width="3" d="m 140,277 c 0,0 0,-80 0,-80 0,0 20,-20 20,-20 0,0 0,-40 0,-40 0,0 20,0 20,0 0,0 0,20 0,20 0,0 20,-20 20,-20 0,0 53.68646,53.68646 53.68646,53.68646 0,0 6.31354,6.31354 6.31354,6.31354 0,0 0,80 0,80 0,0 -120,0 -120,0 z" transform="translate(-40)"/><path fill="#4b2623" fill-opacity=".2" d="m 100,197 c 0,0 120,10 120,10 0,0 0,-10 0,-10 0,0 -120,0 -120,0 z"/><path fill="#edbca5" d="m 120,137 c 0,0 20,0 20,0 0,0 0,20 0,20 0,0 -20,20 -20,20 0,0 0,-40 0,-40 z"/><path fill="#d78161" d="m 377.95312,529.13477 v 18.89648 h 28.34571 c 5.23464,0 9.44922,-4.21457 9.44922,-9.44922 0,-5.23464 -4.21458,-9.44726 -9.44922,-9.44726 z" transform="matrix(-.26458 0 0 .26458 240 -3)"/><path fill="#f8dac6" d="m 377.95312,548.03125 v 18.89844 h 9.44922 c 5.23465,0 9.44727,-4.21458 9.44727,-9.44922 0,-5.23465 -4.21262,-9.44922 -9.44727,-9.44922 z" transform="matrix(-.26458 0 0 .26458 240 -3)"/><path fill="#fcba8c" d="m 377.95312,566.92969 v 18.89648 h 28.34571 c 5.23464,0 9.44922,-4.21262 9.44922,-9.44726 0,-5.23465 -4.21458,-9.44922 -9.44922,-9.44922 z" transform="matrix(-.26458 0 0 .26458 240 -3)"/><path fill="#dc8f72" d="m 100,252 v 5.00021 h 2.5001 c 1.385,0 2.49959,-1.11511 2.49959,-2.50011 0,-1.385 -1.11459,-2.5001 -2.49959,-2.5001 z" transform="matrix(-1 0 0 1 240 -100)"/><path fill="#d78161" d="m 377.95312,529.13477 v 18.89648 h 28.34571 c 5.23464,0 9.44922,-4.21457 9.44922,-9.44922 0,-5.23464 -4.21458,-9.44726 -9.44922,-9.44726 z" transform="matrix(-.26458 0 0 .26458 320 57)"/><path fill="#f8dac6" d="m 377.95312,548.03125 v 18.89844 h 9.44922 c 5.23465,0 9.44727,-4.21458 9.44727,-9.44922 0,-5.23465 -4.21262,-9.44922 -9.44727,-9.44922 z" transform="matrix(-.26458 0 0 .26458 320 57)"/><path fill="#edbca5" d="m 377.95312,566.92969 v 18.89648 h 28.34571 c 5.23464,0 9.44922,-4.21262 9.44922,-9.44726 0,-5.23465 -4.21458,-9.44922 -9.44922,-9.44922 z" transform="matrix(-.26458 0 0 .26458 320 57)"/><path fill="#fcba8c" d="m 377.95312,642.51953 v 18.89844 h 28.34571 c 5.23464,0 9.44922,-4.21457 9.44922,-9.44922 0,-5.23465 -4.21458,-9.44922 -9.44922,-9.44922 z" transform="matrix(-.26458 0 0 .26458 320 57)"/><path fill="#d78161" d="m 377.95312,661.41797 v 18.89648 h 9.44922 c 5.23465,0 9.44727,-4.21457 9.44727,-9.44922 0,-5.23464 -4.21262,-9.44726 -9.44727,-9.44726 z" transform="matrix(-.26458 0 0 .26458 320 57)"/><path fill="#edbca5" d="M 100,262.0003 V 267 h 2.5001 c 1.385,0 2.49959,-1.11511 2.49959,-2.50011 0,-1.385 -1.11459,-2.49959 -2.49959,-2.49959 z" transform="matrix(-1 0 0 1 320 -40)"/><path fill="#dc8f72" d="m 100,252 v 5.00021 h 2.5001 c 1.385,0 2.49959,-1.11511 2.49959,-2.50011 0,-1.385 -1.11459,-2.5001 -2.49959,-2.5001 z" transform="matrix(-1 0 0 1 320 -40)"/><rect width="15" height="5" x="135" y="212" fill="#fcba8c" ry="2.4"/><rect width="10" height="5" x="135" y="207" fill="#edbca5" ry="2.5"/><rect width="20" height="20" x="120" y="207" fill="#b7bec8" rx="0" ry="0"/><path fill="#d0d6da" d="M139.58188 207.00016l-11.5471 19.99981h4.22558l7.73958-13.40538v-6.59443zM121.49358 207.00016l-1.49345 2.58692v15.56752l10.48153-18.15444z"/><rect width="20" height="20" x="120" y="207" fill="none" stroke="#80403c" stroke-dashoffset="24.9" stroke-linecap="round" stroke-linejoin="round" stroke-width="3" rx="0" ry="0"/><path fill="#fff" stroke="#fefefe" stroke-dashoffset="24.9" stroke-linecap="round" stroke-linejoin="round" stroke-width="3" d="m 124.8877,211.8877 h 10.26497 -10.26497 v 2.26621"/><path fill="#fff" stroke="#fefefe" stroke-linecap="round" stroke-width="3" d="m 164.8877,256.72498 c 0,0.69151 0,1.38703 0,2.08077" transform="translate(-40 -38)"/><rect width="20" height="20" x="180" y="207" fill="#b7bec8" rx="0" ry="0"/><path fill="#d0d6da" d="M199.72943 207.00013l-11.5471 19.99981h4.22558l7.73958-13.40538v-6.59443zM181.64113 207.00013l-1.49345 2.58692v15.56752l10.48153-18.15444z"/><rect width="20" height="20" x="180" y="207" fill="none" stroke="#80403c" stroke-dashoffset="24.9" stroke-linecap="round" stroke-linejoin="round" stroke-width="3" rx="0" ry="0"/><path fill="#fff" stroke="#fefefe" stroke-dashoffset="24.9" stroke-linecap="round" stroke-linejoin="round" stroke-width="3" d="m 185.03525,211.88767 h 10.26497 -10.26497 v 2.26621"/><path fill="#fff" stroke="#fefefe" stroke-linecap="round" stroke-width="3" d="m 164.8877,256.72498 c 0,-0.0122 0,-0.0242 0,-0.0359" transform="translate(20 -38)"/><path fill="#c0695e" stroke="#80403c" stroke-dashoffset="24.9" stroke-linecap="round" stroke-linejoin="round" stroke-width="3" d="M180.14755 246.99997H200.14755V276.99996999999996H180.14755z"/><rect width="20" height="20" x="120" y="247" fill="#b7bec8" rx="0" ry="0"/><path fill="#d0d6da" d="M139.72944 247.00013l-11.5471 19.99981h4.22559l7.73958-13.40538v-6.59443zM121.64114 247.00013l-1.49345 2.58692v15.56752l10.48153-18.15444z"/><rect width="20" height="20" x="120" y="247" fill="none" stroke="#80403c" stroke-dashoffset="24.9" stroke-linecap="round" stroke-linejoin="round" stroke-width="3" rx="0" ry="0"/><path fill="#fff" stroke="#fefefe" stroke-dashoffset="24.9" stroke-linecap="round" stroke-linejoin="round" stroke-width="3" d="m 125.03527,251.88767 h 10.26497 -10.26497 v 2.26621"/><path fill="#fff" stroke="#fefefe" stroke-linecap="round" stroke-width="3" d="m 164.8877,256.72498 c 0,-0.0122 0,-0.0242 0,-0.0359" transform="translate(-40 2)"/><path fill="none" stroke="#d9917a" stroke-dashoffset="24.9" stroke-linecap="round" stroke-linejoin="round" stroke-width="3" d="m 184.35704,255.99656 v -4.6 h 12.0625"/><path fill="none" stroke="#d9917a" stroke-linecap="round" stroke-width="3" d="m 224.20947,260.22992 c 0,0.67374 0,1.34773 0,2.02199" transform="translate(-40)"/><path fill="none" d="m 100.0001,261.99974 v 5.00022 h 2.5001 c 1.385,0 2.49959,-1.11511 2.49959,-2.50011 0,-1.385 -1.11459,-2.50011 -2.49959,-2.50011 z"/><path fill="#d78161" d="m 377.95312,529.13477 v 18.89648 h 28.34571 c 5.23464,0 9.44922,-4.21457 9.44922,-9.44922 0,-5.23464 -4.21458,-9.44726 -9.44922,-9.44726 z" transform="translate(0 97) scale(.26458)"/><path fill="#f8dac6" d="m 377.95312,548.03125 v 18.89844 h 9.44922 c 5.23465,0 9.44727,-4.21458 9.44727,-9.44922 0,-5.23465 -4.21262,-9.44922 -9.44727,-9.44922 z" transform="translate(0 97) scale(.26458)"/><path fill="#edbca5" d="m 377.95312,566.92969 v 18.89648 h 28.34571 c 5.23464,0 9.44922,-4.21262 9.44922,-9.44726 0,-5.23465 -4.21458,-9.44922 -9.44922,-9.44922 z" transform="translate(0 97) scale(.26458)"/><path fill="#fcba8c" d="m 377.95312,642.51953 v 18.89844 h 28.34571 c 5.23464,0 9.44922,-4.21457 9.44922,-9.44922 0,-5.23465 -4.21458,-9.44922 -9.44922,-9.44922 z" transform="translate(0 97) scale(.26458)"/><path fill="#d78161" d="m 377.95312,661.41797 v 18.89648 h 9.44922 c 5.23465,0 9.44727,-4.21457 9.44727,-9.44922 0,-5.23464 -4.21262,-9.44726 -9.44727,-9.44726 z" transform="translate(0 97) scale(.26458)"/><path fill="#edbca5" d="M 100,262.0003 V 267 h 2.5001 c 1.385,0 2.49959,-1.11511 2.49959,-2.50011 0,-1.385 -1.11459,-2.49959 -2.49959,-2.49959 z"/><path fill="#dc8f72" d="m 100,252 v 5.00021 h 2.5001 c 1.385,0 2.49959,-1.11511 2.49959,-2.50011 0,-1.385 -1.11459,-2.5001 -2.49959,-2.5001 z"/><path fill="#d78161" d="M219.99995 267.00031V272h-7.4998c-1.385 0-2.50011-1.1151-2.50011-2.5001 0-1.385 1.11511-2.49959 2.50011-2.49959zM220 241.99969v5.00022h-2.50011c-1.385 0-2.49959-1.11511-2.49959-2.50011 0-1.385 1.11459-2.50011 2.49959-2.50011z"/><path fill="#edbca5" d="M 220,237.00031 V 242 h -7.4998 c -1.385,0 -2.50011,-1.11459 -2.50011,-2.4996 0,-1.38499 1.11511,-2.5001 2.50011,-2.5001 z"/><path fill="#fcba8c" d="m 220,252 v 5.00021 h -7.4998 c -1.385,0 -2.50011,-1.11511 -2.50011,-2.50011 0,-1.385 1.11511,-2.5001 2.50011,-2.5001 z"/><path fill="#edbca5" d="m 220.00009,262.00006 v 4.9997 h -2.5001 c -1.385,0 -2.49959,-1.11511 -2.49959,-2.50011 0,-1.385 1.11459,-2.49959 2.49959,-2.49959 z"/><path fill="#fcba8c" d="M 220,271.99979 V 277 h -2.5001 c -1.385,0 -2.49959,-1.11511 -2.49959,-2.50011 0,-1.385 1.11459,-2.5001 2.49959,-2.5001 z"/><path fill="#d78161" d="M219.99995 267.00031V272h-7.4998c-1.385 0-2.50011-1.1151-2.50011-2.5001 0-1.385 1.11511-2.49959 2.50011-2.49959zM220 241.99969v5.00022h-2.50011c-1.385 0-2.49959-1.11511-2.49959-2.50011 0-1.385 1.11459-2.50011 2.49959-2.50011z" transform="matrix(-1 0 0 1 320 -40)"/><path fill="#edbca5" d="M 220,237.00031 V 242 h -7.4998 c -1.385,0 -2.50011,-1.11459 -2.50011,-2.4996 0,-1.38499 1.11511,-2.5001 2.50011,-2.5001 z" transform="matrix(-1 0 0 1 320 -40)"/><path fill="#fcba8c" d="m 220,252 v 5.00021 h -7.4998 c -1.385,0 -2.50011,-1.11511 -2.50011,-2.50011 0,-1.385 1.11511,-2.5001 2.50011,-2.5001 z" transform="matrix(-1 0 0 1 320 -40)"/><path fill="#edbca5" d="m 220.00009,262.00006 v 4.9997 h -2.5001 c -1.385,0 -2.49959,-1.11511 -2.49959,-2.50011 0,-1.385 1.11459,-2.49959 2.49959,-2.49959 z" transform="matrix(-1 0 0 1 320 -40)"/><path fill="#fcba8c" d="M 220,271.99979 V 277 h -2.5001 c -1.385,0 -2.49959,-1.11511 -2.49959,-2.50011 0,-1.385 1.11459,-2.5001 2.49959,-2.5001 z" transform="matrix(-1 0 0 1 320 -40)"/><path fill="#4d4d4d" stroke="#4b2623" stroke-width="3" d="m 139.49742,238.5 c 39.93277,0 79.33531,0 119.00258,0" transform="translate(-38 -1)"/><path fill="#4b2623" fill-opacity=".2" d="m 100,197 c 0,0 120,10 120,10 0,0 0,-10 0,-10 0,0 -120,0 -120,0 z" transform="translate(0 40)"/><path fill="#d78161" d="m 377.95312,529.13477 v 18.89648 h 18.34571 c 5.23464,0 -18.34571,-18.89648 -18.34571,-18.89648 z" transform="matrix(.26458 0 0 -.26458 20 317)"/><path fill="#fcba8c" d="m 377.95312,548.03125 v 18.89844 h 9.44922 c 5.23465,0 9.44727,-4.21458 9.44727,-9.44922 0,-5.23465 -4.21262,-9.44922 -9.44727,-9.44922 z" transform="matrix(.26458 0 0 -.26458 20 317)"/><path fill="#f8dac6" d="m 377.95312,566.92969 v 18.89648 h 28.34571 c 5.23464,0 9.44922,-4.21262 9.44922,-9.44726 0,-5.23465 -4.21458,-9.44922 -9.44922,-9.44922 z" transform="matrix(.26458 0 0 -.26458 20 317)"/><path fill="#fcba8c" d="m 377.95312,642.51953 v 18.89844 h 28.34571 c 5.23464,0 9.44922,-4.21457 9.44922,-9.44922 0,-5.23465 -4.21458,-9.44922 -9.44922,-9.44922 z" transform="matrix(.26458 0 0 -.26458 20 317)"/><path fill="#d78161" d="m 377.95312,661.41797 v 18.89648 h 9.44922 c 5.23465,0 9.44727,-4.21457 9.44727,-9.44922 0,-5.23464 -4.21262,-9.44726 -9.44727,-9.44726 z" transform="matrix(.26458 0 0 -.26458 20 317)"/><path fill="#f8dac6" d="M 100,262.0003 V 267 h 2.5001 c 1.385,0 2.49959,-1.11511 2.49959,-2.50011 0,-1.385 -1.11459,-2.49959 -2.49959,-2.49959 z" transform="matrix(1 0 0 -1 20 414)"/><path fill="#dc8f72" d="m 100,252 v 5.00021 h 2.5001 c 1.385,0 2.49959,-1.11511 2.49959,-2.50011 0,-1.385 -1.11459,-2.5001 -2.49959,-2.5001 z" transform="matrix(1 0 0 -1 20 414)"/><path fill="#d9917a" fill-opacity=".3" d="m 100,197 c 0,0 120,0 120,0 0,0 -60,-60 -60,-60 0,0 -60,60 -60,60 z"/><rect width="10" height="5" x="150" y="247" fill="#edbca5" ry="2.5"/><rect width="10" height="5" x="155" y="252" fill="#fcba8c" ry="2.5"/><path fill="#4d4d4d" stroke="#4b2623" stroke-linecap="round" stroke-linejoin="round" stroke-width="3" d="m 138.5,198.5 c 39.85234,0 80.00026,0 120,0" transform="translate(-38 -1)"/><path fill="none" stroke="#4b2623" stroke-linecap="round" stroke-width="3" d="M225 202c-1.66667-1.66667-3.33333-3.33334-5-5M100 197c-1.666402 1.6664-3.33307 3.33307-5.000001 5"/><rect width="10" height="5" x="140" y="177" fill="#d78161" ry="2.5"/><rect width="10" height="5" x="145" y="172" fill="#d78161" ry="2.5"/><path fill="#80403c" d="m 160.00005,137.00014 -4.26951,4.26951 c 0.4519,0.45177 1.07691,0.73019 1.7694,0.73019 h 5.00022 c 0.6925,0 1.31762,-0.27842 1.7694,-0.73019 z m -9.9999,9.99991 -4.26951,4.2695 c 0.4519,0.45178 1.0769,0.73019 1.7694,0.73019 h 5.00021 c 1.385,0 2.49959,-1.11459 2.49959,-2.49959 0,-1.38499 -1.11459,-2.5001 -2.49959,-2.5001 z m 17.4997,0 c -1.385,0 -2.50011,1.11511 -2.50011,2.5001 0,1.385 1.11511,2.49959 2.50011,2.49959 h 5.00021 c 0.6925,0 1.3175,-0.27841 1.7694,-0.73019 l -4.2695,-4.2695 z m -27.49961,9.9999 -4.26951,4.26951 c 0.4519,0.4519 1.0769,0.73071 1.7694,0.73071 h 4.9997 c 1.385,0 2.5001,-1.11511 2.5001,-2.50011 0,-1.385 -1.1151,-2.50011 -2.5001,-2.50011 z m 37.49952,0 c -1.385,0 -2.49959,1.11511 -2.49959,2.50011 0,1.385 1.11459,2.50011 2.49959,2.50011 h 5.00021 c 0.6925,0 1.3175,-0.27881 1.7694,-0.73071 l -4.26951,-4.26951 z m -47.49943,9.99991 -4.26951,4.26951 c 0.45191,0.4519 1.07691,0.7307 1.7694,0.7307 h 4.9997 c 1.385,0 2.50011,-1.1151 2.50011,-2.5001 0,-1.385 -1.11511,-2.50011 -2.50011,-2.50011 z m 57.49985,0 c -1.385,0 -2.50011,1.11511 -2.50011,2.50011 0,1.385 1.11511,2.5001 2.50011,2.5001 h 4.99969 c 0.69251,0 1.31751,-0.2788 1.76941,-0.7307 l -4.26951,-4.26951 z m -67.49975,9.99991 -4.26951,4.2695 c 0.45175,0.45175 1.07652,0.73071 1.76888,0.73071 h 5.00022 c 1.38499,0 2.5001,-1.11511 2.5001,-2.50011 0,-1.385 -1.11511,-2.5001 -2.5001,-2.5001 z m 77.49966,0 c -1.385,0 -2.50011,1.1151 -2.50011,2.5001 0,1.385 1.11511,2.50011 2.50011,2.50011 h 4.99969 c 0.6925,0 1.3175,-0.2788 1.7694,-0.73071 l -4.2695,-4.2695 z M 110,187.00019 l -4.26899,4.26899 c 0.45188,0.45174 1.07653,0.73071 1.76889,0.73071 h 5.00021 c 1.385,0 2.5001,-1.11511 2.5001,-2.50011 0,-1.385 -1.1151,-2.49959 -2.5001,-2.49959 z m 97.49999,0 c -1.385,0 -2.5001,1.11459 -2.5001,2.49959 0,1.385 1.1151,2.50011 2.5001,2.50011 h 5.00021 c 0.69237,0 1.31714,-0.27897 1.76889,-0.73071 l -4.26899,-4.26899 z"/><path fill="none" stroke="#4b2623" stroke-linecap="round" stroke-linejoin="round" stroke-width="3" d="m 140,277 c 0,0 0,-80 0,-80 0,0 20,-20 20,-20 0,0 0,-40 0,-40 0,0 20,0 20,0 0,0 0,20 0,20 0,0 20,-20 20,-20 0,0 53.68646,53.68646 53.68646,53.68646 0,0 6.31354,6.31354 6.31354,6.31354 0,0 0,80 0,80 0,0 -120,0 -120,0 z" transform="translate(-40)"/><path fill="none" stroke="#4b2623" stroke-linecap="round" stroke-width="3" d="m 120,177 c 6.66693,-6.66693 13.3336,-13.3336 20,-20"/><path fill="#4b2623" fill-opacity=".2" d="m 140.00024,156.99996 c 0,0 -20.00034,8.70407 -20.00034,8.70407 0,0 1e-4,11.2956 1e-4,11.2956 0,0 20.00024,-19.99967 20.00024,-19.99967"/></g><rect width="285" height="26.9" x="414" y="445" fill="#4d4d4d" rx="9.3" ry="9.3" transform="skewX(-51) scale(1 .62884)"/><path fill="#f9f9f9" stroke="#fff" stroke-dasharray="23 23" stroke-dashoffset="29.5" stroke-linecap="round" stroke-width="3.8" d="M 57.545254,288.53334 H 342.58846"/><path fill="gray" stroke="#686868" stroke-linecap="round" stroke-width="6" d="M 332.21366,280.06667 V 221.54925"/><path fill="gray" stroke="#adadad" stroke-linecap="round" stroke-width="3" d="m 333.71381,280.06667 v -7.51311 -7.51312 m 0,-5.92562 v -0.10478 m 0,-5.92561 v -18.09645"/><rect width="68.8" height="16.5" x="267" y="216" fill="#3549a5" rx="5.6" ry="5.6"/><path fill="#6376cd" d="m 272.08313,215.8005 c -3.11158,0 -5.6162,2.50513 -5.6162,5.61671 v 0.44649 h 68.84336 v -0.44649 c 0,-3.11158 -2.50515,-5.61671 -5.61673,-5.61671 z"/><text x="272" y="227" fill="snow" stroke-width=".2" font-family="sans-serif" font-size="9.3" font-weight="400" letter-spacing="0" style="line-height:1.25" word-spacing="0"><tspan x="272" y="227">example.org</tspan></text></g></svg>