<svg xmlns="http://www.w3.org/2000/svg" viewBox="0 0 400 200"><g transform="translate(0 -97)"><path fill="#ffebdb" d="m 142.8138,128.46372 c -6.18905,0 -11.17139,4.98234 -11.17139,11.17141 0,6.18908 4.98234,11.17141 11.17139,11.17141 h 117.39438 c 6.18908,0 11.17143,-4.98233 11.17143,-11.17141 0,-6.18907 -4.98235,-11.17141 -11.17143,-11.17141 h -55.65653 -11.37348 z m -0.90588,22.34334 c 6.18908,0 11.17193,4.98234 11.17193,11.17141 0,6.18907 -4.98285,11.17141 -11.17193,11.17141 h -10.20765 c -6.18908,0 -11.17192,4.9258 -11.17192,11.04429 v 0.33176 c 0,6.11849 4.98284,11.04429 11.17192,11.04429 h 4.77491 c 5.57231,0.64006 9.8728,5.34563 9.8728,11.09493 0,5.74929 -4.30049,10.45434 -9.8728,11.09441 h -6.04149 c -6.10106,0 -11.01276,4.91172 -11.01276,11.01277 0,6.00225 4.7548,10.84947 10.7182,11.00501 h -0.11989 c 6.18908,0 11.17142,4.98234 11.17142,11.17141 0,6.18907 -4.98234,11.17193 -11.17142,11.17193 h -4.91649 c -6.18908,0 -11.17192,4.92528 -11.17192,11.04377 v 0.33176 c 0,6.11849 4.98284,11.04429 11.17192,11.04429 h 82.25804 c 0.10363,0 0.20608,-0.005 0.309,-0.008 h 65.02654 c 6.18903,0 11.1714,-4.92529 11.1714,-11.04378 v -0.33176 c 0,-6.11849 -4.98237,-11.04428 -11.1714,-11.04428 h -4.91598 c -6.18908,0 -11.17143,-4.98235 -11.17143,-11.17142 0,-6.18907 4.98235,-11.17141 11.17143,-11.17141 h -0.13076 c 5.96826,-0.1502 10.72856,-4.9998 10.72856,-11.00553 0,-6.10104 -4.91172,-11.01276 -11.01278,-11.01276 h -6.165 c -5.545,-0.66512 -9.81697,-5.3567 -9.81697,-11.08666 0,-5.7493 4.30049,-10.45487 9.8728,-11.09493 h 4.77388 c 6.18902,0 11.17192,-4.9258 11.17192,-11.04429 v -0.33176 c 0,-6.11849 -4.9829,-11.04429 -11.17192,-11.04429 h -4.91496 c -6.18908,0 -11.17192,-4.98234 -11.17192,-11.17141 0,-6.18907 4.98284,-11.17141 11.17192,-11.17141 z"/><rect width="86.3" height="145.3" x="160" y="134" fill="#c0695e" stroke="#80403c" stroke-dashoffset="24.9" stroke-linecap="round" stroke-linejoin="round" stroke-width="3" rx="5.5" ry="6.2"/><path fill="none" stroke="#a3574f" stroke-linecap="round" stroke-width="3" d="m 245.94523,257.15133 c 0,0 -0.64157,0.28182 -1.68687,0.69445 -1.04531,0.41262 -2.49435,0.95604 -4.10932,1.47925 m -9.77827,1.68851 c -2.39473,-0.29179 -4.59125,-1.23198 -6.68926,-2.49069 -2.09801,-1.2587 -4.09749,-2.8359 -6.09816,-4.40171 m -12.8155,-6.61863 c -2.21874,-0.18507 -4.35717,0.23317 -6.4559,0.96792 -2.09872,0.73475 -4.15773,1.786 -6.21763,2.86694 -2.0599,1.08095 -4.12068,2.19159 -6.22295,3.0451 m -6.47184,1.5024 c -1.72973,0.0408 -3.47536,-0.17889 -5.21312,-0.55847 -1.73776,-0.37956 -3.46765,-0.91905 -5.16593,-1.51792 -1.69828,-0.59886 -3.36494,-1.25711 -4.97624,-1.87418 -1.61129,-0.61709 -2.56799,-1.19302 -4.04481,-1.62726"/><path fill="none" stroke="#d9917a" stroke-dashoffset="24.9" stroke-linecap="round" stroke-linejoin="round" stroke-width="3" d="m 167.02552,160.47646 v -19.90534 h 52.19741"/><path fill="none" stroke="#d9917a" stroke-linecap="round" stroke-width=".7" d="m 224.20947,260.22992 c 0,0.67374 0,1.34773 0,2.02199" transform="translate(-803 -947) scale(4.32725)"/><path fill="#a3574f" d="m 203.97876,252.53005 c -8.11923,-0.24822 -15.22918,7.64671 -23.45076,7.86825 -7.23276,0.19491 -15.1128,-3.78523 -21.00751,-5.54075 v 18.21698 c 0,3.40952 2.44629,6.15414 5.48494,6.15414 h 75.33442 c 3.03864,0 5.48493,-2.74462 5.48493,-6.15414 v -10.79676 c -0.64766,0.26986 -11.09805,4.57817 -16.58245,3.8132 -9.2294,-1.28732 -15.1988,-12.61566 -24.47447,-13.5108 -0.26408,-0.0255 -0.52719,-0.0421 -0.7891,-0.0501 z"/><rect width="86.3" height="145.3" x="160" y="134" fill="none" stroke="#80403c" stroke-dashoffset="24.9" stroke-linecap="round" stroke-linejoin="round" stroke-width="3" rx="5.5" ry="6.2"/><path fill="none" stroke="#a3574f" stroke-linecap="round" stroke-width="2.2" d="m 209.30672,242.85021 c 0,-21.39481 0,-42.78942 0,-64.18382" transform="translate(-50 -81) scale(1.34198)"/><path fill="none" stroke="#a3574f" stroke-linecap="round" stroke-width="2.2" d="m 187.56138,201.81465 c 0,-5.37809 0,-10.75597 0,-16.13364" transform="translate(-50 -43) scale(1.34198)"/><path fill="none" stroke="#a3574f" stroke-linecap="round" stroke-width="2.2" d="m 187.56138,201.81465 c 0,-6.7794 0,-13.55859 0,-20.33758" transform="translate(-38 -71) scale(1.34198)"/><path fill="none" stroke="#a3574f" stroke-linecap="round" stroke-width="2.2" d="m 187.56138,201.81465 c 0,-5.37809 0,-10.75597 0,-16.13364" transform="translate(-38 -26) scale(1.34198)"/><path fill="none" stroke="#a3574f" stroke-linecap="round" stroke-width="2.2" d="m 187.56138,181.63576 c 0,-0.0531 0,-0.106 0,-0.15869" transform="translate(-38 -82) scale(1.34198)"/><path fill="none" stroke="#a3574f" stroke-linecap="round" stroke-width="2.2" d="m 187.56138,201.81465 c 0,-2.57547 0,-5.15072 0,-7.72577" transform="translate(-50 -88) scale(1.34198)"/><path fill="none" stroke="#a3574f" stroke-linecap="round" stroke-width="2.2" d="m 187.56138,201.81465 c 0,-6.7794 0,-13.55859 0,-20.33758" transform="rotate(180 218 239) scale(1.34198)"/><path fill="none" stroke="#a3574f" stroke-linecap="round" stroke-width="2.2" d="m 187.56138,201.81465 c 0,-5.37809 0,-10.75597 0,-16.13364" transform="rotate(180 218 213) scale(1.34198)"/><path fill="none" stroke="#a3574f" stroke-linecap="round" stroke-width="2.2" d="m 187.56138,181.63576 c 0,-0.0531 0,-0.106 0,-0.15869" transform="rotate(180 218 244) scale(1.34198)"/><g fill="none" stroke-linecap="round" stroke-linejoin="round" stroke-width="2.2"><path stroke="#626262" d="m 161.72721,215.52492 h 11.76807 v 4.09207" transform="matrix(-1.34198 0 0 1.34198 402 -88)"/><path stroke="#bababa" d="m 161.71878,214.33313 h 11.76807" transform="matrix(-1.34198 0 0 1.34198 402 -88)"/></g><path fill="none" stroke="#80403c" stroke-linecap="round" stroke-width="2.2" d="m 187.56138,210.22252 c 0,-5.09786 0,-10.19545 0,-15.29285" transform="translate(-50 -4) scale(1.34198)"/><path fill="none" stroke="#80403c" stroke-linecap="round" stroke-width="2.2" d="m 187.56138,210.22252 c 0,-2.15508 0,-4.30994 0,-6.46458" transform="translate(-66 -4) scale(1.34198)"/><path fill="none" stroke="#80403c" stroke-linecap="round" stroke-width="2.2" d="m 187.56138,210.22252 c 0,-2.29523 0,-4.59019 0,-6.88498" transform="translate(-38 -4) scale(1.34198)"/><path fill="none" stroke="#80403c" stroke-linecap="round" stroke-width="2.2" d="m 187.56138,206.43898 c 0,-0.0531 0,-0.106 0,-0.15868" transform="translate(-38 -15) scale(1.34198)"/><path fill="none" stroke="#80403c" stroke-linecap="round" stroke-width="2.2" d="m 187.56138,210.22252 c 0,-1.17416 0,-2.3481 0,-3.52183" transform="translate(-21 -4) scale(1.34198)"/><path fill="none" stroke="#80403c" stroke-linecap="round" stroke-width="2.2" d="m 187.56138,210.22252 c 0,-0.75376 0,-1.50731 0,-2.26064" transform="translate(-83 -4) scale(1.34198)"/><path fill="#262626" stroke="#626262" stroke-dashoffset="111.3" stroke-linecap="round" stroke-linejoin="round" stroke-width="3" d="m 171.74284,234.27758 c 0.89353,0 1.6126,-0.71906 1.6126,-1.61259 v -8.25524 a 5.4159771,5.4159771 0 0 0 2.58334,-4.61134 5.4159771,5.4159771 0 0 0 -5.41571,-5.41572 5.4159771,5.4159771 0 0 0 -5.41627,5.41572 5.4159771,5.4159771 0 0 0 2.64505,4.64604 v 8.22054 c 0,0.89353 0.71906,1.61259 1.6126,1.61259 z"/><rect width="31.5" height="16.9" x="187" y="112" fill="#999" rx="3.2" ry="3.2"/><path fill="#b3b3b3" d="m 757.80469,56.310547 -36.60742,63.404293 c 1.44401,0.34481 2.9435,0.54688 4.49609,0.54688 h 70.25391 l 28.83984,-49.953126 c -2.2577,-8.088999 -9.63831,-13.998047 -18.4668,-13.998047 z" transform="translate(0 97) scale(.26458)"/><path d="M693.58398 82.126953q0-3.964844-1.64062-6.210937-1.62109-2.265625-4.47266-2.265625-2.85156 0-4.49218 2.265625-1.6211 2.246093-1.6211 6.210937 0 3.964844 1.6211 6.230469 1.64062 2.246094 4.49218 2.246094 2.85157 0 4.47266-2.246094 1.64062-2.265625 1.64062-6.230469zm-12.22656-7.636719q1.13281-1.953125 2.85156-2.890625 1.73829-.957031 4.14063-.957031 3.98437 0 6.46484 3.164063 2.5 3.164062 2.5 8.320312 0 5.15625-2.5 8.320313-2.48047 3.164062-6.46484 3.164062-2.40234 0-4.14063-.9375-1.71875-.957031-2.85156-2.910156v3.28125h-3.61328V62.654297h3.61328zM711.74805 73.689453q-2.89063 0-4.57032 2.265625-1.67968 2.246094-1.67968 6.171875 0 3.925781 1.66015 6.191406 1.67969 2.246094 4.58985 2.246094 2.87109 0 4.55078-2.265625 1.67969-2.265625 1.67969-6.171875 0-3.886719-1.67969-6.152344-1.67969-2.285156-4.55078-2.285156zm0-3.046875q4.6875 0 7.36328 3.046875 2.67578 3.046875 2.67578 8.4375 0 5.371094-2.67578 8.4375-2.67578 3.046875-7.36328 3.046875-4.70703 0-7.38282-3.046875-2.65625-3.066406-2.65625-8.4375 0-5.390625 2.65625-8.4375 2.67579-3.046875 7.38282-3.046875zM743.44727 82.126953q0-3.964844-1.64063-6.210937-1.62109-2.265625-4.47266-2.265625-2.85156 0-4.49218 2.265625-1.6211 2.246093-1.6211 6.210937 0 3.964844 1.6211 6.230469 1.64062 2.246094 4.49218 2.246094 2.85157 0 4.47266-2.246094 1.64063-2.265625 1.64063-6.230469zM731.2207 74.490234q1.13282-1.953125 2.85157-2.890625 1.73828-.957031 4.14062-.957031 3.98438 0 6.46484 3.164063 2.5 3.164062 2.5 8.320312 0 5.15625-2.5 8.320313-2.48046 3.164062-6.46484 3.164062-2.40234 0-4.14062-.9375-1.71875-.957031-2.85157-2.910156v3.28125h-3.61328V62.654297h3.61328z" aria-label="bob" font-family="sans-serif" font-size="40" font-weight="400" letter-spacing="0" transform="translate(-27 95) scale(.3218)" word-spacing="0"/><rect width="31.5" height="16.9" x="187" y="112" fill="none" stroke="#80403c" stroke-dashoffset="111.3" stroke-linecap="square" stroke-width="3" rx="3.2" ry="3.2"/></g></svg>
