<svg xmlns="http://www.w3.org/2000/svg" viewBox="0 0 400 200"><g transform="translate(0 -97)"><rect width="280" height="160" x="60" y="117" fill="#d0d6da" ry="20"/><path fill="#4a5461" d="m 79.999768,116.99982 c -11.080002,0 -19.999815,8.92033 -19.999815,20.00033 H 339.99992 c 0,-11.08 -8.91981,-20.00033 -19.99982,-20.00033 z"/><path fill="#b7bec8" d="m 90.000189,122.00002 c -5.539999,0 -10.000421,4.45991 -10.000421,9.99991 0,2.76999 -2.229705,5.00021 -4.999697,5.00021 H 59.999953 v 19.99981 H 339.99992 V 137.00014 H 204.99989 c -2.77,0 -4.9997,-2.23022 -4.9997,-5.00021 0,-5.54 -4.46042,-9.99991 -10.00042,-9.99991 z"/><g fill="#626d7f"><circle cx="320" cy="127" r="5"/><circle cx="305" cy="127" r="5"/><circle cx="290" cy="127" r="5"/></g><rect width="170" height="10" x="70" y="142" fill="#d0d6da" ry="4.1"/><rect width="85" height="10" x="245" y="142" fill="#d0d6da" ry="5"/><path fill="#e4e8ea" d="m 226.77148,386.16797 v 218.55664 c 0,41.87716 33.71268,75.58984 75.58985,75.58984 h 875.42777 c 0,0 -158.8689,-6.35993 -234.58793,-28 -36.64358,-10.47254 -66.49843,-39.52669 -103.54101,-48.48633 -57.1725,-13.82853 -119.39076,8.22819 -176.34571,-6.4707 -48.57316,-12.53571 -87.36862,-50.18128 -134.28125,-67.94922 -45.87095,-17.37339 -99.09287,-14.12097 -142.36914,-37.21093 -38.7618,-20.68128 -59.81594,-66.88906 -98.6875,-87.36329 -15.1823,-7.99677 -39.77856,-14.28153 -61.20508,-18.66601 z" opacity=".9" transform="matrix(.26458 0 0 .26458 0 97)"/><path fill="none" stroke="#e4e8ea" stroke-dashoffset="531.6" stroke-linecap="round" stroke-linejoin="round" stroke-width="3.2" d="m 302.22346,271.13342 c -21.8272,-2.15978 -45.17413,-1.65645 -64.55675,-13.48836 m -13.73576,-5.75434 c -7.84318,-1.92655 -15.99741,-1.47575 -23.9793,-0.97664 m -23.933,-1.16184 c -12.60864,-2.94799 -21.55453,-13.44204 -33.55676,-17.76448 m -19.507,-3.9818 c -23.898564,-0.142 -29.785676,-21.52541 -44.494359,-28.78839" opacity=".9"/><rect width="140" height="20" x="100" y="207" fill="#8392d7" rx="10" ry="10"/><rect width="140" height="20" x="100" y="237" fill="#8392d7" rx="10" ry="9.8"/><g fill="#e4e8ea"><circle cx="140" cy="247" r="5"/><circle cx="125" cy="247" r="5"/><circle cx="110" cy="247" r="5"/><circle cx="185" cy="247" r="5"/><circle cx="170" cy="247" r="5"/><circle cx="155" cy="247" r="5"/><circle cx="230" cy="247" r="5"/><circle cx="215" cy="247" r="5"/><circle cx="200" cy="247" r="5"/></g><circle cx="117.5" cy="179.5" r="17.5" fill="#8c9ad8"/><rect width="65" height="10" x="105" y="212" fill="#e4e8ea" opacity=".9" rx="5" ry="4.7"/><path fill="#e4e8ea" d="m 406.29883,321.25977 c -10.25899,0 -19.20882,5.3979 -24.1836,13.51757 a 66.141731,66.141731 0 0 0 61.97852,43.17578 66.141731,66.141731 0 0 0 61.95508,-43.21679 c -4.97978,-8.09676 -13.91654,-13.47656 -24.15821,-13.47656 h -0.0742 a 47.244094,47.244094 0 0 1 -37.72266,18.89843 47.244094,47.244094 0 0 1 -37.73633,-18.89843 z" opacity=".9" transform="matrix(.26458 0 0 .26458 0 97)"/><circle cx="117.5" cy="174.5" r="7.5" fill="#e4e8ea"/><circle cx="260" cy="247" r="10" fill="#8c9ad8"/><path fill="none" stroke="#e4e8ea" stroke-dashoffset="531.6" stroke-linecap="round" stroke-linejoin="round" stroke-width="4.6" d="M 258.61418,243.10252 262.51166,247 c -1.35199,1.35199 -2.70398,2.70398 -4.05597,4.05597"/></g></svg>